/* XPM */
static char * error_xpm[] = {
"16 16 43 1",
" 	c None",
".	c #FFEC00",
"+	c #FFE400",
"@	c #F3CD00",
"#	c #E5C50F",
"$	c #E0C214",
"%	c #DEC016",
"&	c #FFEA00",
"*	c #FFE800",
"=	c #FFDA00",
"-	c #FFDE00",
";	c #FFD900",
">	c #FBD505",
",	c #D6BA21",
"'	c #D8BB1E",
")	c #FDD602",
"!	c #EAC709",
"~	c #DABC1D",
"{	c #D0B628",
"]	c #DDBE1A",
"^	c #D4B824",
"/	c #DEBE18",
"(	c #E0C114",
"_	c #000000",
":	c #FFAFAF",
"<	c #848484",
"[	c #FF0000",
"}	c #939393",
"|	c #888888",
"1	c #8D8D8D",
"2	c #A0A0A0",
"3	c #9C9C9C",
"4	c #A1A1A1",
"5	c #A2A2A2",
"6	c #B3B3B3",
"7	c #ABABAB",
"8	c #949494",
"9	c #B2B2B2",
"0	c #B4B4B4",
"a	c #8A8A8A",
"b	c #A3A3A3",
"c	c #A4A4A4",
"d	c #AEAEAE",
"..+@#$%         ",
"&*=@            ",
"-;>,'           ",
")!~  {'         ",
"] ^             ",
"/  ,            ",
"(  _            ",
"   _            ",
"   _            ",
" : _ :      <  <",
":[:}:[:     <  <",
" :[:[:    |  < <",
"  :[:}____<  123",
" :[:[:     <4567",
":[: :[:     8990",
" :   :   <<abcd9"};
