/* XPM */
static char * opened_xpm[] = {
"7 6 2 1",
" 	c None",
".	c #000000",
".......",
" ..... ",
"  ...  ",
"   .   ",
"       ",
"       "};
