/* XPM */
static char * online_xpm[] = {
"16 16 62 1",
" 	c None",
".	c #E6CB02",
"+	c #E6C104",
"@	c #E6CA02",
"#	c #E6D101",
"$	c #E6C603",
"%	c #FFDE03",
"&	c #E6C902",
"*	c #E6CD02",
"=	c #E6BA05",
"-	c #E6C004",
";	c #FFDA04",
">	c #FFDC04",
",	c #FFDE04",
"'	c #E6D001",
")	c #E6BA06",
"!	c #E6BC05",
"~	c #FFD305",
"{	c #FFD505",
"]	c #FFD704",
"^	c #FFD904",
"/	c #FFDB04",
"(	c #FFDD03",
"_	c #FFDF03",
":	c #E6CC02",
"<	c #FFD106",
"[	c #FFD306",
"}	c #FFD506",
"|	c #FFD705",
"1	c #FFDD04",
"2	c #E6B606",
"3	c #FFCD07",
"4	c #FFCF06",
"5	c #FFD405",
"6	c #FFD905",
"7	c #E6C903",
"8	c #E6B007",
"9	c #E6B207",
"0	c #FFC807",
"a	c #FFCB07",
"b	c #FFCC06",
"c	c #FFCE07",
"d	c #FFD007",
"e	c #E6B307",
"f	c #FFC808",
"g	c #FFCA08",
"h	c #FFCF07",
"i	c #FFD206",
"j	c #FFD605",
"k	c #E6C404",
"l	c #FFCC07",
"m	c #FFD006",
"n	c #FFD406",
"o	c #E6AE08",
"p	c #FFC608",
"q	c #FFCE06",
"r	c #E6BF04",
"s	c #E6AA09",
"t	c #E6B208",
"u	c #E6B906",
"v	c #E6BB05",
"w	c #E6B506",
"       .        ",
"   +   @   #    ",
"    + $%& *     ",
" =  -+;>,&.  '  ",
"  )!~{]^/(_.:   ",
"   =<[}|^/1&    ",
"  234<~5|6/(7   ",
"890abcd[}|6/(7@ ",
"  efg3h<i5j6k   ",
"   9fal4min+    ",
"  o8pfglqdir+   ",
" s  8tfgluv  +  ",
"    o 9fw u     ",
"   s   9   u    ",
"       8        ",
"                "};
