<?xml version="1.0" encoding="UTF-8" standalone="no"?>
<!-- Generator: Adobe Illustrator 19.0.0, SVG Export Plug-In . SVG Version: 6.00 Build 0)  -->

<svg
   xmlns:dc="http://purl.org/dc/elements/1.1/"
   xmlns:cc="http://creativecommons.org/ns#"
   xmlns:rdf="http://www.w3.org/1999/02/22-rdf-syntax-ns#"
   xmlns:svg="http://www.w3.org/2000/svg"
   xmlns="http://www.w3.org/2000/svg"
   xmlns:sodipodi="http://sodipodi.sourceforge.net/DTD/sodipodi-0.dtd"
   xmlns:inkscape="http://www.inkscape.org/namespaces/inkscape"
   version="1.1"
   id="Layer_1"
   x="0px"
   y="0px"
   viewBox="0 0 495 495"
   style="enable-background:new 0 0 495 495;"
   xml:space="preserve"
   sodipodi:docname="map.svg"
   inkscape:export-filename="C:\msys64\home\Philipp\gajim-master\gajim\data\icons\hicolor\street-map-svgrepo-com.svg.png"
   inkscape:export-xdpi="18.618181"
   inkscape:export-ydpi="18.618181"
   inkscape:version="0.92.2 (5c3e80d, 2017-08-06)"><metadata
     id="metadata81"><rdf:RDF><cc:Work
         rdf:about=""><dc:format>image/svg+xml</dc:format><dc:type
           rdf:resource="http://purl.org/dc/dcmitype/StillImage" /><dc:title></dc:title></cc:Work></rdf:RDF></metadata><defs
     id="defs79" /><sodipodi:namedview
     pagecolor="#ffffff"
     bordercolor="#666666"
     borderopacity="1"
     objecttolerance="10"
     gridtolerance="10"
     guidetolerance="10"
     inkscape:pageopacity="0"
     inkscape:pageshadow="2"
     inkscape:window-width="1920"
     inkscape:window-height="1056"
     id="namedview77"
     showgrid="false"
     inkscape:zoom="0.47676768"
     inkscape:cx="146.82203"
     inkscape:cy="247.5"
     inkscape:window-x="-8"
     inkscape:window-y="-8"
     inkscape:window-maximized="1"
     inkscape:current-layer="Layer_1" /><g
     id="g44"><path
       style="fill:#FFCD00;"
       d="M330,0v70c10.62,0,20.79,1.954,30.179,5.512L412.29,23.4l44.044,12.524l-62.643,62.643   c13.502,15.111,21.724,35.035,21.724,56.847c0,14.551-3.798,28.913-10.84,41.56L495,287.4V46.92L330,0z"
       id="path2" /><polygon
       style="fill:#FFCD00;"
       points="330,382.256 330,410.257 382.852,463.109 495,495 495,343.968 431.644,280.612  "
       id="polygon4" /><polygon
       style="fill:#FFCD00;"
       points="330,325.688 403.36,252.328 380.332,229.3 330,292.581  "
       id="polygon6" /><polygon
       style="fill:#FFDA44;"
       points="316,396.257 330,410.257 330,382.256  "
       id="polygon8" /><polygon
       style="fill:#FFDA44;"
       points="244.06,380.885 164.99,459.956 164.99,495 319.099,451.18 315.405,452.23  "
       id="polygon10" /><polygon
       style="fill:#FFDA44;"
       points="272.266,219.993 206.001,286.258 287.716,367.972 330,325.688 330,292.581  "
       id="polygon12" /><polygon
       style="fill:#FFDA44;"
       points="204.107,231.584 172.068,199.545 164.99,206.624 164.99,270.7  "
       id="polygon14" /><polygon
       style="fill:#FFDA44;"
       points="215.776,352.601 177.717,314.542 164.99,327.269 164.99,403.388  "
       id="polygon16" /><path
       style="fill:#FFDA44;"
       d="M164.99,98.084v37.814l67.401,67.401l17.743-17.743c-3.627-9.595-5.549-19.819-5.549-30.141   C244.585,108.313,282.898,70,330,70V0L191.048,39.51l45.435-12.919L164.99,98.084z"
       id="path18" /><polygon
       style="fill:#FFCD00;"
       points="164.99,206.624 0,371.615 0,435.69 164.99,270.7  "
       id="polygon20" /><polygon
       style="fill:#FFCD00;"
       points="164.99,327.269 34.397,457.862 93.662,474.716 164.99,403.388  "
       id="polygon22" /><polygon
       style="fill:#FFCD00;"
       points="117.799,145.276 0,263.074 0,315.047 143.784,171.261  "
       id="polygon24" /><polygon
       style="fill:#FFCD00;"
       points="137.705,487.241 129.651,484.95 164.99,495 164.99,459.956  "
       id="polygon26" /><polygon
       style="fill:#FFCD00;"
       points="146.083,116.991 164.99,135.899 164.99,98.084  "
       id="polygon28" /><polygon
       style="fill:#FFCD00;"
       points="0,0 0,206.506 160.782,45.723  "
       id="polygon30" /><path
       style="fill:#FFE477;"
       d="M397.019,208.32l-16.687,20.98l23.028,23.028L287.716,367.972l-81.715-81.715l66.265-66.265   l-9.253-11.633c-5.47-6.916-9.79-14.633-12.879-22.803L232.391,203.3l-86.308-86.308l18.907-18.907l71.493-71.493L191.048,39.51   L164.99,46.92l-4.208-1.197L0,206.506v56.568l117.799-117.799l25.985,25.985L0,315.047v56.569l164.99-164.992l7.078-7.078   l32.039,32.039L0,435.69v12.39l34.397,9.782L164.99,327.269l12.727-12.727l38.059,38.059l-50.786,50.786l-71.328,71.328   l35.988,10.234l8.055,2.291l27.285-27.285l79.07-79.071l71.345,71.344l3.694-1.05l10.901-3.1l52.853,15.029L316,396.257   l115.644-115.644L495,343.968V287.4l-90.425-90.425C402.367,200.939,399.849,204.74,397.019,208.32z"
       id="path32" /><path
       style="fill:#FFE477;"
       d="M393.691,98.568l62.643-62.643L412.29,23.4l-52.111,52.111   C373.144,80.425,384.612,88.406,393.691,98.568z"
       id="path34" /><path
       style="fill:#CD2A00;"
       d="M330,123.573c17.553,0,31.842,14.281,31.842,31.842c0,17.553-14.289,31.842-31.842,31.842v105.324   l50.332-63.281l16.687-20.98c2.831-3.58,5.349-7.38,7.556-11.345c7.042-12.647,10.84-27.008,10.84-41.56   c0-21.813-8.222-41.736-21.724-56.847c-9.079-10.161-20.547-18.143-33.512-23.056C350.79,71.954,340.62,70,330,70V123.573z"
       id="path36" /><path
       style="fill:#D8D7DA;"
       d="M361.842,155.415c0-17.561-14.289-31.842-31.842-31.842v63.683   C347.553,187.257,361.842,172.968,361.842,155.415z"
       id="path38" /><path
       style="fill:#FF3501;"
       d="M244.585,155.415c0,10.322,1.922,20.546,5.549,30.141c3.089,8.171,7.409,15.887,12.879,22.803   l9.253,11.633L330,292.581V187.257c-17.561,0-31.842-14.289-31.842-31.842c0-17.561,14.281-31.842,31.842-31.842V70   C282.898,70,244.585,108.313,244.585,155.415z"
       id="path40" /><path
       style="fill:#FFFFFF;"
       d="M330,123.573c-17.561,0-31.842,14.281-31.842,31.842c0,17.553,14.281,31.842,31.842,31.842V123.573z   "
       id="path42" /></g><g
     id="g46" /><g
     id="g48" /><g
     id="g50" /><g
     id="g52" /><g
     id="g54" /><g
     id="g56" /><g
     id="g58" /><g
     id="g60" /><g
     id="g62" /><g
     id="g64" /><g
     id="g66" /><g
     id="g68" /><g
     id="g70" /><g
     id="g72" /><g
     id="g74" /></svg>