<?xml version="1.0" encoding="UTF-8" standalone="no"?>
<svg
   width="296"
   height="296"
   viewBox="0 0 296 296"
   version="1.1"
   id="svg879"
   sodipodi:docname="qr-code-scan.svg"
   xml:space="preserve"
   inkscape:version="1.2.1 (9c6d41e410, 2022-07-14, custom)"
   xmlns:inkscape="http://www.inkscape.org/namespaces/inkscape"
   xmlns:sodipodi="http://sodipodi.sourceforge.net/DTD/sodipodi-0.dtd"
   xmlns="http://www.w3.org/2000/svg"
   xmlns:svg="http://www.w3.org/2000/svg"><sodipodi:namedview
     id="namedview881"
     pagecolor="#ffffff"
     bordercolor="#666666"
     borderopacity="1.0"
     inkscape:showpageshadow="2"
     inkscape:pageopacity="0.0"
     inkscape:pagecheckerboard="0"
     inkscape:deskcolor="#d1d1d1"
     showgrid="false"
     inkscape:zoom="1.1820013"
     inkscape:cx="-30.033808"
     inkscape:cy="205.58353"
     inkscape:window-width="1920"
     inkscape:window-height="998"
     inkscape:window-x="0"
     inkscape:window-y="0"
     inkscape:window-maximized="1"
     inkscape:current-layer="svg879" /><defs
     id="defs5"><rect
       id="p"
       width="8"
       height="8" /></defs><g
     id="g3488"
     transform="matrix(1.1697246,0,0,1.1697246,-27.551074,-25.261865)"><path
       style="fill:#000000;stroke-width:0.476103"
       d="M 251.48889,66.946387 V 46.712014 H 231.25452 211.02015 V 36.475802 26.23959 h 21.16314 c 22.41235,0 24.39388,0.156166 28.55025,2.250069 3.06508,1.544132 6.94528,5.251442 8.51507,8.135659 2.59204,4.762428 2.71271,6.062675 2.71271,29.230841 V 87.18076 h -10.23621 -10.23622 z"
       id="path3464" /><path
       style="fill:#000000;stroke-width:0.476103"
       d="m 28.196638,66.017616 c 0,-22.412343 0.156166,-24.393876 2.250069,-28.550247 1.544132,-3.065083 5.251442,-6.945286 8.135659,-8.515074 4.762428,-2.592038 6.062675,-2.712705 29.230841,-2.712705 H 89.137808 V 36.475802 46.712014 H 68.903435 48.669062 V 66.946387 87.18076 H 38.43285 28.196638 Z"
       id="path3462" /><path
       style="fill:#000000;stroke-width:0.476103"
       d="M 170.5514,97.175398 V 66.701287 l 30.35156,0.12255 30.35156,0.12255 0.12255,30.351559 0.12255,30.351564 H 201.02551 170.5514 Z m 40.46875,0.241574 V 87.18076 h -10.23621 -10.23622 v 9.918809 c 0,5.455351 0.14283,10.061641 0.31741,10.236211 0.17457,0.17457 4.78086,0.3174 10.23621,0.3174 h 9.91881 z"
       id="path3460" /><path
       style="fill:#000000;stroke-width:0.476103"
       d="M 140.08082,107.41513 V 87.18076 h 9.99816 9.99816 v 20.23437 20.23438 h -9.99816 -9.99816 z"
       id="path3458" /><path
       style="fill:#000000;stroke-width:0.476103"
       d="m 68.780885,97.297946 0.12255,-30.351559 30.351559,-0.12255 30.351556,-0.12255 V 97.175398 127.64951 H 99.132446 68.658335 Z m 40.719795,0 0.12849,-10.117186 H 99.38349 89.137808 v 10.245682 10.245678 l 10.117186,-0.12849 10.117186,-0.1285 z"
       id="path3456" /><path
       style="fill:#000000;stroke-width:0.476103"
       d="m 68.665384,148.12193 v -9.99816 h 10.236212 10.236212 v 9.99816 9.99816 H 78.901596 68.665384 Z"
       id="path3454" /><path
       style="fill:#000000;stroke-width:0.476103"
       d="m 139.97126,168.47533 -0.12849,-10.11719 -10.11719,-0.12849 -30.662081,-0.28013 v -9.98869 -9.98869 l 40.779271,0.15163 h 20.23437 v 20.23437 20.23437 h -9.98869 -9.98869 z"
       id="path3452"
       sodipodi:nodetypes="ccccccccccccc" /><path
       style="fill:#000000;stroke-width:0.476103"
       d="m 211.02015,193.82781 v -15.2353 h -10.23621 -10.23622 v 15.2353 15.23529 h 10.23622 10.23621 z"
       id="path3474" /><path
       style="fill:#000000;stroke-width:0.476103"
       d="m 140.08082,209.0631 v -20.47242 h 15.23529 15.23529 v -4.99908 -4.99909 h 9.99816 9.99816 V 168.3563 158.12009 h -9.99816 -9.99816 v -9.99816 -9.99816 h 9.99816 9.99816 v 9.99816 9.99816 h 10.23622 10.23621 v -9.99816 -9.99816 h 10.23621 10.23621 v 9.99816 9.99816 h -10.23621 -10.23621 v 10.23621 10.23621 h 10.23621 10.23621 v 15.2353 15.23529 h -10.23621 -10.23621 v 10.24568 10.24568 l -10.11719,-0.12849 -10.11718,-0.1285 -0.1285,-10.11718 -0.1285,-10.11719 h -15.22582 -15.22582 v 10.23621 10.23621 h -9.99816 -9.99816 z"
       id="path3450" /><path
       style="fill:#000000;stroke-width:0.476103"
       d="m 68.982786,229.21812 c -0.174571,-0.17457 -0.317402,-13.88633 -0.317402,-30.47058 v -30.15319 h 30.470585 30.470581 v 30.47059 30.47058 H 99.453372 c -16.584254,0 -30.296015,-0.14283 -30.470586,-0.3174 z m 40.517894,-30.27221 -0.1285,-10.11718 -10.117186,-0.1285 -10.117186,-0.12849 v 10.24568 10.24568 h 10.245682 10.24568 z"
       id="path3448" /><path
       style="fill:#000000;stroke-width:0.476103"
       d="m 211.02015,259.76806 v -10.23621 h 20.23437 20.23437 V 229.29747 209.0631 h 10.23622 10.23621 v 21.3246 c 0,23.16817 -0.12067,24.46841 -2.71271,29.23084 -1.56979,2.88422 -5.44999,6.59153 -8.51507,8.13566 -4.15637,2.0939 -6.1379,2.25007 -28.55025,2.25007 h -21.16314 z"
       id="path3446" /><path
       style="fill:#000000;stroke-width:0.476103"
       d="m 43.551277,269.26862 c -1.374571,-0.37014 -3.39419,-1.12956 -4.488044,-1.6876 -2.760243,-1.40817 -6.658458,-5.21488 -8.15389,-7.96248 -2.592038,-4.76243 -2.712705,-6.06267 -2.712705,-29.23084 V 209.0631 H 38.43285 48.669062 v 20.23437 20.23438 h 20.234373 20.234373 v 10.23621 10.23621 l -21.543656,-0.0313 c -16.989841,-0.0247 -22.071931,-0.17358 -24.042875,-0.70431 z"
       id="path3346" /></g></svg>
