<?xml version="1.0" encoding="UTF-8"?>
<svg xmlns="http://www.w3.org/2000/svg" xmlns:xlink="http://www.w3.org/1999/xlink" width="16px" height="16px" viewBox="0 0 16 16" version="1.1">
<defs>
<filter id="alpha" filterUnits="objectBoundingBox" x="0%" y="0%" width="100%" height="100%">
  <feColorMatrix type="matrix" in="SourceGraphic" values="0 0 0 0 1 0 0 0 0 1 0 0 0 0 1 0 0 0 1 0"/>
</filter>
<mask id="mask0">
  <g filter="url(#alpha)">
<rect x="0" y="0" width="16" height="16" style="fill:rgb(0%,0%,0%);fill-opacity:0.137778;stroke:none;"/>
  </g>
</mask>
<linearGradient id="linear0" gradientUnits="userSpaceOnUse" x1="15.571428" y1="29.99917" x2="15.571428" y2="42.285942" gradientTransform="matrix(2.931288,0,0,2.931288,-1.412986,2.510315)">
<stop offset="0" style="stop-color:rgb(0%,0%,0%);stop-opacity:1;"/>
<stop offset="1" style="stop-color:rgb(0%,0%,0%);stop-opacity:0;"/>
</linearGradient>
<clipPath id="clip1">
  <rect x="0" y="0" width="192" height="152"/>
</clipPath>
<g id="surface511871" clip-path="url(#clip1)">
<path style=" stroke:none;fill-rule:evenodd;fill:url(#linear0);" d="M 36.695312 90.449219 C 39.863281 90.667969 45.804688 93.007812 48.417969 90.449219 C 42.980469 93.910156 45.859375 116.472656 43.183594 127.925781 C 41.019531 115.433594 39.433594 94.847656 36.695312 90.449219 Z M 36.695312 90.449219 "/>
</g>
<mask id="mask1">
  <g filter="url(#alpha)">
<rect x="0" y="0" width="16" height="16" style="fill:rgb(0%,0%,0%);fill-opacity:0.137778;stroke:none;"/>
  </g>
</mask>
<linearGradient id="linear1" gradientUnits="userSpaceOnUse" x1="15.571428" y1="29.99917" x2="15.571428" y2="42.285942" gradientTransform="matrix(2.931288,0,0,2.931288,4.44959,2.510315)">
<stop offset="0" style="stop-color:rgb(0%,0%,0%);stop-opacity:1;"/>
<stop offset="1" style="stop-color:rgb(0%,0%,0%);stop-opacity:0;"/>
</linearGradient>
<clipPath id="clip2">
  <rect x="0" y="0" width="192" height="152"/>
</clipPath>
<g id="surface511874" clip-path="url(#clip2)">
<path style=" stroke:none;fill-rule:evenodd;fill:url(#linear1);" d="M 107.042969 90.449219 C 103.875 90.667969 97.933594 93.007812 95.320312 90.449219 C 100.757812 93.910156 97.878906 116.472656 100.554688 127.925781 C 102.71875 115.433594 104.304688 94.847656 107.042969 90.449219 Z M 107.042969 90.449219 "/>
</g>
</defs>
<g id="surface511853">
<use xlink:href="#surface511871" transform="matrix(1,0,0,1,-168,-16)" mask="url(#mask0)"/>
<use xlink:href="#surface511874" transform="matrix(1,0,0,1,-168,-16)" mask="url(#mask1)"/>
<path style="fill:none;stroke-width:1.5;stroke-linecap:butt;stroke-linejoin:miter;stroke:rgb(74.509805%,74.509805%,74.509805%);stroke-opacity:1;stroke-miterlimit:4;" d="M 167.998496 178.25793 C 164.403843 178.25793 160.951591 180.405484 161.197906 181.071303 C 161.232544 181.163671 163.537894 181.179066 163.618716 181.694787 L 164.284535 185.724339 C 164.284535 186.105357 164.311475 186.521013 164.569336 186.521013 C 166.959356 187.059826 169.241615 187.040582 171.419959 186.521013 C 171.677819 186.521013 171.716306 186.220817 171.716306 185.83595 L 172.355184 181.721728 C 172.462947 181.290677 174.691324 181.383045 174.745205 180.959692 C 174.849119 180.15917 171.596997 178.25793 167.998496 178.25793 Z M 167.998496 178.25793 " transform="matrix(1.014962,0,0,1.014962,-162.434037,-174.57354)"/>
<path style="fill:none;stroke-width:1.5;stroke-linecap:square;stroke-linejoin:miter;stroke:rgb(74.509805%,74.509805%,74.509805%);stroke-opacity:1;stroke-miterlimit:4;" d="M 167.998496 172.750491 C 166.370511 172.750491 165.04657 174.120615 165.04657 175.814028 C 165.04657 176.891654 165.639265 177.68063 166.551398 178.388784 C 167.082514 179.016117 166.886232 178.931446 166.928567 179.589568 C 166.928567 179.793547 166.993994 179.858974 167.190276 179.858974 C 167.744484 180.3593 168.310238 180.347754 168.841353 179.843579 C 169.037635 179.843579 169.056879 179.751211 169.056879 179.547232 C 169.126155 178.692829 169.164641 178.796743 169.54181 178.292568 C 170.384668 177.749906 170.950422 176.914746 170.950422 175.814028 C 170.950422 174.120615 169.63033 172.750491 167.998496 172.750491 Z M 167.998496 172.750491 " transform="matrix(1.014962,0,0,1.014962,-162.434037,-174.57354)"/>
</g>
</svg>
