/* XPM */
static char * requested_xpm[] = {
"16 16 89 1",
" 	c None",
".	c #8F8F8F",
"+	c #808080",
"@	c #8C8B8C",
"#	c #969696",
"$	c #807F7F",
"%	c #858585",
"&	c #E49898",
"*	c #8A8A8A",
"=	c #737373",
"-	c #7B7C7C",
";	c #7E7E7D",
">	c #FF0000",
",	c #E39696",
"'	c #898989",
")	c #8C8B8B",
"!	c #949393",
"~	c #717272",
"{	c #747474",
"]	c #D48787",
"^	c #DE9292",
"/	c #D78B8B",
"(	c #8D8D8D",
"_	c #707070",
":	c #9B9B9B",
"<	c #AEA2A2",
"[	c #A99C9C",
"}	c #E09494",
"|	c #DE9191",
"1	c #B2B3B3",
"2	c #6A6A6A",
"3	c #919191",
"4	c #949494",
"5	c #989898",
"6	c #9B9B9C",
"7	c #A39696",
"8	c #D09595",
"9	c #D98C8B",
"0	c #ADADAD",
"a	c #848585",
"b	c #606061",
"c	c #636363",
"d	c #888788",
"e	c #8B8B8B",
"f	c #939392",
"g	c #9C9090",
"h	c #D58A89",
"i	c #A8A8A8",
"j	c #ACABAC",
"k	c #838383",
"l	c #868686",
"m	c #626261",
"n	c #868586",
"o	c #BE7273",
"p	c #D98D8C",
"q	c #A69A9A",
"r	c #9F9E9F",
"s	c #A3A2A3",
"t	c #7C7C7C",
"u	c #606060",
"v	c #848484",
"w	c #878788",
"x	c #C07474",
"y	c #CB7F7F",
"z	c #9A8E8E",
"A	c #999A99",
"B	c #767676",
"C	c #59595A",
"D	c #5C5D5C",
"E	c #7F7E7F",
"F	c #828282",
"G	c #AF8483",
"H	c #A4A4A5",
"I	c #AF8484",
"J	c #96898A",
"K	c #727172",
"L	c #757474",
"M	c #525353",
"N	c #5B5B5B",
"O	c #5E5E5E",
"P	c #BD7071",
"Q	c #686868",
"R	c #6B6B6A",
"S	c #575757",
"T	c #5C5C5C",
"U	c #616262",
"V	c #676767",
"W	c #505050",
"X	c #666666",
"       .        ",
"   +   @   #    ",
"    $ %&* .     ",
" =  -;>>,')  !  ",
"  ~{]>^,>>/*(   ",
"   _:><[}>|1    ",
"  2345678>90a   ",
"bcde.fgh>|iijkl ",
"  mn'(o>pqrst   ",
"   uvwx>yzAB    ",
"  CDEFGHIJ4KL   ",
" M  NOP>>QR  =  ",
"    S T>U V     ",
"   W   N   X    ",
"       S        ",
"                "};
