/* XPM */
static char * closed_xpm[] = {
"6 8 2 1",
" 	c None",
".	c #000000",
".     ",
"..    ",
"...   ",
"....  ",
"...   ",
"..    ",
".     ",
"      "};
