/* XPM */
static char * dnd_xpm[] = {
"16 16 45 1",
" 	c None",
".	c #717171",
"+	c #9E9E9E",
"@	c #9B9B9B",
"#	c #9F9F9F",
"$	c #A1A1A1",
"%	c #9C9C9C",
"&	c #989898",
"*	c #999999",
"=	c #A3A3A3",
"-	c #A2A2A2",
";	c #959595",
">	c #949494",
",	c #8F8F8F",
"'	c #898989",
")	c #969696",
"!	c #939393",
"~	c #888888",
"{	c #8C8C8C",
"]	c #828282",
"^	c #7A7A7A",
"/	c #858585",
"(	c #8A8A8A",
"_	c #868686",
":	c #9D9D9D",
"<	c #8D8D8D",
"[	c #8B8B8B",
"}	c #9A9A9A",
"|	c #AAAAAA",
"1	c #797979",
"2	c #909090",
"3	c #838383",
"4	c #7D7D7D",
"5	c #808080",
"6	c #B6A200",
"7	c #848484",
"8	c #979797",
"9	c #8E8E8E",
"0	c #878787",
"a	c #B7AE5F",
"b	c #FFE400",
"c	c #FEFFA8",
"d	c #B8AF61",
"e	c #B7AE60",
"f	c #FEF466",
"   ....   ....  ",
"  .+@+.....#$.. ",
"  .%&*=.$-*;;$. ",
"..+>,')!&#;~{@..",
".-&]^/(_,:)<[}|.",
".-)1^2345;)6>@..",
".$)7,890.aab%%. ",
"..@8....abbca.  ",
"  ...   bcaa    ",
"       abca     ",
"       abca     ",
"     aaabcd     ",
"    abbcce      ",
"    abfaa       ",
"    aba         ",
"     a          "};
