<?xml version="1.0" encoding="UTF-8" standalone="no"?>
<svg
   xmlns:dc="http://purl.org/dc/elements/1.1/"
   xmlns:cc="http://creativecommons.org/ns#"
   xmlns:rdf="http://www.w3.org/1999/02/22-rdf-syntax-ns#"
   xmlns:svg="http://www.w3.org/2000/svg"
   xmlns="http://www.w3.org/2000/svg"
   xmlns:sodipodi="http://sodipodi.sourceforge.net/DTD/sodipodi-0.dtd"
   xmlns:inkscape="http://www.inkscape.org/namespaces/inkscape"
   version="1.1"
   id="svg2"
   xml:space="preserve"
   width="15.999983"
   height="11.000008"
   viewBox="0 0 15.999983 11.000008"
   sodipodi:docname="bruno-event.svg"
   inkscape:version="1.0.1 (3bc2e813f5, 2020-09-07)"><metadata
     id="metadata8"><rdf:RDF><cc:Work
         rdf:about=""><dc:format>image/svg+xml</dc:format><dc:type
           rdf:resource="http://purl.org/dc/dcmitype/StillImage" /><dc:title></dc:title></cc:Work></rdf:RDF></metadata><defs
     id="defs6" /><sodipodi:namedview
     pagecolor="#ffffff"
     bordercolor="#666666"
     borderopacity="1"
     objecttolerance="10"
     gridtolerance="10"
     guidetolerance="10"
     inkscape:pageopacity="0"
     inkscape:pageshadow="2"
     inkscape:window-width="1920"
     inkscape:window-height="1027"
     id="namedview4"
     showgrid="false"
     inkscape:zoom="24.724441"
     inkscape:cx="22.79567"
     inkscape:cy="9.5345939"
     inkscape:window-x="0"
     inkscape:window-y="0"
     inkscape:window-maximized="1"
     inkscape:current-layer="g10" /><g
     id="g10"
     inkscape:groupmode="layer"
     inkscape:label="bruno-event"
     transform="scale(1.3333333)"><g
       id="g12"><g
         id="g14"><path
           d="M 0.113,0.113 H 11.886 V 8.136 H 0.113 Z"
           style="fill:#f8fda8;fill-opacity:1;fill-rule:nonzero;stroke:#000000;stroke-width:0.223182;stroke-linecap:butt;stroke-linejoin:miter;stroke-miterlimit:4;stroke-dasharray:none;stroke-opacity:1"
           id="path16" /></g><path
         d="M 4.043,3.734 C 4.207,4.125 4.121,4.52 3.852,4.621 3.582,4.723 3.23,4.488 3.066,4.102 2.906,3.711 2.992,3.316 3.262,3.215 3.531,3.113 3.883,3.348 4.043,3.734 Z"
         style="fill:#6d0a00;fill-opacity:1;fill-rule:nonzero;stroke:none"
         id="path18" /><path
         d="M 8.766,4.082 C 8.512,4.426 8.113,4.578 7.875,4.422 7.637,4.266 7.648,3.863 7.902,3.52 8.152,3.176 8.551,3.023 8.789,3.18 9.027,3.336 9.016,3.738 8.766,4.082 Z"
         style="fill:#6d0a00;fill-opacity:1;fill-rule:nonzero;stroke:none"
         id="path20" /><path
         d="M 5.344,2.898 C 5.484,3.293 5.375,3.688 5.102,3.773 4.828,3.863 4.488,3.613 4.348,3.219 4.203,2.82 4.312,2.43 4.586,2.344 4.863,2.254 5.199,2.504 5.344,2.898 Z"
         style="fill:#6d0a00;fill-opacity:1;fill-rule:nonzero;stroke:none"
         id="path22" /><path
         d="M 7.332,2.988 C 7.207,3.387 6.883,3.652 6.602,3.574 6.324,3.496 6.199,3.109 6.324,2.707 6.449,2.309 6.777,2.047 7.055,2.125 7.332,2.199 7.457,2.586 7.332,2.988 Z"
         style="fill:#6d0a00;fill-opacity:1;fill-rule:nonzero;stroke:none"
         id="path24" /><path
         d="M 5.969,4.074 C 4.504,4.52 3.113,7.18 5.305,7.543 7.805,7.953 7.891,7.059 7.891,7.059 8.145,6.164 7.125,4.258 5.969,4.074 Z"
         style="fill:#6d0a00;fill-opacity:1;fill-rule:nonzero;stroke:none"
         id="path26" /><g
         id="g28"
         transform="scale(1,0.927031)"><path
           d="M 0.246,0.282 3.809,2.747"
           style="fill:none;stroke:#000000;stroke-width:0.149409;stroke-linecap:round;stroke-linejoin:miter;stroke-miterlimit:4;stroke-dasharray:none;stroke-opacity:1"
           id="path30" /></g><g
         id="g32"
         transform="scale(1,0.927031)"><path
           d="M 11.699,0.282 8.465,2.95"
           style="fill:none;stroke:#000000;stroke-width:0.149409;stroke-linecap:round;stroke-linejoin:miter;stroke-miterlimit:4;stroke-dasharray:none;stroke-opacity:1"
           id="path34" /></g></g></g></svg>
