<?xml version="1.0" encoding="UTF-8" standalone="no"?>
<!-- Created with Inkscape (http://www.inkscape.org/) -->

<svg
   width="512"
   height="512"
   viewBox="0 0 135.46666 135.46667"
   version="1.1"
   id="svg5"
   xml:space="preserve"
   inkscape:version="1.2.1 (9c6d41e410, 2022-07-14, custom)"
   sodipodi:docname="gajim-send-message-symbolic.svg"
   xmlns:inkscape="http://www.inkscape.org/namespaces/inkscape"
   xmlns:sodipodi="http://sodipodi.sourceforge.net/DTD/sodipodi-0.dtd"
   xmlns="http://www.w3.org/2000/svg"
   xmlns:svg="http://www.w3.org/2000/svg"><sodipodi:namedview
     id="namedview7"
     pagecolor="#ffffff"
     bordercolor="#666666"
     borderopacity="1.0"
     inkscape:showpageshadow="2"
     inkscape:pageopacity="0.0"
     inkscape:pagecheckerboard="0"
     inkscape:deskcolor="#d1d1d1"
     inkscape:document-units="mm"
     showgrid="false"
     inkscape:zoom="1.2364896"
     inkscape:cx="186.8192"
     inkscape:cy="266.07583"
     inkscape:window-width="1920"
     inkscape:window-height="998"
     inkscape:window-x="0"
     inkscape:window-y="0"
     inkscape:window-maximized="1"
     inkscape:current-layer="layer1" /><defs
     id="defs2" /><g
     inkscape:label="Ebene 1"
     inkscape:groupmode="layer"
     id="layer1"><g
       id="path365"><path
         style="color:#000000;fill:#000000;stroke-width:3;stroke-linejoin:round;-inkscape-stroke:none"
         d="M 10.978516,6.1308594 A 3.0003,3.0003 0 0 0 6.9707031,10.132813 C 22.13163,41.613336 29.387024,55.04646 29.15625,67.615234 28.925476,80.184008 21.161708,93.695581 4.8886719,125.25977 A 3.0003,3.0003 0 0 0 8.90625,129.3125 L 129.26172,68.589844 a 3.0003,3.0003 0 0 0 -0.0469,-5.378907 z M 16.138672,15.285156 121.13281,65.970703 14.501953,119.76953 C 27.700719,94.428952 34.908786,81.095986 35.154297,67.724609 35.40135,54.269202 28.594203,40.881523 16.138672,15.285156 Z"
         id="path1680" /><path
         style="color:#000000;fill:#000000;stroke-linejoin:round;-inkscape-stroke:none"
         d="M 8.8339844,4.4179687 C 7.9355245,4.5920314 7.1127376,5.0307449 6.4941406,5.6484375 5.2569467,6.8838227 4.7315224,8.936341 5.6191406,10.783203 20.788847,42.281955 27.87607,55.615706 27.65625,67.587891 27.43645,79.55899 19.836858,92.990359 3.5546875,124.57227 c -0.9579122,1.86064 -0.4462299,3.96665 0.8046875,5.22851 1.2509174,1.26186 3.3537411,1.79323 5.2226563,0.85156 L 129.9375,69.929687 a 1.50015,1.50015 0 0 0 0,-0.002 c 3.24062,-1.637453 3.19837,-6.485709 -0.0703,-8.066406 a 1.50015,1.50015 0 0 0 0,-0.002 L 11.630859,4.7792969 C 10.708079,4.3341372 9.7324443,4.2439061 8.8339844,4.4179687 Z M 9.3671875,7.3359375 C 9.6519559,7.2749613 9.9707728,7.3109735 10.326172,7.4824219 L 128.5625,64.5625 v -0.002 c 1.20529,0.582865 1.21838,2.087613 0.0234,2.691406 V 67.25 L 8.2304688,127.97266 C 7.5042075,128.33859 6.9318492,128.13493 6.4902344,127.68945 6.0486196,127.24397 5.8504112,126.67031 6.2226562,125.94727 22.486526,94.400857 30.414503,80.809001 30.65625,67.642578 30.897977,54.47724 23.474383,40.944653 8.3222656,9.4824219 7.9804091,8.7711229 8.1802451,8.2058377 8.6152344,7.7714844 8.832729,7.5543077 9.0824191,7.3969137 9.3671875,7.3359375 Z m 7.4238285,6.5976565 a 1.50015,1.50015 0 0 0 -2.001953,2.007812 c 12.459561,25.60465 19.102667,38.824373 18.865234,51.75586 -0.235954,12.850868 -7.27989,26.031098 -20.482422,51.378904 a 1.50015,1.50015 0 0 0 2.005859,2.03321 L 121.80859,67.310547 a 1.50015,1.50015 0 0 0 -0.0234,-2.691406 z M 19.365234,18.509766 117.74219,66 17.964844,116.3418 C 29.690235,93.855136 36.414713,80.800497 36.654297,67.751953 36.89643,54.564487 30.520508,41.400238 19.365234,18.509766 Z"
         id="path1682" /></g></g></svg>
