<?xml version="1.0" encoding="UTF-8"?>
<svg width="800px" height="800px" preserveAspectRatio="xMidYMid" version="1.1" viewBox="0 0 256 256" xmlns="http://www.w3.org/2000/svg">
<rect width="100%" height="100%" fill="#0058CC"/>
<path d="m6.7912 86.965c18.444-54.483 69.992-88.397 124.63-86.918l-17.512 20.693c-32.414 5.8607-60.403 27.995-71.402 60.49-16.367 48.348 11.065 101.32 61.272 118.31 50.207 16.995 104.17-8.421 120.54-56.765 10.964-32.388 2.2704-66.848-19.756-91.18l-1.3464-27.169c44.154 32.048 64.406 90.205 45.991 144.6-22.662 66.941-95.299 102.84-162.24 80.176-66.941-22.662-102.84-95.299-80.177-162.24zm158.39-75.041c0.65448-0.28361 1.4087-0.34438 2.1364-0.098172 0.7137 0.24154 1.2638 0.7324 1.6144 1.3339l0.071681 0.11687 0.06389 0.13401c0.1683 0.32101 0.31166 0.68876 0.37866 1.1407 0.13196 0.8907 0.19115 2.9848 0.21525 5.1298l0.005731 0.58539c0.005737 0.68241 0.008268 1.3594 0.008806 1.9937l2e-6 0.53245c-0.001432 1.7343-0.016299 3.0344-0.016299 3.0344l0.50333 18.933 0.7433 21.855 0.92718 37.98s1.59e-4 0.006987 3.73e-4 0.020776l7.08e-4 0.061589c1.11e-4 0.013604 2.11e-4 0.028863 2.86e-4 0.045753l4.7e-5 0.12073c-0.007082 2.1691-0.45193 18.049-11.717 29.084-12.113 11.866-26.991 10.78-36.671 7.5047-9.6801-3.2786-22.157-11.453-24.571-28.238-2.0517-14.265 5.5328-26.257 7.8544-29.533l0.15494-0.21671c0.31592-0.43782 0.50053-0.66826 0.50053-0.66826l23.808-29.606 13.867-16.909 11.901-14.735s1.75-2.3441 3.5511-4.6527l0.36041-0.46055c0.60014-0.76444 1.1934-1.5073 1.7168-2.1405l0.30518-0.36604c0.4437-0.52719 0.82066-0.95125 1.085-1.2079 0.30854-0.29919 0.62488-0.49398 0.93498-0.64513l0.22751-0.11531z" fill="#fff"></path>
</svg>