<?xml version="1.0" encoding="UTF-8"?>
<svg width="800px" height="800px" fill="none" viewBox="0 0 32 32" xmlns="http://www.w3.org/2000/svg">
<path d="m2.5697 20.027c1.7307 5.7695 7.0846 9.9731 13.421 9.9731 7.7368 0 14.009-6.2682 14.009-14 0-7.732-6.2721-14-14.009-14-7.4243 0-13.499 5.7717-13.979 13.07 0 2.0968 0 2.9718 0.55795 4.957z" fill="url(#a)"/>
<path d="m15.271 12.563-3.428 4.9766c-0.8081-0.0367-1.6216 0.1919-2.2969 0.6357l-7.5274-3.0968s-0.17418 2.8637 0.5517 4.9979l5.3215 2.1944c0.26719 1.1933 1.0863 2.24 2.2948 2.7435 1.9772 0.8256 4.257-0.1154 5.0795-2.0922 0.2141-0.5168 0.3139-1.0587 0.2994-1.5995l5.0252-3.5006c2.9353 0 5.321-2.3914 5.321-5.3282 0-2.937-2.3857-5.3262-5.321-5.3262-2.8351 0-5.4787 2.4738-5.3198 5.3954zm-0.8237 10.015c-0.6366 1.5274-2.3929 2.252-3.9196 1.6163-0.70428-0.2932-1.236-0.8304-1.5428-1.4709l1.7322 0.7174c1.1259 0.4687 2.4176-0.0649 2.8856-1.1897 0.4695-1.126-0.0631-2.419-1.1884-2.8877l-1.7906-0.7415c0.6909-0.2619 1.4764-0.2715 2.2103 0.0337 0.7398 0.3076 1.3139 0.8869 1.6181 1.6271 0.3043 0.7403 0.3031 1.5574-0.0048 2.2953zm6.1435-6.5349c-1.954 0-3.5449-1.5923-3.5449-3.5497 0-1.9558 1.5909-3.5485 3.5449-3.5485 1.9553 0 3.5461 1.5927 3.5461 3.5485 0 1.9574-1.5908 3.5497-3.5461 3.5497zm-2.6563-3.5551c0-1.4724 1.1929-2.6667 2.6623-2.6667 1.4707 0 2.6635 1.1943 2.6635 2.6667 0 1.4726-1.1928 2.6658-2.6635 2.6658-1.4694 0-2.6623-1.1932-2.6623-2.6658z" fill="#fff"/>
<defs>
<linearGradient id="a" x1="16.006" x2="16.006" y1="2" y2="30" gradientUnits="userSpaceOnUse">
<stop stop-color="#111D2E" offset="0"/>
<stop stop-color="#051839" offset=".21248"/>
<stop stop-color="#0A1B48" offset=".40695"/>
<stop stop-color="#132E62" offset=".5811"/>
<stop stop-color="#144B7E" offset=".7376"/>
<stop stop-color="#136497" offset=".87279"/>
<stop stop-color="#1387B8" offset="1"/>
</linearGradient>
</defs>
</svg>