<?xml version="1.0" encoding="UTF-8"?>
<svg width="800px" height="800px" version="1.1" viewBox="-10 -10 68 68" xmlns="http://www.w3.org/2000/svg">
<rect x="-10" y="-10" width="100%" height="100%" fill="#fff"/>
<g fill="none" fill-rule="evenodd">
<g transform="translate(-400 -660)" fill="#00AEF3">
<path d="m446.62 689.1c0.34713-1.5636 0.52775-3.1828 0.52775-4.8465 0-12.464-10.247-22.571-22.894-22.571-1.3321 0-2.6388 0.11407-3.9144 0.33107-2.0461-1.2714-4.4675-2.0087-7.0611-2.0087-7.3349 0-13.278 5.8592-13.278 13.093 0 2.4149 0.66604 4.674 1.8231 6.6215-0.30198 1.4634-0.46284 2.9824-0.46284 4.5349 0 12.469 10.25 22.574 22.894 22.574 1.4337 0 2.8335-0.13076 4.1938-0.37837 1.8711 0.99044 4.0047 1.5552 6.2766 1.5552 7.3321 0 13.276-5.8619 13.276-13.09 0-2.0894-0.49671-4.0619-1.3801-5.8146zm-10.623 5.9426c-1.0583 1.4801-2.6218 2.6486-4.6538 3.4777-2.0066 0.82351-4.4111 1.2436-7.1515 1.2436-3.2879 0-6.0452-0.57034-8.1985-1.6971-1.5381-0.81794-2.8053-1.9252-3.7676-3.2996-0.97366-1.3799-1.4647-2.7515-1.4647-4.0786 0-0.82351 0.32173-1.5413 0.9539-2.1283 0.62653-0.58425 1.4309-0.87637 2.3904-0.87637 0.78457 0 1.4647 0.23092 2.0151 0.68997 0.52775 0.44236 0.9793 1.0962 1.3434 1.9336 0.4064 0.9181 0.84666 1.6915 1.3123 2.2953 0.45155 0.58981 1.0978 1.0822 1.9219 1.469 0.82973 0.38393 1.9501 0.58425 3.3246 0.58425 1.8937 0 3.4459-0.40063 4.6115-1.1852 1.143-0.76508 1.6961-1.6888 1.6961-2.8183 0-0.8875-0.29069-1.5886-0.88335-2.1395-0.62653-0.57312-1.4478-1.0183-2.444-1.3299-1.0414-0.31716-2.4525-0.66493-4.1994-1.0266-2.3791-0.50078-4.397-1.0934-6-1.7694-1.6425-0.68718-2.9661-1.6415-3.9341-2.835-0.98213-1.2158-1.4817-2.7376-1.4817-4.5265 0-1.7027 0.52211-3.2412 1.555-4.5655 1.0216-1.3159 2.5174-2.3453 4.445-3.0436 1.8993-0.69275 4.1571-1.0433 6.7168-1.0433 2.0433 0 3.841 0.2337 5.3424 0.69553 1.5099 0.46183 2.7799 1.085 3.7789 1.8557 1.0075 0.779 1.7582 1.6053 2.2267 2.4677 0.47413 0.8708 0.71684 1.736 0.71684 2.5735 0 0.80682-0.31609 1.5413-0.93979 2.1784-0.62653 0.64545-1.4196 0.97096-2.3509 0.97096-0.84666 0-1.5127-0.20588-1.9699-0.6065-0.42898-0.37559-0.87488-0.95983-1.3688-1.7945-0.57008-1.0683-1.2615-1.9113-2.0546-2.5067-0.77046-0.57868-2.0546-0.86802-3.8241-0.86802-1.6369 0-2.9746 0.32273-3.9652 0.9654-0.9539 0.61485-1.4196 1.3243-1.4196 2.1645 0 0.51191 0.14958 0.94314 0.46002 1.3104 0.32173 0.39506 0.78175 0.73448 1.3631 1.0238 0.60113 0.29769 1.222 0.53695 1.8429 0.70388 0.635 0.17527 1.7018 0.43401 3.1665 0.76787 1.8542 0.3895 3.556 0.83186 5.0602 1.3076 1.5268 0.47853 2.842 1.0683 3.92 1.7611 1.095 0.70388 1.9614 1.6053 2.5795 2.6848 0.61806 1.0878 0.93133 2.4232 0.93133 3.9784 0 1.8585-0.54186 3.5528-1.603 5.0356z"></path>
</g>
</g>
</svg>