<?xml version="1.0" encoding="UTF-8"?>
<svg width="800px" height="800px" preserveAspectRatio="xMidYMid" version="1.1" viewBox="-70 -70 396 396" xmlns="http://www.w3.org/2000/svg">
<rect x="-70" y="-70" width="100%" height="100%" fill="#fff"/>
<path d="m97.28 3.7397 2.88 11.639c-11.329 2.786-22.172 7.2697-32.16 13.299l-6.16-10.279c11.007-6.6448 22.955-11.587 35.44-14.659zm61.44 0-2.88 11.639c11.329 2.786 22.172 7.2697 32.16 13.299l6.2-10.279c-11.019-6.6485-22.981-11.591-35.48-14.659zm-140.32 58.095c-6.6454 11.006-11.588 22.953-14.66 35.437l11.64 2.8798c2.7862-11.328 7.2703-22.17 13.3-32.158l-10.28-6.1595zm-6.4 66.155c-0.0038655-5.8173 0.4307-11.627 1.3-17.379l-11.86-1.7999c-1.9199 12.714-1.9199 25.643 0 38.357l11.86-1.7999c-0.8693-5.752-1.3039-11.561-1.3-17.379zm182.16 109.59-6.16-10.279c-9.9756 6.0255-20.805 10.509-32.12 13.299l2.88 11.639c12.471-3.0757 24.406-8.0177 35.4-14.659zm49.84-109.59c0.003866 5.8173-0.4307 11.627-1.3 17.379l11.86 1.7999c1.9199-12.714 1.9199-25.643 0-38.357l-11.86 1.7999c0.8693 5.752 1.3039 11.561 1.3 17.379zm8.26 30.718-11.64-2.8798c-2.7862 11.328-7.2703 22.17-13.3 32.158l10.28 6.1995c6.6491-11.018 11.592-22.98 14.66-35.477zm-106.88 83.993c-11.522 1.7333-23.238 1.7333-34.76 0l-1.8 11.859c12.715 1.9198 25.645 1.9198 38.36 0l-1.8-11.859zm76-45.896c-6.9186 9.3694-15.204 17.648-24.58 24.558l7.12 9.6593c10.343-7.604 19.485-16.718 27.12-27.038l-9.66-7.1794zm-24.58-162.19c9.3773 6.9165 17.663 15.202 24.58 24.578l9.66-7.1994c-7.6108-10.314-16.726-19.428-27.04-27.038l-7.2 9.6593zm-162.18 24.578c6.9171-9.3765 15.203-17.662 24.58-24.578l-7.2-9.6593c-10.314 7.6102-19.429 16.724-27.04 27.038l9.66 7.1994zm202.98 2.6398-10.28 6.1595c6.026 9.9748 10.51 20.803 13.3 32.118l11.64-2.8798c-3.0759-12.47-8.0184-24.404-14.66-35.397zm-126.98-48.536c11.522-1.7333 23.238-1.7333 34.76 0l1.8-11.859c-12.715-1.9198-25.645-1.9198-38.36 0l1.8 11.859zm-69.84 220.9-24.78 5.7796 5.78-24.778-11.68-2.7398-5.78 24.778c-0.94652 4.0416 0.26324 8.2853 3.1986 11.22 2.9354 2.9352 7.1794 4.1448 11.221 3.1984l24.76-5.6796-2.72-11.779zm-28.18-32.437 11.68 2.7198 4-17.179c-5.8303-9.7983-10.177-20.406-12.9-31.478l-11.64 2.8798c2.6094 10.604 6.5754 20.828 11.8 30.418l-2.94 12.639zm56 25.998-17.18 3.9997 2.72 11.679 12.64-2.9398c9.5906 5.2241 19.815 9.1899 30.42 11.799l2.88-11.639c-11.049-2.7549-21.63-7.1285-31.4-12.979l-0.08 0.079994zm59.4-203.76c-37.844 0.019634-72.69 20.593-90.985 53.717s-17.152 73.572 2.9849 105.61l-10 42.657 42.66-9.9992c37.418 23.565 85.647 20.894 120.23-6.6606 34.586-27.554 47.963-73.964 33.35-115.7-14.613-41.734-54.022-69.663-98.243-69.627z" fill="#3A76F0"></path>
</svg>