<?xml version="1.0" encoding="UTF-8" standalone="no"?>
<!-- Created with Inkscape (http://www.inkscape.org/) -->
<svg
   xmlns:dc="http://purl.org/dc/elements/1.1/"
   xmlns:cc="http://web.resource.org/cc/"
   xmlns:rdf="http://www.w3.org/1999/02/22-rdf-syntax-ns#"
   xmlns:svg="http://www.w3.org/2000/svg"
   xmlns="http://www.w3.org/2000/svg"
   xmlns:xlink="http://www.w3.org/1999/xlink"
   xmlns:sodipodi="http://sodipodi.sourceforge.net/DTD/sodipodi-0.dtd"
   xmlns:inkscape="http://www.inkscape.org/namespaces/inkscape"
   width="210mm"
   height="297mm"
   id="svg2"
   sodipodi:version="0.32"
   inkscape:version="0.44.1"
   sodipodi:docbase="/home/guigui/icones gajim"
   sodipodi:docname="extended away.svg"
   inkscape:export-filename="/home/guigui/nuage600x600-png"
   inkscape:export-xdpi="227.92807"
   inkscape:export-ydpi="227.92807">
  <defs
     id="defs4">
    <linearGradient
       id="linearGradient16676">
      <stop
         id="stop16678"
         offset="0"
         style="stop-color:white;stop-opacity:0.60000002;" />
      <stop
         id="stop16680"
         offset="1"
         style="stop-color:#cef0ff;stop-opacity:1;" />
    </linearGradient>
    <linearGradient
       id="linearGradient15778">
      <stop
         style="stop-color:#00afff;stop-opacity:1;"
         offset="0"
         id="stop15780" />
      <stop
         style="stop-color:#cef0ff;stop-opacity:1;"
         offset="1"
         id="stop15782" />
    </linearGradient>
    <linearGradient
       id="linearGradient5442">
      <stop
         style="stop-color:white;stop-opacity:0.62962961;"
         offset="0"
         id="stop5444" />
      <stop
         style="stop-color:white;stop-opacity:0;"
         offset="1"
         id="stop5446" />
    </linearGradient>
    <linearGradient
       id="linearGradient8297">
      <stop
         style="stop-color:#ddd;stop-opacity:1;"
         offset="0"
         id="stop8299" />
      <stop
         style="stop-color:#f3f3f3;stop-opacity:1"
         offset="1"
         id="stop8301" />
    </linearGradient>
    <linearGradient
       id="linearGradient2930">
      <stop
         style="stop-color:#909090;stop-opacity:1;"
         offset="0"
         id="stop2932" />
      <stop
         style="stop-color:white;stop-opacity:0;"
         offset="1"
         id="stop2934" />
    </linearGradient>
    <linearGradient
       inkscape:collect="always"
       xlink:href="#linearGradient2930"
       id="linearGradient2936"
       x1="239.49927"
       y1="406.38104"
       x2="278.05521"
       y2="379.44513"
       gradientUnits="userSpaceOnUse"
       gradientTransform="matrix(0.94477,0,0,0.94477,20.49594,19.82026)" />
    <linearGradient
       inkscape:collect="always"
       xlink:href="#linearGradient2930"
       id="linearGradient2940"
       gradientUnits="userSpaceOnUse"
       gradientTransform="matrix(0.865853,0,0,0.865853,9.435128,34.45034)"
       x1="297.25735"
       y1="443.89926"
       x2="307.83929"
       y2="393.39438" />
    <linearGradient
       inkscape:collect="always"
       xlink:href="#linearGradient2930"
       id="linearGradient2944"
       gradientUnits="userSpaceOnUse"
       gradientTransform="matrix(0.865853,0,0,0.865853,1.313796,68.8094)"
       x1="282.82755"
       y1="390.50861"
       x2="326.11749"
       y2="359.24365" />
    <linearGradient
       inkscape:collect="always"
       xlink:href="#linearGradient2930"
       id="linearGradient2948"
       gradientUnits="userSpaceOnUse"
       gradientTransform="matrix(0.900724,0,0,0.941155,36.09377,64.49198)"
       x1="222.29803"
       y1="326.48843"
       x2="280.88812"
       y2="317.65988" />
    <linearGradient
       inkscape:collect="always"
       xlink:href="#linearGradient2930"
       id="linearGradient2952"
       gradientUnits="userSpaceOnUse"
       gradientTransform="matrix(0.865853,0,0,0.865853,-41.77766,88.31805)"
       x1="335.63995"
       y1="301.66843"
       x2="369.38831"
       y2="334.02026" />
    <linearGradient
       inkscape:collect="always"
       xlink:href="#linearGradient2930"
       id="linearGradient2956"
       gradientUnits="userSpaceOnUse"
       gradientTransform="matrix(0.865853,0,0,0.940339,-89.62713,42.80629)"
       x1="464.81787"
       y1="347.8894"
       x2="397.87698"
       y2="362.2778" />
    <linearGradient
       inkscape:collect="always"
       xlink:href="#linearGradient2930"
       id="linearGradient2960"
       gradientUnits="userSpaceOnUse"
       gradientTransform="matrix(0.880196,0,0,0.940339,-87.76338,10.66164)"
       x1="440.21796"
       y1="431.86606"
       x2="382.00403"
       y2="367.56879" />
    <linearGradient
       inkscape:collect="always"
       xlink:href="#linearGradient2930"
       id="linearGradient13075"
       gradientUnits="userSpaceOnUse"
       gradientTransform="matrix(0.865853,0,0,0.865853,-46.34545,51.28109)"
       x1="325.63651"
       y1="400.60959"
       x2="374.69843"
       y2="373.67361" />
    <linearGradient
       inkscape:collect="always"
       xlink:href="#linearGradient15778"
       id="linearGradient15784"
       x1="314.67154"
       y1="462.25531"
       x2="326.47864"
       y2="455.54013"
       gradientUnits="userSpaceOnUse" />
    <linearGradient
       inkscape:collect="always"
       xlink:href="#linearGradient16676"
       id="linearGradient15789"
       gradientUnits="userSpaceOnUse"
       x1="314.67154"
       y1="462.25531"
       x2="326.47864"
       y2="455.54013"
       gradientTransform="translate(-1.143853e-5,-9.051127e-6)" />
    <linearGradient
       inkscape:collect="always"
       xlink:href="#linearGradient5442"
       id="linearGradient16684"
       gradientUnits="userSpaceOnUse"
       gradientTransform="translate(-8.212559e-6,3.360034e-5)"
       x1="219.78333"
       y1="294.88315"
       x2="514.38788"
       y2="292.95914" />
    <linearGradient
       inkscape:collect="always"
       xlink:href="#linearGradient5442"
       id="linearGradient16689"
       gradientUnits="userSpaceOnUse"
       gradientTransform="translate(-5.202376e-6,3.160034e-5)"
       x1="219.78333"
       y1="294.88315"
       x2="514.38788"
       y2="292.95914" />
    <linearGradient
       inkscape:collect="always"
       xlink:href="#linearGradient5442"
       id="linearGradient16693"
       gradientUnits="userSpaceOnUse"
       gradientTransform="translate(-7.605431e-6,3.760034e-5)"
       x1="219.78333"
       y1="294.88315"
       x2="514.38788"
       y2="292.95914" />
    <linearGradient
       inkscape:collect="always"
       xlink:href="#linearGradient5442"
       id="linearGradient16697"
       gradientUnits="userSpaceOnUse"
       gradientTransform="translate(-1.01188e-6,2.460034e-5)"
       x1="219.78333"
       y1="294.88315"
       x2="514.38788"
       y2="292.95914" />
    <linearGradient
       inkscape:collect="always"
       xlink:href="#linearGradient5442"
       id="linearGradient16701"
       gradientUnits="userSpaceOnUse"
       gradientTransform="translate(-5.801018e-6,2.260034e-5)"
       x1="222.18832"
       y1="513.73751"
       x2="435.50409"
       y2="513.73751" />
    <linearGradient
       inkscape:collect="always"
       xlink:href="#linearGradient5442"
       id="linearGradient16708"
       gradientUnits="userSpaceOnUse"
       gradientTransform="translate(-9.799321e-6,2.260034e-5)"
       x1="222.18832"
       y1="513.73751"
       x2="435.50409"
       y2="513.73751" />
    <linearGradient
       inkscape:collect="always"
       xlink:href="#linearGradient5442"
       id="linearGradient16712"
       gradientUnits="userSpaceOnUse"
       gradientTransform="translate(-1.460543e-5,2.160034e-5)"
       x1="222.18832"
       y1="513.73751"
       x2="435.50409"
       y2="513.73751" />
    <linearGradient
       inkscape:collect="always"
       xlink:href="#linearGradient5442"
       id="linearGradient16716"
       gradientUnits="userSpaceOnUse"
       gradientTransform="translate(-9.375901e-6,2.460034e-5)"
       x1="222.18832"
       y1="513.73751"
       x2="435.50409"
       y2="513.73751" />
    <linearGradient
       inkscape:collect="always"
       xlink:href="#linearGradient8297"
       id="linearGradient16723"
       gradientUnits="userSpaceOnUse"
       x1="400.98935"
       y1="423.94089"
       x2="233.75099"
       y2="292.62827" />
    <linearGradient
       inkscape:collect="always"
       xlink:href="#linearGradient15778"
       id="linearGradient16762"
       gradientUnits="userSpaceOnUse"
       x1="314.67154"
       y1="462.25531"
       x2="326.47864"
       y2="455.54013"
       gradientTransform="translate(-208.3458,6.097487)" />
    <linearGradient
       inkscape:collect="always"
       xlink:href="#linearGradient16676"
       id="linearGradient16764"
       gradientUnits="userSpaceOnUse"
       gradientTransform="translate(-208.3458,6.097478)"
       x1="314.67154"
       y1="462.25531"
       x2="326.47864"
       y2="455.54013" />
    <linearGradient
       inkscape:collect="always"
       xlink:href="#linearGradient15778"
       id="linearGradient16794"
       gradientUnits="userSpaceOnUse"
       x1="314.67154"
       y1="462.25531"
       x2="326.47864"
       y2="455.54013"
       gradientTransform="translate(-211.3958,5)" />
    <linearGradient
       inkscape:collect="always"
       xlink:href="#linearGradient16676"
       id="linearGradient16796"
       gradientUnits="userSpaceOnUse"
       gradientTransform="translate(-211.3958,4.999991)"
       x1="314.67154"
       y1="462.25531"
       x2="326.47864"
       y2="455.54013" />
    <linearGradient
       inkscape:collect="always"
       xlink:href="#linearGradient15778"
       id="linearGradient16806"
       gradientUnits="userSpaceOnUse"
       x1="314.67154"
       y1="462.25531"
       x2="326.47864"
       y2="455.54013" />
    <linearGradient
       inkscape:collect="always"
       xlink:href="#linearGradient16676"
       id="linearGradient16808"
       gradientUnits="userSpaceOnUse"
       gradientTransform="translate(-1.143853e-5,-9.051127e-6)"
       x1="314.67154"
       y1="462.25531"
       x2="326.47864"
       y2="455.54013" />
    <linearGradient
       inkscape:collect="always"
       xlink:href="#linearGradient15778"
       id="linearGradient16818"
       gradientUnits="userSpaceOnUse"
       x1="314.67154"
       y1="462.25531"
       x2="326.47864"
       y2="455.54013" />
    <linearGradient
       inkscape:collect="always"
       xlink:href="#linearGradient16676"
       id="linearGradient16820"
       gradientUnits="userSpaceOnUse"
       gradientTransform="translate(-1.143853e-5,-9.051127e-6)"
       x1="314.67154"
       y1="462.25531"
       x2="326.47864"
       y2="455.54013" />
    <linearGradient
       inkscape:collect="always"
       xlink:href="#linearGradient15778"
       id="linearGradient17926"
       gradientUnits="userSpaceOnUse"
       x1="314.67154"
       y1="462.25531"
       x2="326.47864"
       y2="455.54013" />
    <linearGradient
       inkscape:collect="always"
       xlink:href="#linearGradient16676"
       id="linearGradient17928"
       gradientUnits="userSpaceOnUse"
       gradientTransform="translate(-1.143853e-5,-9.051127e-6)"
       x1="314.67154"
       y1="462.25531"
       x2="326.47864"
       y2="455.54013" />
    <linearGradient
       inkscape:collect="always"
       xlink:href="#linearGradient15778"
       id="linearGradient17938"
       gradientUnits="userSpaceOnUse"
       x1="314.67154"
       y1="462.25531"
       x2="326.47864"
       y2="455.54013" />
    <linearGradient
       inkscape:collect="always"
       xlink:href="#linearGradient16676"
       id="linearGradient17940"
       gradientUnits="userSpaceOnUse"
       gradientTransform="translate(-1.143853e-5,-9.051127e-6)"
       x1="314.67154"
       y1="462.25531"
       x2="326.47864"
       y2="455.54013" />
  </defs>
  <sodipodi:namedview
     id="base"
     pagecolor="#ffffff"
     bordercolor="#666666"
     borderopacity="1.0"
     inkscape:pageopacity="0.0"
     inkscape:pageshadow="2"
     inkscape:zoom="2.152236"
     inkscape:cx="332.28112"
     inkscape:cy="650.28713"
     inkscape:document-units="px"
     inkscape:current-layer="layer1"
     inkscape:window-width="1012"
     inkscape:window-height="718"
     inkscape:window-x="0"
     inkscape:window-y="0"
     showguides="true"
     inkscape:guide-bbox="true"
     showgrid="false"
     inkscape:grid-points="true"
     gridtolerance="10000" />
  <metadata
     id="metadata7">
    <rdf:RDF>
      <cc:Work
         rdf:about="">
        <dc:format>image/svg+xml</dc:format>
        <dc:type
           rdf:resource="http://purl.org/dc/dcmitype/StillImage" />
      </cc:Work>
    </rdf:RDF>
  </metadata>
  <g
     inkscape:label="Calque 1"
     inkscape:groupmode="layer"
     id="layer1">
    <path
       style="color:black;fill:url(#linearGradient16723);fill-opacity:1;fill-rule:evenodd;stroke:#979797;stroke-width:2.10714245;stroke-linecap:butt;stroke-linejoin:round;marker:none;marker-start:none;marker-mid:none;marker-end:none;stroke-miterlimit:4;stroke-dashoffset:0;stroke-opacity:1;visibility:visible;display:inline;overflow:visible"
       d="M 354.41256,283.48561 C 338.37912,283.48561 324.55102,292.48171 318.40208,305.3794 C 311.96354,301.08332 304.1129,298.52111 295.61419,298.52111 C 292.1127,298.52111 288.71875,298.97646 285.48624,299.78139 C 278.27694,291.06565 267.01772,285.44931 254.35218,285.44931 C 232.60368,285.44931 214.93445,301.9869 214.93445,322.3786 C 214.93445,332.81431 219.57142,342.24177 227.00046,348.96182 C 223.2986,354.5909 221.18627,361.21165 221.18627,368.30574 C 221.18627,388.42288 238.35306,404.79765 259.69748,405.23502 C 266.13164,417.43917 279.52647,425.86853 295.02027,425.86853 C 313.80522,425.86853 329.53142,413.50406 333.46897,396.99921 C 340.50793,403.15367 349.94407,406.93494 360.32053,406.93494 C 364.37444,406.93494 368.29879,406.36137 371.98018,405.29364 C 379.16902,412.47105 389.38535,416.95861 400.70729,416.95861 C 422.45581,416.95861 440.12502,400.39169 440.12502,380.00001 C 440.12502,376.82374 439.67994,373.73882 438.87466,370.797 C 445.51843,364.18316 449.62779,355.26965 449.62779,345.47406 C 449.62779,325.08237 431.95857,308.54478 410.21006,308.54477 C 403.97017,308.54477 398.07518,309.90108 392.83,312.32563 C 388.88139,295.83476 373.18694,283.48561 354.41256,283.48561 z "
       id="path1975" />
    <path
       sodipodi:type="arc"
       style="color:black;fill:url(#linearGradient2940);fill-opacity:1;fill-rule:evenodd;stroke:none;stroke-width:2;stroke-linecap:butt;stroke-linejoin:round;marker:none;marker-start:none;marker-mid:none;marker-end:none;stroke-miterlimit:4;stroke-dasharray:none;stroke-dashoffset:0;stroke-opacity:1;visibility:visible;display:inline;overflow:visible"
       id="path2938"
       sodipodi:cx="273.6882"
       sodipodi:cy="379.44513"
       sodipodi:rx="34.150902"
       sodipodi:ry="34.150902"
       d="M 307.8391 379.44513 A 34.150902 34.150902 0 1 1  239.5373,379.44513 A 34.150902 34.150902 0 1 1  307.8391 379.44513 z"
       transform="matrix(1.154929,0,0,1.154929,-20.99789,-52.29368)" />
    <path
       sodipodi:type="arc"
       style="color:black;fill:url(#linearGradient2936);fill-opacity:1;fill-rule:evenodd;stroke:none;stroke-width:2;stroke-linecap:butt;stroke-linejoin:round;marker:none;marker-start:none;marker-mid:none;marker-end:none;stroke-miterlimit:4;stroke-dasharray:none;stroke-dashoffset:0;stroke-opacity:1;visibility:visible;display:inline;overflow:visible"
       id="path2041"
       sodipodi:cx="273.6882"
       sodipodi:cy="379.44513"
       sodipodi:rx="34.150902"
       sodipodi:ry="34.150902"
       d="M 307.8391 379.44513 A 34.150902 34.150902 0 1 1  239.5373,379.44513 A 34.150902 34.150902 0 1 1  307.8391 379.44513 z"
       transform="matrix(1.058457,0,0,1.058457,-31.79502,-33.48492)" />
    <path
       sodipodi:type="arc"
       style="color:black;fill:url(#linearGradient2956);fill-opacity:1;fill-rule:evenodd;stroke:none;stroke-width:2;stroke-linecap:butt;stroke-linejoin:round;marker:none;marker-start:none;marker-mid:none;marker-end:none;stroke-miterlimit:4;stroke-dasharray:none;stroke-dashoffset:0;stroke-opacity:1;visibility:visible;display:inline;overflow:visible"
       id="path2954"
       sodipodi:cx="273.6882"
       sodipodi:cy="379.44513"
       sodipodi:rx="34.150902"
       sodipodi:ry="34.150902"
       d="M 307.8391 379.44513 A 34.150902 34.150902 0 1 1  239.5373,379.44513 A 34.150902 34.150902 0 1 1  307.8391 379.44513 z"
       transform="matrix(1.154929,0,0,1.063445,93.41203,-58.02783)" />
    <path
       sodipodi:type="arc"
       style="color:black;fill:url(#linearGradient2960);fill-opacity:1;fill-rule:evenodd;stroke:none;stroke-width:2;stroke-linecap:butt;stroke-linejoin:round;marker:none;marker-start:none;marker-mid:none;marker-end:none;stroke-miterlimit:4;stroke-dasharray:none;stroke-dashoffset:0;stroke-opacity:1;visibility:visible;display:inline;overflow:visible"
       id="path2958"
       sodipodi:cx="273.6882"
       sodipodi:cy="379.44513"
       sodipodi:rx="34.150902"
       sodipodi:ry="34.150902"
       d="M 307.8391 379.44513 A 34.150902 34.150902 0 1 1  239.5373,379.44513 A 34.150902 34.150902 0 1 1  307.8391 379.44513 z"
       transform="matrix(1.13611,0,0,1.063445,89.60789,-23.84377)" />
    <path
       style="color:black;fill:url(#linearGradient16716);fill-opacity:1;fill-rule:evenodd;stroke:none;stroke-width:0.37613201;stroke-linecap:butt;stroke-linejoin:round;marker:none;marker-start:none;marker-mid:none;marker-end:none;stroke-miterlimit:4;stroke-dashoffset:0;stroke-opacity:1;visibility:visible;display:inline;overflow:visible"
       d="M 319.93319,364.82692 C 333.91781,378.149 334.45552,400.31095 321.13344,414.29557 C 310.22334,391.92985 271.34744,387.52587 270.46455,366.02718 C 283.78663,352.04256 305.94858,351.50484 319.93319,364.82692 z "
       id="path13023"
       sodipodi:nodetypes="cccc" />
    <path
       style="color:black;fill:white;fill-opacity:0.65048547;fill-rule:evenodd;stroke:none;stroke-width:0.40000001;stroke-linecap:butt;stroke-linejoin:round;marker:none;marker-start:none;marker-mid:none;marker-end:none;stroke-miterlimit:4;stroke-dashoffset:0;stroke-opacity:1;visibility:visible;display:inline;overflow:visible"
       d="M 265.31634,405.99549 C 265.85018,404.99735 272.09441,411.61378 281.14902,416.45637 C 290.20364,421.29894 298.65676,422.54294 298.12292,423.54109 C 297.5891,424.53923 287.89101,424.38078 278.83639,419.53821 C 269.78178,414.69563 264.78252,406.99365 265.31634,405.99549 z "
       id="path13027"
       sodipodi:nodetypes="csssc" />
    <path
       style="color:black;fill:url(#linearGradient16712);fill-opacity:1;fill-rule:evenodd;stroke:none;stroke-width:0.37613201;stroke-linecap:butt;stroke-linejoin:round;marker:none;marker-start:none;marker-mid:none;marker-end:none;stroke-miterlimit:4;stroke-dashoffset:0;stroke-opacity:1;visibility:visible;display:inline;overflow:visible"
       d="M 277.60532,345.58698 C 291.58994,358.90906 292.12765,381.07101 278.80557,395.05563 C 267.89547,372.68991 229.01957,368.28593 228.13668,346.78724 C 241.45876,332.80262 263.62071,332.2649 277.60532,345.58698 z "
       id="path13029"
       sodipodi:nodetypes="cccc" />
    <path
       sodipodi:type="arc"
       style="color:black;fill:url(#linearGradient2948);fill-opacity:1;fill-rule:evenodd;stroke:none;stroke-width:2;stroke-linecap:butt;stroke-linejoin:round;marker:none;marker-start:none;marker-mid:none;marker-end:none;stroke-miterlimit:4;stroke-dasharray:none;stroke-dashoffset:0;stroke-opacity:1;visibility:visible;display:inline;overflow:visible"
       id="path2946"
       sodipodi:cx="273.6882"
       sodipodi:cy="379.44513"
       sodipodi:rx="34.150902"
       sodipodi:ry="34.150902"
       d="M 307.8391 379.44513 A 34.150902 34.150902 0 1 1  239.5373,379.44513 A 34.150902 34.150902 0 1 1  307.8391 379.44513 z"
       transform="matrix(1.110216,0,0,1.062522,-50.17289,-81.03016)" />
    <path
       style="color:black;fill:url(#linearGradient16708);fill-opacity:1;fill-rule:evenodd;stroke:none;stroke-width:0.37613201;stroke-linecap:butt;stroke-linejoin:round;marker:none;marker-start:none;marker-mid:none;marker-end:none;stroke-miterlimit:4;stroke-dashoffset:0;stroke-opacity:1;visibility:visible;display:inline;overflow:visible"
       d="M 277.10478,298.02779 C 291.0894,311.34987 291.62711,333.51182 278.30503,347.49644 C 267.39493,325.13072 228.51903,320.72674 227.63614,299.22805 C 240.95822,285.24343 263.12017,284.70571 277.10478,298.02779 z "
       id="path2774"
       sodipodi:nodetypes="cccc" />
    <path
       style="color:black;fill:white;fill-opacity:0.65048547;fill-rule:evenodd;stroke:none;stroke-width:0.40000001;stroke-linecap:butt;stroke-linejoin:round;marker:none;marker-start:none;marker-mid:none;marker-end:none;stroke-miterlimit:4;stroke-dashoffset:0;stroke-opacity:1;visibility:visible;display:inline;overflow:visible"
       d="M 216.64178,318.4916 C 217.64627,317.94197 219.27086,327.00036 224.25682,336.11244 C 229.24281,345.22454 235.71139,350.9568 234.70689,351.50644 C 233.70242,352.05607 225.57885,346.55381 220.59287,337.44172 C 215.60691,328.32963 215.6373,319.04124 216.64178,318.4916 z "
       id="path6338"
       sodipodi:nodetypes="csssc" />
    <path
       sodipodi:type="arc"
       style="color:black;fill:url(#linearGradient2944);fill-opacity:1;fill-rule:evenodd;stroke:none;stroke-width:2;stroke-linecap:butt;stroke-linejoin:round;marker:none;marker-start:none;marker-mid:none;marker-end:none;stroke-miterlimit:4;stroke-dasharray:none;stroke-dashoffset:0;stroke-opacity:1;visibility:visible;display:inline;overflow:visible"
       id="path2942"
       sodipodi:cx="273.6882"
       sodipodi:cy="379.44513"
       sodipodi:rx="34.150902"
       sodipodi:ry="34.150902"
       d="M 307.8391 379.44513 A 34.150902 34.150902 0 1 1  239.5373,379.44513 A 34.150902 34.150902 0 1 1  307.8391 379.44513 z"
       transform="matrix(1.154929,0,0,1.154929,-11.61833,-91.97595)" />
    <path
       style="color:black;fill:white;fill-opacity:0.65048547;fill-rule:evenodd;stroke:none;stroke-width:0.40000001;stroke-linecap:butt;stroke-linejoin:round;marker:none;marker-start:none;marker-mid:none;marker-end:none;stroke-miterlimit:4;stroke-dashoffset:0;stroke-opacity:1;visibility:visible;display:inline;overflow:visible"
       d="M 226.63872,378.04524 C 227.35628,377.16981 232.19631,384.87316 240.13777,391.38238 C 248.07923,397.89159 256.12968,400.75393 255.41212,401.62936 C 254.69458,402.5048 245.212,400.46549 237.27053,393.95629 C 229.32908,387.44707 225.92117,378.92069 226.63872,378.04524 z "
       id="path13033"
       sodipodi:nodetypes="csssc" />
    <path
       style="color:black;fill:white;fill-opacity:0.65048547;fill-rule:evenodd;stroke:none;stroke-width:0.40000001;stroke-linecap:butt;stroke-linejoin:round;marker:none;marker-start:none;marker-mid:none;marker-end:none;stroke-miterlimit:4;stroke-dashoffset:0;stroke-opacity:1;visibility:visible;display:inline;overflow:visible"
       d="M 270.3888,358.93317 C 271.10636,358.05774 275.94639,365.76109 283.88785,372.27031 C 291.82931,378.77952 299.87976,381.64186 299.1622,382.51729 C 298.44466,383.39273 288.96208,381.35342 281.02061,374.84422 C 273.07916,368.335 269.67125,359.80862 270.3888,358.93317 z "
       id="path13035"
       sodipodi:nodetypes="csssc" />
    <path
       style="color:black;fill:url(#linearGradient16701);fill-opacity:1;fill-rule:evenodd;stroke:none;stroke-width:0.37613201;stroke-linecap:butt;stroke-linejoin:round;marker:none;marker-start:none;marker-mid:none;marker-end:none;stroke-miterlimit:4;stroke-dashoffset:0;stroke-opacity:1;visibility:visible;display:inline;overflow:visible"
       d="M 329.07216,315.76507 C 343.05678,329.08715 343.59449,351.2491 330.27241,365.23372 C 319.36231,342.868 280.48641,338.46402 279.60352,316.96533 C 292.9256,302.98071 315.08755,302.44299 329.07216,315.76507 z "
       id="path13037"
       sodipodi:nodetypes="cccc" />
    <path
       sodipodi:type="arc"
       style="color:black;fill:url(#linearGradient2952);fill-opacity:1;fill-rule:evenodd;stroke:none;stroke-width:2;stroke-linecap:butt;stroke-linejoin:round;marker:none;marker-start:none;marker-mid:none;marker-end:none;stroke-miterlimit:4;stroke-dasharray:none;stroke-dashoffset:0;stroke-opacity:1;visibility:visible;display:inline;overflow:visible"
       id="path2950"
       sodipodi:cx="273.6882"
       sodipodi:cy="379.44513"
       sodipodi:rx="34.150902"
       sodipodi:ry="34.150902"
       d="M 307.8391 379.44513 A 34.150902 34.150902 0 1 1  239.5373,379.44513 A 34.150902 34.150902 0 1 1  307.8391 379.44513 z"
       transform="matrix(1.154929,0,0,1.154929,38.14924,-114.5068)" />
    <path
       style="color:black;fill:url(#linearGradient16697);fill-opacity:1;fill-rule:evenodd;stroke:none;stroke-width:0.37613201;stroke-linecap:butt;stroke-linejoin:round;marker:none;marker-start:none;marker-mid:none;marker-end:none;stroke-miterlimit:4;stroke-dashoffset:0;stroke-opacity:1;visibility:visible;display:inline;overflow:visible"
       d="M 377.65303,296.04412 C 391.63765,309.3662 392.17536,331.52815 378.85328,345.51277 C 367.94318,323.14705 329.06728,318.74307 328.18439,297.24438 C 341.50647,283.25976 363.66842,282.72204 377.65303,296.04412 z "
       id="path13041"
       sodipodi:nodetypes="cccc" />
    <path
       style="color:black;fill:white;fill-opacity:0.65048547;fill-rule:evenodd;stroke:none;stroke-width:0.40000001;stroke-linecap:butt;stroke-linejoin:round;marker:none;marker-start:none;marker-mid:none;marker-end:none;stroke-miterlimit:4;stroke-dashoffset:0;stroke-opacity:1;visibility:visible;display:inline;overflow:visible"
       d="M 317.52667,329.11125 C 318.24423,328.23582 323.08426,335.93917 331.02572,342.44839 C 338.96718,348.9576 347.01763,351.81994 346.30007,352.69537 C 345.58253,353.57081 336.09995,351.5315 328.15848,345.0223 C 320.21703,338.51308 316.80912,329.9867 317.52667,329.11125 z "
       id="path13045"
       sodipodi:nodetypes="csssc" />
    <path
       style="color:black;fill:url(#linearGradient16693);fill-opacity:1;fill-rule:evenodd;stroke:none;stroke-width:0.37613201;stroke-linecap:butt;stroke-linejoin:round;marker:none;marker-start:none;marker-mid:none;marker-end:none;stroke-miterlimit:4;stroke-dashoffset:0;stroke-opacity:1;visibility:visible;display:inline;overflow:visible"
       d="M 435.85385,320.57506 C 449.83847,333.89714 450.37618,356.05909 437.0541,370.04371 C 426.144,347.67799 387.2681,343.27401 386.38521,321.77532 C 399.70729,307.7907 421.86924,307.25298 435.85385,320.57506 z "
       id="path13057"
       sodipodi:nodetypes="cccc" />
    <path
       style="color:black;fill:white;fill-opacity:0.65048547;fill-rule:evenodd;stroke:none;stroke-width:0.40000001;stroke-linecap:butt;stroke-linejoin:round;marker:none;marker-start:none;marker-mid:none;marker-end:none;stroke-miterlimit:4;stroke-dashoffset:0;stroke-opacity:1;visibility:visible;display:inline;overflow:visible"
       d="M 381.75247,348.90819 C 382.47003,348.03276 387.31006,355.73611 395.25152,362.24533 C 403.19298,368.75454 411.24343,371.61688 410.52587,372.49231 C 409.80833,373.36775 400.32575,371.32844 392.38428,364.81924 C 384.44283,358.31002 381.03492,349.78364 381.75247,348.90819 z "
       id="path13061"
       sodipodi:nodetypes="csssc" />
    <path
       style="color:black;fill:url(#linearGradient16689);fill-opacity:1;fill-rule:evenodd;stroke:none;stroke-width:0.37613201;stroke-linecap:butt;stroke-linejoin:round;marker:none;marker-start:none;marker-mid:none;marker-end:none;stroke-miterlimit:4;stroke-dashoffset:0;stroke-opacity:1;visibility:visible;display:inline;overflow:visible"
       d="M 383.90601,340.296 C 397.89063,353.61808 398.42834,375.78003 385.10626,389.76465 C 374.19616,367.39893 335.32026,362.99495 334.43737,341.49626 C 347.75945,327.51164 369.9214,326.97392 383.90601,340.296 z "
       id="path13047"
       sodipodi:nodetypes="cccc" />
    <path
       sodipodi:type="arc"
       style="color:black;fill:url(#linearGradient13075);fill-opacity:1;fill-rule:evenodd;stroke:none;stroke-width:2;stroke-linecap:butt;stroke-linejoin:round;marker:none;marker-start:none;marker-mid:none;marker-end:none;stroke-miterlimit:4;stroke-dasharray:none;stroke-dashoffset:0;stroke-opacity:1;visibility:visible;display:inline;overflow:visible"
       id="path2962"
       sodipodi:cx="273.6882"
       sodipodi:cy="379.44513"
       sodipodi:rx="34.150902"
       sodipodi:ry="34.150902"
       d="M 307.8391 379.44513 A 34.150902 34.150902 0 1 1  239.5373,379.44513 A 34.150902 34.150902 0 1 1  307.8391 379.44513 z"
       transform="matrix(1.154929,0,0,1.154929,43.42474,-71.73195)" />
    <path
       style="color:black;fill:white;fill-opacity:0.65048547;fill-rule:evenodd;stroke:none;stroke-width:0.40000001;stroke-linecap:butt;stroke-linejoin:round;marker:none;marker-start:none;marker-mid:none;marker-end:none;stroke-miterlimit:4;stroke-dashoffset:0;stroke-opacity:1;visibility:visible;display:inline;overflow:visible"
       d="M 325.70365,379.13512 C 326.42121,378.25969 331.26124,385.96304 339.2027,392.47226 C 347.14416,398.98147 355.19461,401.84381 354.47705,402.71924 C 353.75951,403.59468 344.27693,401.55537 336.33546,395.04617 C 328.39401,388.53695 324.9861,380.01057 325.70365,379.13512 z "
       id="path13055"
       sodipodi:nodetypes="csssc" />
    <path
       style="color:black;fill:url(#linearGradient16684);fill-opacity:1;fill-rule:evenodd;stroke:none;stroke-width:0.37613201;stroke-linecap:butt;stroke-linejoin:round;marker:none;marker-start:none;marker-mid:none;marker-end:none;stroke-miterlimit:4;stroke-dashoffset:0;stroke-opacity:1;visibility:visible;display:inline;overflow:visible"
       d="M 426.71488,353.28295 C 440.6995,366.60503 441.23721,388.76698 427.91513,402.7516 C 417.00503,380.38588 378.12913,375.9819 377.24624,354.48321 C 390.56832,340.49859 412.73027,339.96087 426.71488,353.28295 z "
       id="path13067"
       sodipodi:nodetypes="cccc" />
    <path
       style="color:black;fill:white;fill-opacity:0.65048547;fill-rule:evenodd;stroke:none;stroke-width:0.40000001;stroke-linecap:butt;stroke-linejoin:round;marker:none;marker-start:none;marker-mid:none;marker-end:none;stroke-miterlimit:4;stroke-dashoffset:0;stroke-opacity:1;visibility:visible;display:inline;overflow:visible"
       d="M 378.02462,404.17091 C 378.24305,403.06025 386.14994,407.56009 396.22521,409.54139 C 406.30048,411.5227 414.74765,410.23891 414.52922,411.34957 C 414.31083,412.46023 404.99079,415.14632 394.91552,413.16504 C 384.84026,411.18372 377.80622,405.28158 378.02462,404.17091 z "
       id="path13071"
       sodipodi:nodetypes="csssc" />
    <g
       id="use16776"
       transform="translate(-12,37)">
      <path
         style="color:black;fill:url(#linearGradient17926);fill-opacity:1;fill-rule:evenodd;stroke:#2272c4;stroke-width:0.51678222;stroke-linecap:butt;stroke-linejoin:round;marker:none;marker-start:none;marker-mid:none;marker-end:none;stroke-miterlimit:4;stroke-dashoffset:0;stroke-opacity:1;visibility:visible;display:inline;overflow:visible"
         d="M 329.74161,459.41599 C 329.74161,464.40811 325.69003,468.45967 320.69792,468.45967 C 315.7058,468.45967 311.65423,464.40811 311.65423,459.41599 C 311.65423,454.42387 316.82205,450.11391 320.69792,442.62057 C 324.57378,450.11391 329.74161,454.42387 329.74161,459.41599 z "
         id="path17920"
         sodipodi:nodetypes="csscc" />
      <path
         style="color:black;fill:url(#linearGradient17928);fill-opacity:1;fill-rule:evenodd;stroke:none;stroke-width:0.4748866;stroke-linecap:butt;stroke-linejoin:round;marker:none;marker-start:none;marker-mid:none;marker-end:none;stroke-miterlimit:4;stroke-dashoffset:0;stroke-opacity:1;visibility:visible;display:inline;overflow:visible"
         d="M 320.01953,467.4914 C 315.69335,467.4914 312.18225,463.98032 312.18225,459.65413 C 312.18225,455.32796 316.6607,451.59294 320.01953,445.09919 C 324.75812,451.76294 315.05254,458.57478 320.01953,467.4914 z "
         id="path17922"
         sodipodi:nodetypes="cscc" />
      <path
         style="color:black;fill:white;fill-opacity:0.65048547;fill-rule:evenodd;stroke:none;stroke-width:0.40000001;stroke-linecap:butt;stroke-linejoin:round;marker:none;marker-start:none;marker-mid:none;marker-end:none;stroke-miterlimit:4;stroke-dashoffset:0;stroke-opacity:1;visibility:visible;display:inline;overflow:visible"
         d="M 323.10553,467.46113 C 322.82898,467.28469 324.87951,465.62738 326.47992,463.11858 C 328.08031,460.60979 328.62753,458.19487 328.90409,458.37129 C 329.18065,458.54772 328.91945,461.34649 327.31906,463.85528 C 325.71865,466.36408 323.3821,467.63755 323.10553,467.46113 z "
         id="path17924"
         sodipodi:nodetypes="csssc" />
    </g>
    <use
       x="0"
       y="0"
       xlink:href="#use16776"
       id="use16778"
       transform="translate(-75,15)"
       width="744.09448"
       height="1052.3622" />
    <use
       x="0"
       y="0"
       xlink:href="#use16778"
       id="use16780"
       transform="translate(164.6042,-33.35588)"
       width="744.09448"
       height="1052.3622" />
    <use
       x="0"
       y="0"
       xlink:href="#use16780"
       id="use16782"
       transform="translate(-58.6042,-49.64412)"
       width="744.09448"
       height="1052.3622" />
    <use
       x="0"
       y="0"
       xlink:href="#use16782"
       id="use16784"
       transform="translate(-75.3958,16)"
       width="744.09448"
       height="1052.3622" />
    <use
       x="0"
       y="0"
       xlink:href="#use16784"
       id="use16822"
       transform="translate(-15,33.64412)"
       width="744.09448"
       height="1052.3622" />
    <use
       x="0"
       y="0"
       xlink:href="#use16822"
       id="use16824"
       transform="translate(165.3958,-33.64412)"
       width="744.09448"
       height="1052.3622" />
    <use
       x="0"
       y="0"
       xlink:href="#use16824"
       id="use16826"
       transform="translate(-33.39584,68)"
       width="744.09448"
       height="1052.3622" />
    <g
       id="use17912"
       transform="translate(3,3.64412)">
      <path
         style="color:black;fill:url(#linearGradient17938);fill-opacity:1;fill-rule:evenodd;stroke:#2272c4;stroke-width:0.51678222;stroke-linecap:butt;stroke-linejoin:round;marker:none;marker-start:none;marker-mid:none;marker-end:none;stroke-miterlimit:4;stroke-dashoffset:0;stroke-opacity:1;visibility:visible;display:inline;overflow:visible"
         d="M 329.74161,459.41599 C 329.74161,464.40811 325.69003,468.45967 320.69792,468.45967 C 315.7058,468.45967 311.65423,464.40811 311.65423,459.41599 C 311.65423,454.42387 316.82205,450.11391 320.69792,442.62057 C 324.57378,450.11391 329.74161,454.42387 329.74161,459.41599 z "
         id="path17932"
         sodipodi:nodetypes="csscc" />
      <path
         style="color:black;fill:url(#linearGradient17940);fill-opacity:1;fill-rule:evenodd;stroke:none;stroke-width:0.4748866;stroke-linecap:butt;stroke-linejoin:round;marker:none;marker-start:none;marker-mid:none;marker-end:none;stroke-miterlimit:4;stroke-dashoffset:0;stroke-opacity:1;visibility:visible;display:inline;overflow:visible"
         d="M 320.01953,467.4914 C 315.69335,467.4914 312.18225,463.98032 312.18225,459.65413 C 312.18225,455.32796 316.6607,451.59294 320.01953,445.09919 C 324.75812,451.76294 315.05254,458.57478 320.01953,467.4914 z "
         id="path17934"
         sodipodi:nodetypes="cscc" />
      <path
         style="color:black;fill:white;fill-opacity:0.65048547;fill-rule:evenodd;stroke:none;stroke-width:0.40000001;stroke-linecap:butt;stroke-linejoin:round;marker:none;marker-start:none;marker-mid:none;marker-end:none;stroke-miterlimit:4;stroke-dashoffset:0;stroke-opacity:1;visibility:visible;display:inline;overflow:visible"
         d="M 323.10553,467.46113 C 322.82898,467.28469 324.87951,465.62738 326.47992,463.11858 C 328.08031,460.60979 328.62753,458.19487 328.90409,458.37129 C 329.18065,458.54772 328.91945,461.34649 327.31906,463.85528 C 325.71865,466.36408 323.3821,467.63755 323.10553,467.46113 z "
         id="path17936"
         sodipodi:nodetypes="csssc" />
    </g>
  </g>
</svg>
