<?xml version="1.0" encoding="UTF-8" standalone="no"?>
<svg
   width="24"
   height="24"
   viewBox="0 0 24 24"
   fill="none"
   stroke="currentColor"
   stroke-width="2"
   stroke-linecap="round"
   stroke-linejoin="round"
   class="feather feather-mic"
   version="1.1"
   id="svg3"
   sodipodi:docname="feather-mic-symbolic.svg"
   inkscape:version="1.3.2 (091e20ef0f, 2023-11-25, custom)"
   xmlns:inkscape="http://www.inkscape.org/namespaces/inkscape"
   xmlns:sodipodi="http://sodipodi.sourceforge.net/DTD/sodipodi-0.dtd"
   xmlns="http://www.w3.org/2000/svg"
   xmlns:svg="http://www.w3.org/2000/svg">
  <defs
     id="defs3" />
  <sodipodi:namedview
     id="namedview3"
     pagecolor="#ffffff"
     bordercolor="#666666"
     borderopacity="1.0"
     inkscape:showpageshadow="2"
     inkscape:pageopacity="0.0"
     inkscape:pagecheckerboard="0"
     inkscape:deskcolor="#d1d1d1"
     inkscape:zoom="32.25"
     inkscape:cx="12"
     inkscape:cy="12"
     inkscape:window-width="1920"
     inkscape:window-height="999"
     inkscape:window-x="0"
     inkscape:window-y="0"
     inkscape:window-maximized="1"
     inkscape:current-layer="svg3" />
  <path
     style="color:#000000;fill:#000000;-inkscape-stroke:none;stroke:none"
     d="M 12,0 C 9.8027078,0 8,1.8027078 8,4 v 8 c 0,1.249998 0.5047564,2.314775 1.2734375,2.998047 C 10.042119,15.681319 11.027779,16 12,16 12.972221,16 13.957881,15.681319 14.726563,14.998047 15.495244,14.314775 16,13.249998 16,12 V 4 C 16,1.8027078 14.197292,0 12,0 Z m 0,2 c 1.116413,0 2,0.883587 2,2 v 8 c 0,0.749999 -0.245245,1.185226 -0.601562,1.501953 C 13.04212,13.81868 12.527777,14 12,14 11.472223,14 10.95788,13.81868 10.601563,13.501953 10.245245,13.185226 10,12.749999 10,12 V 4 c 0,-1.116413 0.883587,-2 2,-2 z"
     id="path1" />
  <path
     style="color:#000000;fill:#000000;-inkscape-stroke:none;stroke:none"
     d="m 5,9 a 1,1 0 0 0 -1,1 v 2 c 0,4.406431 3.5935721,8 8,8 4.406428,0 8,-3.593569 8,-8 v -2 a 1,1 0 0 0 -1,-1 1,1 0 0 0 -1,1 v 2 c 0,3.325553 -2.674449,6 -6,6 C 8.6744493,18 6,15.325553 6,12 V 10 A 1,1 0 0 0 5,9 Z"
     id="path2" />
  <path
     style="color:#000000;fill:#000000;-inkscape-stroke:none;stroke:none"
     d="m 12,18 a 1,1 0 0 0 -1,1 v 4 a 1,1 0 0 0 1,1 1,1 0 0 0 1,-1 v -4 a 1,1 0 0 0 -1,-1 z"
     id="line2" />
  <path
     style="color:#000000;fill:#000000;-inkscape-stroke:none;stroke:none"
     d="m 8,22 a 1,1 0 0 0 -1,1 1,1 0 0 0 1,1 h 8 a 1,1 0 0 0 1,-1 1,1 0 0 0 -1,-1 z"
     id="line3" />
</svg>
