<?xml version="1.0" encoding="UTF-8" standalone="no"?>
<svg
   width="24"
   height="24"
   viewBox="0 0 24 24"
   fill="none"
   stroke="currentColor"
   stroke-width="2"
   stroke-linecap="round"
   stroke-linejoin="round"
   class="feather feather-trash"
   version="1.1"
   id="svg1"
   sodipodi:docname="feather-trash-symbolic.svg"
   inkscape:version="1.3.2 (091e20e, 2023-11-25, custom)"
   xmlns:inkscape="http://www.inkscape.org/namespaces/inkscape"
   xmlns:sodipodi="http://sodipodi.sourceforge.net/DTD/sodipodi-0.dtd"
   xmlns="http://www.w3.org/2000/svg"
   xmlns:svg="http://www.w3.org/2000/svg">
  <defs
     id="defs1" />
  <sodipodi:namedview
     id="namedview1"
     pagecolor="#ffffff"
     bordercolor="#666666"
     borderopacity="1.0"
     inkscape:showpageshadow="2"
     inkscape:pageopacity="0.0"
     inkscape:pagecheckerboard="0"
     inkscape:deskcolor="#d1d1d1"
     inkscape:zoom="33.916667"
     inkscape:cx="11.985258"
     inkscape:cy="12"
     inkscape:window-width="1920"
     inkscape:window-height="1010"
     inkscape:window-x="-6"
     inkscape:window-y="-6"
     inkscape:window-maximized="1"
     inkscape:current-layer="svg1" />
  <path
     style="color:#000000;fill:#000000;-inkscape-stroke:none;stroke:none"
     d="M 3,5 A 1,1 0 0 0 2,6 1,1 0 0 0 3,7 H 5 21 A 1,1 0 0 0 22,6 1,1 0 0 0 21,5 H 5 Z"
     id="polyline1" />
  <path
     style="color:#000000;fill:#000000;-inkscape-stroke:none;stroke:none"
     d="M 10,1 C 8.354992,1 7,2.354992 7,4 V 6 A 1,1 0 0 0 8,7 1,1 0 0 0 9,6 V 4 C 9,3.4358712 9.4358712,3 10,3 h 4 c 0.564129,0 1,0.4358712 1,1 v 2 a 1,1 0 0 0 1,1 1,1 0 0 0 1,-1 V 4 C 17,2.354992 15.645008,1 14,1 Z M 5,5 A 1,1 0 0 0 4,6 v 14 c 0,1.645008 1.354992,3 3,3 h 10 c 1.645008,0 3,-1.354992 3,-3 V 6 A 1,1 0 0 0 19,5 1,1 0 0 0 18,6 v 14 c 0,0.564129 -0.435871,1 -1,1 H 7 C 6.4358712,21 6,20.564129 6,20 V 6 A 1,1 0 0 0 5,5 Z"
     id="path1" />
</svg>
