<?xml version="1.0" encoding="UTF-8" standalone="no"?>
<svg
   width="24"
   height="24"
   viewBox="0 0 24 24"
   fill="none"
   stroke="currentColor"
   stroke-width="2"
   stroke-linecap="round"
   stroke-linejoin="round"
   class="feather feather-server"
   version="1.1"
   id="svg3"
   sodipodi:docname="feather-server-symbolic.svg"
   inkscape:version="1.3.2 (091e20ef0f, 2023-11-25, custom)"
   xmlns:inkscape="http://www.inkscape.org/namespaces/inkscape"
   xmlns:sodipodi="http://sodipodi.sourceforge.net/DTD/sodipodi-0.dtd"
   xmlns="http://www.w3.org/2000/svg"
   xmlns:svg="http://www.w3.org/2000/svg">
  <defs
     id="defs3" />
  <sodipodi:namedview
     id="namedview3"
     pagecolor="#ffffff"
     bordercolor="#666666"
     borderopacity="1.0"
     inkscape:showpageshadow="2"
     inkscape:pageopacity="0.0"
     inkscape:pagecheckerboard="0"
     inkscape:deskcolor="#d1d1d1"
     inkscape:zoom="32.25"
     inkscape:cx="12"
     inkscape:cy="12"
     inkscape:window-width="1920"
     inkscape:window-height="999"
     inkscape:window-x="0"
     inkscape:window-y="0"
     inkscape:window-maximized="1"
     inkscape:current-layer="svg3" />
  <path
     style="color:#000000;fill:#000000;-inkscape-stroke:none;stroke:none"
     d="M 4,1 C 2.3552989,1 1,2.3552989 1,4 v 4 c 0,1.6447011 1.3552989,3 3,3 h 16 c 1.644701,0 3,-1.3552989 3,-3 V 4 C 23,2.3552989 21.644701,1 20,1 Z m 0,2 h 16 c 0.571297,0 1,0.4287033 1,1 v 4 c 0,0.5712967 -0.428703,1 -1,1 H 4 C 3.4287033,9 3,8.5712967 3,8 V 4 C 3,3.4287033 3.4287033,3 4,3 Z"
     id="rect1" />
  <path
     style="color:#000000;fill:#000000;-inkscape-stroke:none;stroke:none"
     d="m 4,13 c -1.6447011,0 -3,1.355299 -3,3 v 4 c 0,1.644701 1.3552989,3 3,3 h 16 c 1.644701,0 3,-1.355299 3,-3 v -4 c 0,-1.644701 -1.355299,-3 -3,-3 z m 0,2 h 16 c 0.571297,0 1,0.428703 1,1 v 4 c 0,0.571297 -0.428703,1 -1,1 H 4 C 3.4287033,21 3,20.571297 3,20 v -4 c 0,-0.571297 0.4287033,-1 1,-1 z"
     id="rect2" />
  <path
     style="color:#000000;fill:#000000;-inkscape-stroke:none;stroke:none"
     d="M 6,5 A 1,1 0 0 0 5,6 1,1 0 0 0 6,7 1,1 0 0 0 7,6 1,1 0 0 0 6,5 Z"
     id="line2" />
  <path
     style="color:#000000;fill:#000000;-inkscape-stroke:none;stroke:none"
     d="M 6,17 A 1,1 0 0 0 5,18 1,1 0 0 0 6,19 1,1 0 0 0 7,18 1,1 0 0 0 6,17 Z"
     id="line3" />
</svg>
