<?xml version="1.0" encoding="UTF-8" standalone="no"?>
<svg
   width="32"
   height="32"
   viewBox="0 0 24 24"
   fill="none"
   stroke="#000000"
   stroke-width="2.5"
   stroke-linecap="square"
   stroke-linejoin="arcs"
   version="1.1"
   id="svg1"
   sodipodi:docname="feather-lock-symbolic.svg"
   inkscape:version="1.3.2 (091e20ef0f, 2023-11-25, custom)"
   xmlns:inkscape="http://www.inkscape.org/namespaces/inkscape"
   xmlns:sodipodi="http://sodipodi.sourceforge.net/DTD/sodipodi-0.dtd"
   xmlns="http://www.w3.org/2000/svg"
   xmlns:svg="http://www.w3.org/2000/svg">
  <defs
     id="defs1" />
  <sodipodi:namedview
     id="namedview1"
     pagecolor="#ffffff"
     bordercolor="#666666"
     borderopacity="1.0"
     inkscape:showpageshadow="2"
     inkscape:pageopacity="0.0"
     inkscape:pagecheckerboard="0"
     inkscape:deskcolor="#d1d1d1"
     inkscape:zoom="24.1875"
     inkscape:cx="16"
     inkscape:cy="16"
     inkscape:window-width="1920"
     inkscape:window-height="999"
     inkscape:window-x="0"
     inkscape:window-y="0"
     inkscape:window-maximized="1"
     inkscape:current-layer="svg1" />
  <path
     style="color:#000000;fill:#000000;-inkscape-stroke:none;stroke:none"
     d="M 5,9.75 C 3.2211233,9.75 1.75,11.221123 1.75,13 v 7 c 0,1.778877 1.4711233,3.25 3.25,3.25 h 14 c 1.778877,0 3.25,-1.471123 3.25,-3.25 V 13 C 22.25,11.221123 20.778877,9.75 19,9.75 Z m 0,2.5 h 14 c 0.437121,0 0.75,0.312879 0.75,0.75 v 7 c 0,0.437121 -0.312879,0.75 -0.75,0.75 H 5 C 4.5628789,20.75 4.25,20.437121 4.25,20 v -7 c 0,-0.437121 0.3128789,-0.75 0.75,-0.75 z"
     id="rect1" />
  <path
     style="color:#000000;fill:#000000;-inkscape-stroke:none;stroke:none"
     d="M 12,0.75 C 10.472224,0.75 8.9276481,1.2539834 7.7324219,2.3164063 6.5371957,3.3788291 5.75,5.0208359 5.75,7 v 4 1.25 h 2.5 V 11 7 C 8.25,5.6458355 8.7128062,4.7878352 9.3925781,4.1835937 10.07235,3.5793523 11.027779,3.25 12,3.25 c 0.972221,0 1.92765,0.3293523 2.607422,0.9335937 C 15.287194,4.7878352 15.75,5.6458355 15.75,7 v 4 1.25 h 2.5 V 11 7 C 18.25,5.0208359 17.462804,3.3788291 16.267578,2.3164063 15.072352,1.2539834 13.527776,0.75 12,0.75 Z"
     id="path1" />
</svg>
