<?xml version="1.0" encoding="UTF-8" standalone="no"?>
<svg
   width="24"
   height="24"
   viewBox="0 0 24 24"
   fill="none"
   stroke="currentColor"
   stroke-width="2"
   stroke-linecap="round"
   stroke-linejoin="round"
   class="feather feather-user-plus"
   version="1.1"
   id="svg2"
   sodipodi:docname="feather-user-plus-symbolic.svg"
   inkscape:version="1.3.2 (091e20e, 2023-11-25, custom)"
   xmlns:inkscape="http://www.inkscape.org/namespaces/inkscape"
   xmlns:sodipodi="http://sodipodi.sourceforge.net/DTD/sodipodi-0.dtd"
   xmlns="http://www.w3.org/2000/svg"
   xmlns:svg="http://www.w3.org/2000/svg">
  <defs
     id="defs2" />
  <sodipodi:namedview
     id="namedview2"
     pagecolor="#ffffff"
     bordercolor="#666666"
     borderopacity="1.0"
     inkscape:showpageshadow="2"
     inkscape:pageopacity="0.0"
     inkscape:pagecheckerboard="0"
     inkscape:deskcolor="#d1d1d1"
     inkscape:zoom="33.916667"
     inkscape:cx="11.985258"
     inkscape:cy="12"
     inkscape:window-width="1920"
     inkscape:window-height="1010"
     inkscape:window-x="-6"
     inkscape:window-y="-6"
     inkscape:window-maximized="1"
     inkscape:current-layer="svg2" />
  <path
     style="color:#000000;fill:#000000;-inkscape-stroke:none;stroke:none"
     d="m 5,14 c -2.7495764,0 -5,2.250424 -5,5 v 2 a 1,1 0 0 0 1,1 1,1 0 0 0 1,-1 v -2 c 0,-1.668697 1.3313028,-3 3,-3 h 7 c 1.668697,0 3,1.331303 3,3 v 2 a 1,1 0 0 0 1,1 1,1 0 0 0 1,-1 v -2 c 0,-2.749576 -2.250424,-5 -5,-5 z"
     id="path1" />
  <path
     style="color:#000000;fill:#000000;-inkscape-stroke:none;stroke:none"
     d="m 8.5,2 c -2.7495764,0 -5,2.2504236 -5,5 0,2.7495764 2.2504236,5 5,5 2.749576,0 5,-2.2504236 5,-5 0,-2.7495764 -2.250424,-5 -5,-5 z m 0,2 c 1.668697,0 3,1.3313028 3,3 0,1.6686972 -1.331303,3 -3,3 -1.6686972,0 -3,-1.3313028 -3,-3 0,-1.6686972 1.3313028,-3 3,-3 z"
     id="circle1" />
  <path
     style="color:#000000;fill:#000000;-inkscape-stroke:none;stroke:none"
     d="m 20,7 a 1,1 0 0 0 -1,1 v 6 a 1,1 0 0 0 1,1 1,1 0 0 0 1,-1 V 8 A 1,1 0 0 0 20,7 Z"
     id="line1" />
  <path
     style="color:#000000;fill:#000000;-inkscape-stroke:none;stroke:none"
     d="m 17,10 a 1,1 0 0 0 -1,1 1,1 0 0 0 1,1 h 6 a 1,1 0 0 0 1,-1 1,1 0 0 0 -1,-1 z"
     id="line2" />
</svg>
