<?xml version="1.0" encoding="UTF-8" standalone="no"?>
<svg
   width="24"
   height="24"
   viewBox="0 0 24 24"
   fill="none"
   stroke="currentColor"
   stroke-width="2"
   stroke-linecap="round"
   stroke-linejoin="round"
   class="feather feather-tag"
   version="1.1"
   id="svg1"
   sodipodi:docname="feather-tag-symbolic.svg"
   inkscape:version="1.3.2 (091e20e, 2023-11-25, custom)"
   xmlns:inkscape="http://www.inkscape.org/namespaces/inkscape"
   xmlns:sodipodi="http://sodipodi.sourceforge.net/DTD/sodipodi-0.dtd"
   xmlns="http://www.w3.org/2000/svg"
   xmlns:svg="http://www.w3.org/2000/svg">
  <defs
     id="defs1" />
  <sodipodi:namedview
     id="namedview1"
     pagecolor="#ffffff"
     bordercolor="#666666"
     borderopacity="1.0"
     inkscape:showpageshadow="2"
     inkscape:pageopacity="0.0"
     inkscape:pagecheckerboard="0"
     inkscape:deskcolor="#d1d1d1"
     inkscape:zoom="33.916667"
     inkscape:cx="11.985258"
     inkscape:cy="12"
     inkscape:window-width="1920"
     inkscape:window-height="1010"
     inkscape:window-x="-6"
     inkscape:window-y="-6"
     inkscape:window-maximized="1"
     inkscape:current-layer="svg1" />
  <path
     style="color:#000000;fill:#000000;-inkscape-stroke:none;stroke:none"
     d="M 2,1 A 1.0001,1.0001 0 0 0 1,2 v 10 a 1.0001,1.0001 0 0 0 0.2929687,0.707031 l 8.5898438,8.580078 c 1.1634415,1.164737 3.0806995,1.164737 4.2441405,0 l 7.169922,-7.169921 a 1.0001,1.0001 0 0 0 0.002,-0.002 c 1.154973,-1.161865 1.154973,-3.068603 0,-4.2304684 a 1.0001,1.0001 0 0 0 -0.002,-0.00195 L 12.707031,1.2929687 A 1.0001,1.0001 0 0 0 12,1 Z m 1,2 h 8.585938 l 8.296874,8.296875 c 0.393937,0.398334 0.393305,1.010586 -0.002,1.408203 l -7.167968,7.167969 c -0.399014,0.399458 -1.017002,0.399458 -1.416016,0 L 3,11.585938 Z"
     id="path1" />
  <path
     style="color:#000000;fill:#000000;-inkscape-stroke:none;stroke:none"
     d="M 7,6 A 1,1 0 0 0 6,7 1,1 0 0 0 7,8 h 0.00977 a 1,1 0 0 0 1,-1 1,1 0 0 0 -1,-1 z"
     id="line1" />
</svg>
