<?xml version="1.0" encoding="UTF-8" standalone="no"?>
<svg
   width="24"
   height="24"
   viewBox="0 0 24 24"
   fill="none"
   stroke="currentColor"
   stroke-width="2"
   stroke-linecap="round"
   stroke-linejoin="round"
   class="feather feather-plus-circle"
   version="1.1"
   id="svg2"
   sodipodi:docname="feather-plus-circle-symbolic.svg"
   inkscape:version="1.3.2 (091e20e, 2023-11-25, custom)"
   xmlns:inkscape="http://www.inkscape.org/namespaces/inkscape"
   xmlns:sodipodi="http://sodipodi.sourceforge.net/DTD/sodipodi-0.dtd"
   xmlns="http://www.w3.org/2000/svg"
   xmlns:svg="http://www.w3.org/2000/svg">
  <defs
     id="defs2" />
  <sodipodi:namedview
     id="namedview2"
     pagecolor="#ffffff"
     bordercolor="#666666"
     borderopacity="1.0"
     inkscape:showpageshadow="2"
     inkscape:pageopacity="0.0"
     inkscape:pagecheckerboard="0"
     inkscape:deskcolor="#d1d1d1"
     inkscape:zoom="33.916667"
     inkscape:cx="11.985258"
     inkscape:cy="12"
     inkscape:window-width="1920"
     inkscape:window-height="1010"
     inkscape:window-x="-6"
     inkscape:window-y="-6"
     inkscape:window-maximized="1"
     inkscape:current-layer="svg2" />
  <path
     style="color:#000000;fill:#000000;-inkscape-stroke:none;stroke:none"
     d="M 12,1 C 5.9367185,1 1,5.9367185 1,12 1,18.063282 5.9367185,23 12,23 18.063282,23 23,18.063282 23,12 23,5.9367185 18.063282,1 12,1 Z m 0,2 c 4.982402,0 9,4.0175976 9,9 0,4.982402 -4.017598,9 -9,9 C 7.0175976,21 3,16.982402 3,12 3,7.0175976 7.0175976,3 12,3 Z"
     id="circle1" />
  <path
     style="color:#000000;fill:#000000;-inkscape-stroke:none;stroke:none"
     d="m 12,7 a 1,1 0 0 0 -1,1 v 8 a 1,1 0 0 0 1,1 1,1 0 0 0 1,-1 V 8 A 1,1 0 0 0 12,7 Z"
     id="line1" />
  <path
     style="color:#000000;fill:#000000;-inkscape-stroke:none;stroke:none"
     d="m 8,11 a 1,1 0 0 0 -1,1 1,1 0 0 0 1,1 h 8 a 1,1 0 0 0 1,-1 1,1 0 0 0 -1,-1 z"
     id="line2" />
</svg>
