<?xml version="1.0" encoding="UTF-8" standalone="no"?>
<svg
   width="24"
   height="24"
   viewBox="0 0 24 24"
   fill="none"
   stroke="currentColor"
   stroke-width="2"
   stroke-linecap="round"
   stroke-linejoin="round"
   class="feather feather-hash"
   version="1.1"
   id="svg4"
   sodipodi:docname="feather-hash-symbolic.svg"
   inkscape:version="1.3.2 (091e20ef0f, 2023-11-25, custom)"
   xmlns:inkscape="http://www.inkscape.org/namespaces/inkscape"
   xmlns:sodipodi="http://sodipodi.sourceforge.net/DTD/sodipodi-0.dtd"
   xmlns="http://www.w3.org/2000/svg"
   xmlns:svg="http://www.w3.org/2000/svg">
  <defs
     id="defs4" />
  <sodipodi:namedview
     id="namedview4"
     pagecolor="#ffffff"
     bordercolor="#666666"
     borderopacity="1.0"
     inkscape:showpageshadow="2"
     inkscape:pageopacity="0.0"
     inkscape:pagecheckerboard="0"
     inkscape:deskcolor="#d1d1d1"
     inkscape:zoom="32.25"
     inkscape:cx="12"
     inkscape:cy="12"
     inkscape:window-width="1920"
     inkscape:window-height="999"
     inkscape:window-x="0"
     inkscape:window-y="0"
     inkscape:window-maximized="1"
     inkscape:current-layer="svg4" />
  <path
     style="color:#000000;fill:#000000;-inkscape-stroke:none;fill-opacity:1;stroke:none"
     d="M 4,8 A 1,1 0 0 0 3,9 1,1 0 0 0 4,10 H 20 A 1,1 0 0 0 21,9 1,1 0 0 0 20,8 Z"
     id="line1" />
  <path
     style="color:#000000;fill:#000000;-inkscape-stroke:none;fill-opacity:1;stroke:none"
     d="m 4,14 a 1,1 0 0 0 -1,1 1,1 0 0 0 1,1 h 16 a 1,1 0 0 0 1,-1 1,1 0 0 0 -1,-1 z"
     id="line2" />
  <path
     style="color:#000000;fill:#000000;-inkscape-stroke:none;fill-opacity:1;stroke:none"
     d="M 10.111328,2.0058594 A 1,1 0 0 0 9.0058594,2.8886719 l -2,18.0000001 a 1,1 0 0 0 0.8828125,1.105469 1,1 0 0 0 1.1054687,-0.882813 L 10.994141,3.1113281 A 1,1 0 0 0 10.111328,2.0058594 Z"
     id="line3" />
  <path
     style="color:#000000;fill:#000000;-inkscape-stroke:none;fill-opacity:1;stroke:none"
     d="m 16.111328,2.0058594 a 1,1 0 0 0 -1.105469,0.8828125 l -2,18.0000001 a 1,1 0 0 0 0.882813,1.105469 1,1 0 0 0 1.105469,-0.882813 l 2,-17.9999999 A 1,1 0 0 0 16.111328,2.0058594 Z"
     id="line4" />
</svg>
