<svg class="lucide lucide-play-icon lucide-play" width="24" height="24" stroke-linecap="round" stroke-linejoin="round" stroke-width="2" version="1.1" viewBox="0 0 24 24" xmlns="http://www.w3.org/2000/svg"><g opacity=".9"><path d="m10.783 23.422c-1.5721-0.19361-2.9977-0.64192-4.2638-1.3408-3.3698-1.8601-5.5471-5.1434-5.9477-8.9687-0.06403-0.61152-0.026843-2.2261 0.064275-2.7907 0.40487-2.5087 1.5069-4.6891 3.2519-6.4341 1.7566-1.7566 3.9242-2.8474 6.476-3.2589 0.65999-0.10643 2.6099-0.10643 3.2699 0 2.5545 0.41193 4.7176 1.5005 6.476 3.2589 1.8723 1.8723 3.0111 4.2578 3.3117 6.9372 0.05398 0.48122 0.05402 1.8088 7e-5 2.3267-0.27536 2.6431-1.4243 5.0598-3.303 6.9474-1.7442 1.7526-3.9091 2.8467-6.4622 3.266-0.46385 0.07618-2.4051 0.11473-2.8733 0.05706z" fill-opacity=".49902" stop-color="#000000"/><path d="m10.332 0.43945c-2.5875 0.41726-4.7958 1.5283-6.5801 3.3125-1.7729 1.7729-2.8939 3.9936-3.3047 6.5391-0.098962 0.6132-0.13487 2.1879-0.066406 2.8418 0.40684 3.8855 2.6222 7.2278 6.0449 9.1172 1.289 0.71153 2.7403 1.167 4.334 1.3633 0.54225 0.06679 2.3898 0.02976 2.9277-0.05859 2.5886-0.42512 4.7944-1.5398 6.5664-3.3203 1.9088-1.9179 3.0776-4.3767 3.3574-7.0625 0.05745-0.55145 0.05833-1.8472 0-2.3672-0.30514-2.7201-1.4648-5.1504-3.3672-7.0527-1.786-1.786-3.99-2.8948-6.5801-3.3125-0.71852-0.11587-2.6135-0.11587-3.332 0zm0.0625 0.37891c0.60147-0.096992 2.6075-0.096992 3.209 0 2.5189 0.4062 4.6403 1.4743 6.3711 3.2051 1.8422 1.8422 2.9599 4.1837 3.2559 6.8223 0.04963 0.44246 0.05045 1.8028 0 2.2871-0.27092 2.6005-1.3995 4.9747-3.248 6.832-1.7165 1.7247-3.8398 2.7975-6.3574 3.2109-0.38974 0.06401-2.4241 0.1052-2.8184 0.05664-1.5504-0.19094-2.9521-0.63213-4.1953-1.3184-3.3169-1.8309-5.4554-5.0552-5.8496-8.8203-0.059595-0.56916-0.020776-2.2242 0.0625-2.7402 0.39894-2.472 1.4821-4.6129 3.1992-6.3301 1.7289-1.7289 3.855-2.7993 6.3711-3.2051z" fill-opacity=".097371" stop-color="#000000"/></g><path d="m7.5156 15.984q-1.0729 0-1.8802-0.47917-0.80729-0.48438-1.2604-1.375-0.45313-0.89584-0.45313-2.1198 0-1.25 0.46354-2.1406 0.46875-0.89584 1.2708-1.375 0.80209-0.47917 1.8177-0.47917 0.85417 0 1.5469 0.32813 0.69792 0.32813 1.1458 0.91146 0.45313 0.58334 0.57292 1.3438h-1.4219q-0.1875-0.61979-0.65625-0.97917-0.46354-0.35938-1.1719-0.35938-0.625 0-1.1198 0.31771-0.48958 0.31771-0.77084 0.93229-0.28125 0.60938-0.28125 1.4896 0 1.3177 0.60938 2.0313 0.61459 0.70834 1.5938 0.70834 0.875 0 1.3958-0.48958 0.52084-0.49479 0.54167-1.3333h-1.7917v-1.0938h3.1406v0.9323q0 0.99479-0.42708 1.724-0.42188 0.72396-1.1667 1.1146-0.73959 0.39063-1.6979 0.39063zm6.0313-7.8646v7.7604h-1.3906v-7.7604zm1.5625 7.7604v-7.7604h4.9688v1.1719h-3.5781v2.3281h3.2292v1.1563h-3.2292v3.1042z" fill="#fff" aria-label="GIF"/></svg>
