<svg class="lucide lucide-users-icon lucide-users" width="24" height="24" stroke-linecap="round" stroke-linejoin="round" stroke-width="2" version="1.1" viewBox="0 0 24 24" xmlns="http://www.w3.org/2000/svg"><path d="m6 14c-2.7496 0-5 2.2504-5 5v2a1 1 0 0 0 1 1 1 1 0 0 0 1-1v-2c0-1.6687 1.3313-3 3-3h6c1.6687 0 3 1.3313 3 3v2a1 1 0 0 0 1 1 1 1 0 0 0 1-1v-2c0-2.7496-2.2504-5-5-5z" stop-color="#000000"/><path d="m16.25 2.1602a1 1 0 0 0-1.2188 0.7168 1 1 0 0 0 0.71875 1.2188c1.5681 0.40654 2.2461 1.6242 2.2461 2.9043s-0.67795 2.4978-2.2461 2.9043a1 1 0 0 0-0.71875 1.2188 1 1 0 0 0 1.2188 0.7168c2.4268-0.62914 3.7461-2.7657 3.7461-4.8398s-1.3193-4.2107-3.7461-4.8398z" stop-color="#000000"/><path d="m19.25 14.162a1 1 0 0 0-1.2188 0.71875 1 1 0 0 0 0.71875 1.2168c1.3286 0.34304 2.249 1.5302 2.25 2.9023v2a1 1 0 0 0 1 1 1 1 0 0 0 1-1v-2c-0.0017-2.2736-1.5486-4.2695-3.75-4.8379z" stop-color="#000000"/><path d="m9 2c-2.7496 0-5 2.2504-5 5s2.2504 5 5 5c2.7496 0 5-2.2504 5-5s-2.2504-5-5-5zm0 2c1.6687 0 3 1.3313 3 3s-1.3313 3-3 3c-1.6687 0-3-1.3313-3-3s1.3313-3 3-3z" stop-color="#000000"/></svg>
