<svg class="lucide lucide-refresh-cw-icon lucide-refresh-cw" width="24" height="24" stroke-linecap="round" stroke-linejoin="round" stroke-width="2" version="1.1" viewBox="0 0 24 24" xmlns="http://www.w3.org/2000/svg"><path d="m12 2c-5.511 0-10 4.489-10 10a1 1 0 0 0 1 1 1 1 0 0 0 1-1c0-4.4288 3.5678-7.9979 7.9961-8 2.2583 0.0085 4.4252 0.88934 6.0488 2.459l2.248 2.248a1 1 0 0 0 1.4141 0 1 1 0 0 0 0-1.4141l-2.2598-2.2598a1.0001 1.0001 0 0 0-0.01172-0.011719c-1.9943-1.9279-4.6579-3.011-7.4316-3.0215a1.0001 1.0001 0 0 0-0.003906 0z" stop-color="#000000"/><path d="m21 2a1 1 0 0 0-1 1v4h-4a1 1 0 0 0-1 1 1 1 0 0 0 1 1h5a1.0001 1.0001 0 0 0 1-1v-5a1 1 0 0 0-1-1z" stop-color="#000000"/><path d="m21 11a1 1 0 0 0-1 1c0 4.4288-3.5678 7.9979-7.9961 8-2.2583-0.0085-4.4252-0.88934-6.0488-2.459l-2.248-2.248a1 1 0 0 0-1.4141 0 1 1 0 0 0 0 1.4141l2.2598 2.2598a1.0001 1.0001 0 0 0 0.011719 0.01172c1.9943 1.9279 4.6579 3.011 7.4316 3.0215a1.0001 1.0001 0 0 0 0.003906 0c5.511 0 10-4.489 10-10a1 1 0 0 0-1-1z" stop-color="#000000"/><path d="m3 15a1.0001 1.0001 0 0 0-1 1v5a1 1 0 0 0 1 1 1 1 0 0 0 1-1v-4h4a1 1 0 0 0 1-1 1 1 0 0 0-1-1z" stop-color="#000000"/></svg>
