<svg class="lucide lucide-lock-icon lucide-lock" width="24" height="24" stroke-linecap="round" stroke-linejoin="round" stroke-width="2" version="1.1" viewBox="0 0 24 24" xmlns="http://www.w3.org/2000/svg"><path d="m5 10c-1.6447 0-3 1.3553-3 3v7c0 1.6447 1.3553 3 3 3h14c1.6447 0 3-1.3553 3-3v-7c0-1.6447-1.3553-3-3-3zm0 2h14c0.5713 0 1 0.4287 1 1v7c0 0.5713-0.4287 1-1 1h-14c-0.5713 0-1-0.4287-1-1v-7c0-0.5713 0.4287-1 1-1z" stop-color="#000000"/><path d="m12 1c-1.4722 0-2.9579 0.48535-4.1016 1.502s-1.8984 2.5814-1.8984 4.498v4a1 1 0 0 0 1 1 1 1 0 0 0 1-1v-4c0-1.4167 0.49524-2.3519 1.2266-3.002 0.73132-0.65006 1.7457-0.99805 2.7734-0.99805s2.0421 0.34799 2.7734 0.99805c0.73132 0.65006 1.2266 1.5853 1.2266 3.002v4a1 1 0 0 0 1 1 1 1 0 0 0 1-1v-4c0-1.9167-0.75476-3.4814-1.8984-4.498-1.1437-1.0166-2.6293-1.502-4.1016-1.502z" stop-color="#000000"/></svg>
