<svg class="lucide lucide-globe-icon lucide-globe" width="24" height="24" stroke-linecap="round" stroke-linejoin="round" stroke-width="2" version="1.1" viewBox="0 0 24 24" xmlns="http://www.w3.org/2000/svg"><path d="m12 1c-6.0633 0-11 4.9367-11 11 0 6.0633 4.9367 11 11 11 6.0633 0 11-4.9367 11-11 0-6.0633-4.9367-11-11-11zm0 2c4.9824 0 9 4.0176 9 9 0 4.9824-4.0176 9-9 9-4.9824 0-9-4.0176-9-9 0-4.9824 4.0176-9 9-9z" stop-color="#000000"/><path d="m11.311 1.2754a1 1 0 0 0 0 0.035156 1 1 0 0 0-0.03516 0c-5.6942 5.9789-5.6942 15.4 0 21.379a1.0001 1.0001 0 0 0 1.4492 0c5.6942-5.9789 5.6942-15.4 0-21.379a1 1 0 0 0-0.03516 0 1 1 0 0 0 0-0.035156 1 1 0 0 0-0.68944 0.017578 1 1 0 0 0-0.68945-0.017578zm0.68945 2.3398c3.9303 4.9174 3.9303 11.852 0 16.77-3.9303-4.9174-3.9303-11.852 0-16.77z" stop-color="#000000"/><path d="m2 11a1 1 0 0 0-1 1 1 1 0 0 0 1 1h20a1 1 0 0 0 1-1 1 1 0 0 0-1-1z" stop-color="#000000"/></svg>
