<svg class="lucide lucide-calendar-search-icon lucide-calendar-search" width="24" height="24" fill="none" stroke="currentColor" stroke-linecap="round" stroke-linejoin="round" stroke-width="2" version="1.1" viewBox="0 0 24 24" xmlns="http://www.w3.org/2000/svg"><path d="m16 2v4"/><path d="M21 11.75V6a2 2 0 0 0-2-2H5a2 2 0 0 0-2 2v14a2 2 0 0 0 2 2h7.25"/><path d="m22 22-1.875-1.875"/><path d="m3 10h18"/><path d="m8 2v4"/><path d="m21 18a3 3 0 0 1-3 3 3 3 0 0 1-3-3 3 3 0 0 1 3-3 3 3 0 0 1 3 3z"/></svg>
