<?xml version="1.0" encoding="UTF-8" standalone="no"?>
<svg
   width="24"
   height="24"
   viewBox="0 0 24 24"
   fill="none"
   stroke="currentColor"
   stroke-width="2"
   stroke-linecap="round"
   stroke-linejoin="round"
   class="lucide lucide-calendar-search"
   version="1.1"
   id="svg5"
   sodipodi:docname="lucide-calendar-search-symbolic.svg"
   inkscape:version="1.4 (e7c3feb100, 2024-10-09)"
   xmlns:inkscape="http://www.inkscape.org/namespaces/inkscape"
   xmlns:sodipodi="http://sodipodi.sourceforge.net/DTD/sodipodi-0.dtd"
   xmlns="http://www.w3.org/2000/svg"
   xmlns:svg="http://www.w3.org/2000/svg">
  <defs
     id="defs5" />
  <sodipodi:namedview
     id="namedview5"
     pagecolor="#ffffff"
     bordercolor="#666666"
     borderopacity="1.0"
     inkscape:showpageshadow="2"
     inkscape:pageopacity="0.0"
     inkscape:pagecheckerboard="0"
     inkscape:deskcolor="#d1d1d1"
     inkscape:zoom="32.333333"
     inkscape:cx="12"
     inkscape:cy="12"
     inkscape:window-width="1920"
     inkscape:window-height="1005"
     inkscape:window-x="0"
     inkscape:window-y="0"
     inkscape:window-maximized="1"
     inkscape:current-layer="svg5" />
  <path
     style="fill:#000000;stroke:none"
     d="m 16,1 a 1,1 0 0 0 -1,1 v 4 a 1,1 0 0 0 1,1 1,1 0 0 0 1,-1 V 2 A 1,1 0 0 0 16,1 Z"
     id="path1" />
  <path
     style="fill:#000000;stroke:none"
     d="M 5,3 C 3.3549904,3 2,4.3549904 2,6 v 14 c 0,1.64501 1.3549904,3 3,3 h 7.25 a 1,1 0 0 0 1,-1 1,1 0 0 0 -1,-1 H 5 C 4.4358706,21 4,20.564129 4,20 V 6 C 4,5.4358706 4.4358706,5 5,5 h 14 c 0.564129,0 1,0.4358706 1,1 v 5.75 a 1,1 0 0 0 1,1 1,1 0 0 0 1,-1 V 6 C 22,4.3549904 20.64501,3 19,3 Z"
     id="path2" />
  <path
     style="fill:#000000;stroke:none"
     d="m 19.417969,19.417969 a 1,1 0 0 0 0,1.414062 l 1.875,1.875 a 1,1 0 0 0 1.414062,0 1,1 0 0 0 0,-1.414062 l -1.875,-1.875 a 1,1 0 0 0 -1.414062,0 z"
     id="path3" />
  <path
     style="fill:#000000;stroke:none"
     d="m 3,9 a 1,1 0 0 0 -1,1 1,1 0 0 0 1,1 h 18 a 1,1 0 0 0 1,-1 1,1 0 0 0 -1,-1 z"
     id="path4" />
  <path
     style="fill:#000000;stroke:none"
     d="M 8,1 A 1,1 0 0 0 7,2 V 6 A 1,1 0 0 0 8,7 1,1 0 0 0 9,6 V 2 A 1,1 0 0 0 8,1 Z"
     id="path5" />
  <path
     style="fill:#000000;stroke:none"
     d="m 18,14 c -2.197294,0 -4,1.802706 -4,4 0,2.197294 1.802706,4 4,4 2.197294,0 4,-1.802706 4,-4 0,-2.197294 -1.802706,-4 -4,-4 z m 0,2 c 1.116414,0 2,0.883586 2,2 0,1.116414 -0.883586,2 -2,2 -1.116414,0 -2,-0.883586 -2,-2 0,-1.116414 0.883586,-2 2,-2 z"
     id="circle5" />
</svg>
