<?xml version="1.0" encoding="UTF-8" standalone="no"?>
<svg
   width="24"
   height="24"
   viewBox="0 0 24 24"
   fill="none"
   stroke="currentColor"
   stroke-width="2"
   stroke-linecap="round"
   stroke-linejoin="round"
   class="lucide lucide-smile-plus"
   version="1.1"
   id="svg4"
   sodipodi:docname="lucide-smile-plus-symbolic.svg"
   inkscape:version="1.3.2 (091e20ef0f, 2023-11-25, custom)"
   xmlns:inkscape="http://www.inkscape.org/namespaces/inkscape"
   xmlns:sodipodi="http://sodipodi.sourceforge.net/DTD/sodipodi-0.dtd"
   xmlns="http://www.w3.org/2000/svg"
   xmlns:svg="http://www.w3.org/2000/svg">
  <defs
     id="defs4" />
  <sodipodi:namedview
     id="namedview4"
     pagecolor="#ffffff"
     bordercolor="#666666"
     borderopacity="1.0"
     inkscape:showpageshadow="2"
     inkscape:pageopacity="0.0"
     inkscape:pagecheckerboard="0"
     inkscape:deskcolor="#d1d1d1"
     inkscape:zoom="32.5"
     inkscape:cx="12"
     inkscape:cy="12"
     inkscape:window-width="1920"
     inkscape:window-height="1005"
     inkscape:window-x="0"
     inkscape:window-y="0"
     inkscape:window-maximized="1"
     inkscape:current-layer="svg4" />
  <path
     style="color:#000000;fill:#000000;stroke:none;stroke-width:2;stroke-dasharray:none"
     d="M 13.099609,1.0058594 C 8.1437662,0.50784157 4.0902111,3.2216025 2.1875,6.9765625 0.28478888,10.731522 0.49270894,15.606916 3.8242188,19.308594 7.1557286,23.010271 11.982069,23.726547 15.916016,22.228516 19.849962,20.730484 22.97504,16.9866 23,12.005859 A 1.0001,1.0001 0 0 0 23,12 v -1 a 1,1 0 0 0 -1,-1 1,1 0 0 0 -1,1 v 1 c -0.02332,4.156989 -2.556237,7.127306 -5.796875,8.361328 C 11.960883,21.595961 8.0931206,21.062452 5.3105469,17.970703 2.5279732,14.878955 2.4044984,10.975586 3.9726563,7.8808594 5.5408141,4.7861331 8.7609639,2.5781654 12.900391,2.9941406 a 1,1 0 0 0 1.09375,-0.8945312 1,1 0 0 0 -0.894532,-1.09375 z"
     id="path1" />
  <path
     style="color:#000000;fill:#000000;stroke:none;stroke-width:2;stroke-dasharray:none"
     d="m 8.140625,13.009766 a 1,1 0 0 0 -0.7402344,0.189453 1,1 0 0 0 -0.2011719,1.40039 c 0,0 1.767451,2.400391 4.8007813,2.400391 3.03333,0 4.800781,-2.400391 4.800781,-2.400391 a 1,1 0 0 0 -0.201172,-1.40039 1,1 0 0 0 -1.40039,0.201172 C 15.199219,13.400391 13.966665,15 12,15 10.033335,15 8.8007812,13.400391 8.8007813,13.400391 A 1,1 0 0 0 8.140625,13.009766 Z"
     id="path2" />
  <path
     style="color:#000000;fill:#000000;stroke:none;stroke-width:2;stroke-dasharray:none"
     d="m 9,8 a 1,1 0 0 0 -1,1 1,1 0 0 0 1,1 h 0.00977 A 1,1 0 0 0 10.009766,9 1,1 0 0 0 9.0097656,8 Z"
     id="line2" />
  <path
     style="color:#000000;fill:#000000;stroke:none;stroke-width:2;stroke-dasharray:none"
     d="m 15,8 a 1,1 0 0 0 -1,1 1,1 0 0 0 1,1 h 0.0098 a 1,1 0 0 0 1,-1 1,1 0 0 0 -1,-1 z"
     id="line3" />
  <path
     style="color:#000000;fill:#000000;stroke:none;stroke-width:2;stroke-dasharray:none"
     d="m 16,4 a 1,1 0 0 0 -1,1 1,1 0 0 0 1,1 h 6 A 1,1 0 0 0 23,5 1,1 0 0 0 22,4 Z"
     id="path3" />
  <path
     style="color:#000000;fill:#000000;stroke:none;stroke-width:2;stroke-dasharray:none"
     d="m 19,1 a 1,1 0 0 0 -1,1 v 6 a 1,1 0 0 0 1,1 1,1 0 0 0 1,-1 V 2 A 1,1 0 0 0 19,1 Z"
     id="path4" />
</svg>
