<svg class="lucide lucide-folder-icon lucide-folder" width="24" height="24" fill="none" stroke="currentColor" stroke-linecap="round" stroke-linejoin="round" stroke-width="2" version="1.1" viewBox="0 0 24 24" xmlns="http://www.w3.org/2000/svg"><path d="m4 2c-1.645 0-3 1.355-3 3v13c0 1.645 1.355 3 3 3h16c1.645 0 3-1.355 3-3v-10c0-1.645-1.355-3-3-3h-7.9004a1.0001 1.0001 0 0 0-0.0098 0c-0.3411 0.00334-0.65615-0.16432-0.84375-0.44922a1.0001 1.0001 0 0 0-0.0078-0.00977l-0.80271-1.1914c-0.55422-0.84158-1.4982-1.3494-2.5059-1.3496zm0 2h3.9297c0.3375 5.56e-5 0.65031 0.16735 0.83594 0.44922a1.0001 1.0001 0 0 0 0.00586 0.00977l0.80273 1.1914c7.94e-4 0.00121 0.00311 7.486e-4 0.00391 0.00195 0.56033 0.8483 1.5145 1.3576 2.5312 1.3477h7.8906c0.56413 0 1 0.43587 1 1v10c0 0.56413-0.43587 1-1 1h-16c-0.56413 0-1-0.43587-1-1v-13c0-0.56413 0.43587-1 1-1z" fill="#000" stop-color="#000000" stroke="none"/></svg>
