<svg class="lucide lucide-log-in-icon lucide-log-in" width="24" height="24" stroke-linecap="round" stroke-linejoin="round" stroke-width="2" version="1.1" viewBox="0 0 24 24" xmlns="http://www.w3.org/2000/svg"><path d="m10 6a1 1 0 0 0-0.70703 0.29297 1 1 0 0 0 0 1.4141l4.293 4.293-4.293 4.293a1 1 0 0 0 0 1.4141 1 1 0 0 0 1.4141 0l5-5a1.0001 1.0001 0 0 0 0-1.4141l-5-5a1 1 0 0 0-0.70703-0.29297z" stop-color="#000000"/><path d="m3 11a1 1 0 0 0-1 1 1 1 0 0 0 1 1h12a1 1 0 0 0 1-1 1 1 0 0 0-1-1z" stop-color="#000000"/><path d="m15 2a1 1 0 0 0-1 1 1 1 0 0 0 1 1h4c0.56413 0 1 0.43587 1 1v14c0 0.56413-0.43587 1-1 1h-4a1 1 0 0 0-1 1 1 1 0 0 0 1 1h4c1.645 0 3-1.355 3-3v-14c0-1.645-1.355-3-3-3z" stop-color="#000000"/></svg>
