<svg class="lucide lucide-chevron-last-icon lucide-chevron-last" width="24" height="24" stroke-linecap="round" stroke-linejoin="round" stroke-width="2" version="1.1" viewBox="0 0 24 24" xmlns="http://www.w3.org/2000/svg"><path d="m7 5a1 1 0 0 0-0.70703 0.29297 1 1 0 0 0 0 1.4141l5.293 5.293-5.293 5.293a1 1 0 0 0 0 1.4141 1 1 0 0 0 1.4141 0l6-6a1.0001 1.0001 0 0 0 0-1.4141l-6-6a1 1 0 0 0-0.70703-0.29297z" stop-color="#000000"/><path d="m17 5a1 1 0 0 0-1 1v12a1 1 0 0 0 1 1 1 1 0 0 0 1-1v-12a1 1 0 0 0-1-1z" stop-color="#000000"/></svg>
