<svg class="lucide lucide-clock-icon lucide-clock" width="24" height="24" stroke-linecap="round" stroke-linejoin="round" stroke-width="2" version="1.1" viewBox="0 0 24 24" xmlns="http://www.w3.org/2000/svg"><path d="m12 5a1 1 0 0 0-1 1v6a1.0001 1.0001 0 0 0 0.55273 0.89453l4 2a1 1 0 0 0 1.3418-0.44726 1 1 0 0 0-0.44726-1.3418l-3.4473-1.7227v-5.3828a1 1 0 0 0-1-1z" stop-color="#000000"/><path d="m12 1c-6.0633 0-11 4.9367-11 11 0 6.0633 4.9367 11 11 11 6.0633 0 11-4.9367 11-11 0-6.0633-4.9367-11-11-11zm0 2c4.9824 0 9 4.0176 9 9 0 4.9824-4.0176 9-9 9-4.9824 0-9-4.0176-9-9 0-4.9824 4.0176-9 9-9z" stop-color="#000000"/></svg>
