<svg class="lucide lucide-phone-icon lucide-phone" width="24" height="24" fill="none" stroke="currentColor" stroke-linecap="round" stroke-linejoin="round" stroke-width="2" version="1.1" viewBox="0 0 24 24" xmlns="http://www.w3.org/2000/svg"><path d="m4 1c-1.645 0-3 1.355-3 3 0 10.482 8.5184 19 19 19 1.645 0 3-1.355 3-3v-3c0-1.645-1.355-3-3-3h-3c-0.94057 0-1.8283 0.44275-2.3945 1.1934l-2e-3 2e-3c-0.0011 0.0015-0.0028 0.0024-0.0039 0.0039l-0.34766 0.45508c-2.5668-1.2664-4.6467-3.3404-5.9121-5.9082l0.46094-0.3457c0.75472-0.56604 1.1992-1.457 1.1992-2.4004v-3c0-1.645-1.355-3-3-3zm0 2h3c0.56413 0 1 0.43587 1 1v3c0 0.31563-0.14788 0.6114-0.40039 0.80078l-0.4668 0.34961a1.0001 1.0001 0 0 0-0.0078125 0.0058594c-0.75221 0.57436-0.99871 1.6161-0.58398 2.4668a1.0001 1.0001 0 0 0 0.00195 2e-3c1.4642 2.974 3.8718 5.3793 6.8477 6.8398a1 1 0 0 0 0.01758-0.0059 1 1 0 0 0 0.0059 0.01758c0.8457 0.38839 1.8621 0.13499 2.4258-0.60547l0.35547-0.46484a1.0001 1.0001 0 0 0 0.0039-0.0059c0.18935-0.25248 0.48512-0.40036 0.80075-0.40036h3c0.56413 0 1 0.43587 1 1v3c0 0.56413-0.43587 1-1 1-9.4007 0-17-7.5993-17-17 0-0.56413 0.43587-1 1-1z" fill="#000" stop-color="#000000" stroke="none"/></svg>
