<svg class="lucide lucide-brush-cleaning-icon lucide-brush-cleaning" width="24" height="24" stroke-linecap="round" stroke-linejoin="round" stroke-width="2" version="1.1" viewBox="0 0 24 24" xmlns="http://www.w3.org/2000/svg"><path d="m14.758 17.029a1 1 0 0 0-0.72852 1.2129l1 4a1 1 0 0 0 1.2129 0.72852 1 1 0 0 0 0.72852-1.2129l-1-4a1 1 0 0 0-1.2129-0.72852z" stop-color="#000000"/><path d="m12 1c-0.72222 0-1.4579 0.23535-2.0391 0.75195-0.58118 0.51661-0.96094 1.3314-0.96094 2.248v5h-3c-1.645 0-3 1.355-3 3v0.99023c0 1.0927 0.90728 2 2 2a1 1 0 0 0 1-1 1 1 0 0 0-1-1v-0.99023c0-0.56413 0.43587-1 1-1h3c1.0927 0 2-0.90728 2-2v-5c0-0.41667 0.12024-0.60189 0.28906-0.75195 0.16882-0.15006 0.43316-0.24805 0.71094-0.24805s0.54212 0.097986 0.71094 0.24805c0.16882 0.15006 0.28906 0.33529 0.28906 0.75195v5c0 1.0927 0.90728 2 2 2h3c0.56413 0 1 0.43587 1 1v0.99023a1 1 0 0 0-1 1 1 1 0 0 0 1 1c1.0927 0 2-0.90728 2-2v-0.99023c0-1.645-1.355-3-3-3h-3v-5c0-0.91667-0.37976-1.7314-0.96094-2.248-0.58118-0.51661-1.3168-0.75195-2.0391-0.75195z" stop-color="#000000"/><path d="m5 13a1.0001 1.0001 0 0 0-0.96094 0.7207l-1.9727 6.7656a1.0001 1.0001 0 0 0-0.011719 0.04687c-0.29591 1.2351 0.67529 2.4675 1.9453 2.4668h16c1.27 6.65e-4 2.2412-1.2317 1.9453-2.4668a1.0001 1.0001 0 0 0-0.01172-0.04687l-1.9727-6.7656a1.0001 1.0001 0 0 0-0.96094-0.7207zm0.75 2h12.5l1.75 6h-16z" stop-color="#000000"/><path d="m9.2422 17.029a1 1 0 0 0-1.2129 0.72852l-1 4a1 1 0 0 0 0.72852 1.2129 1 1 0 0 0 1.2129-0.72852l1-4a1 1 0 0 0-0.72852-1.2129z" stop-color="#000000"/></svg>
