<svg class="lucide lucide-cloud-off-icon lucide-cloud-off" width="24" height="24" stroke-linecap="round" stroke-linejoin="round" stroke-width="2" version="1.1" viewBox="0 0 24 24" xmlns="http://www.w3.org/2000/svg"><path d="m1.293 1.293a1 1 0 0 0 0 1.4141l20 20a1 1 0 0 0 1.4141 0 1 1 0 0 0 0-1.4141l-20-20a1 1 0 0 0-1.4141 0z" stop-color="#000000"/><path d="m5.3223 4.8945c-3.6562 1.8905-4.8944 5.7254-4.0977 8.998 0.79675 3.2727 3.6593 6.1092 7.7754 6.1074h8.5c0.54118 3.91e-4 1.0797-0.07953 1.5977-0.23633a1 1 0 0 0 0.66602-1.2461 1 1 0 0 0-1.2461-0.66797c-0.32962 0.099779-0.67318 0.15064-1.0176 0.15039h-8.5c-3.2208 0.001363-5.2247-2.0854-5.832-4.5801-0.60734-2.4947 0.2132-5.2707 3.0742-6.75a1 1 0 0 0 0.42773-1.3477 1 1 0 0 0-1.3477-0.42773z" stop-color="#000000"/><path d="m10.143 4.0801a1 1 0 0 0-1.1328 0.8457 1 1 0 0 0 0.84766 1.1348c2.3179 0.33584 4.2243 1.9824 4.8945 4.2266a1.0001 1.0001 0 0 0 0.95898 0.71289h1.7891c2.6389-5.11e-4 4.3096 2.6907 3.1367 5.0547a1 1 0 0 0 0.45117 1.3418 1 1 0 0 0 1.3398-0.45117c1.7956-3.6192-0.88761-7.9461-4.9277-7.9453h-1.1621c-1.0678-2.5997-3.3761-4.5115-6.1953-4.9199z" stop-color="#000000"/></svg>
