<svg class="lucide lucide-reply-icon lucide-reply" width="24" height="24" stroke-linecap="round" stroke-linejoin="round" stroke-width="2" version="1.1" viewBox="0 0 24 24" xmlns="http://www.w3.org/2000/svg"><path d="m4 11a1 1 0 0 0-1 1 1 1 0 0 0 1 1h12c1.6687 0 3 1.3313 3 3v2a1 1 0 0 0 1 1 1 1 0 0 0 1-1v-2c0-2.7496-2.2504-5-5-5z" stop-color="#000000"/><path d="m9 6a1 1 0 0 0-0.70703 0.29297l-5 5a1.0001 1.0001 0 0 0 0 1.4141l5 5a1 1 0 0 0 1.4141 0 1 1 0 0 0 0-1.4141l-4.293-4.293 4.293-4.293a1 1 0 0 0 0-1.4141 1 1 0 0 0-0.70703-0.29297z" stop-color="#000000"/></svg>
