<svg class="lucide lucide-webcam-icon lucide-webcam" width="24" height="24" stroke-linecap="round" stroke-linejoin="round" stroke-width="2" version="1.1" viewBox="0 0 24 24" xmlns="http://www.w3.org/2000/svg"><path d="m12 1c-4.9587 0-9 4.0413-9 9 0 4.9587 4.0413 9 9 9 4.9587 0 9-4.0413 9-9 0-4.9587-4.0413-9-9-9zm0 2c3.8778 0 7 3.1222 7 7 0 3.8778-3.1222 7-7 7-3.8778 0-7-3.1222-7-7 0-3.8778 3.1222-7 7-7z" stop-color="#000000"/><path d="m12 6c-2.1973 0-4 1.8027-4 4 0 2.1973 1.8027 4 4 4 2.1973 0 4-1.8027 4-4 0-2.1973-1.8027-4-4-4zm0 2c1.1164 0 2 0.88359 2 2 0 1.1164-0.88359 2-2 2s-2-0.88359-2-2c0-1.1164 0.88359-2 2-2z" stop-color="#000000"/><path d="m7 21a1 1 0 0 0-1 1 1 1 0 0 0 1 1h10a1 1 0 0 0 1-1 1 1 0 0 0-1-1z" stop-color="#000000"/><path d="m12 17a1 1 0 0 0-1 1v4a1 1 0 0 0 1 1 1 1 0 0 0 1-1v-4a1 1 0 0 0-1-1z" stop-color="#000000"/></svg>
