<svg class="lucide lucide-wrench-icon lucide-wrench" width="24" height="24" fill="none" stroke="currentColor" stroke-linecap="round" stroke-linejoin="round" stroke-width="2" version="1.1" viewBox="0 0 24 24" xmlns="http://www.w3.org/2000/svg"><path d="m15.777 0.99609c-4.4707 0.14432-7.8319 4.7141-6.3594 9.1738l-7.5039 7.5039c-0.67597 0.67641-0.99455 1.5514-0.94727 2.3574 0.04731 0.80656 0.41528 1.5225 0.94727 2.0547 0.53198 0.53216 1.2462 0.89969 2.0527 0.94727 0.80654 0.04758 1.6826-0.26873 2.3594-0.94531l7.5039-7.5039c5.1307 1.6938 10.409-3.0355 8.9238-8.4355-0.15634-0.57065-0.65659-0.99855-1.1758-1.1074s-1.0839 0.050175-1.4805 0.44922l-3.0977 3.0957-1.5859-1.5859 3.0996-3.0977a1.0001 1.0001 0 0 0 2e-3 -0.00195c0.3959-0.39719 0.55441-0.95964 0.44526-1.4785-0.10915-0.51888-0.53941-1.0196-1.1094-1.1758-0.70562-0.1938-1.4021-0.2717-2.0742-0.25zm0.62109 2.1934-2.4062 2.4023a1.0001 1.0001 0 0 0-0.0059 0.00781c-0.7545 0.76974-0.7545 2.031 0 2.8008a1.0001 1.0001 0 0 0 0.0059 0.00586l1.6016 1.6016a1.0001 1.0001 0 0 0 0.0059 0.0059c0.76974 0.7545 2.031 0.7545 2.8008 0a1.0001 1.0001 0 0 0 0.0059-0.0059l2.4043-2.4043c0.31715 3.7014-3.2572 6.5896-6.8691 4.9551a1.0001 1.0001 0 0 0-1.1191 0.20508l-7.9102 7.9082c-0.32319 0.32309-0.5704 0.38032-0.82617 0.36523-0.25577-0.015088-0.54005-0.1474-0.75781-0.36523s-0.35023-0.50204-0.36523-0.75781c-0.015003-0.25578 0.042041-0.50309 0.36523-0.82617l7.9102-7.9102a1.0001 1.0001 0 0 0 0.20312-1.1191c-1.6348-3.6126 1.2547-7.1878 4.957-6.8691z" fill="#000" stop-color="#000000" stroke="none"/></svg>
