<svg class="lucide lucide-square-arrow-out-up-right-icon lucide-square-arrow-out-up-right" width="24" height="24" stroke-linecap="round" stroke-linejoin="round" stroke-width="2" version="1.1" viewBox="0 0 24 24" xmlns="http://www.w3.org/2000/svg"><path d="m5 2c-1.645 0-3 1.355-3 3v14c0 1.645 1.355 3 3 3h14c1.645 0 3-1.355 3-3v-6a1 1 0 0 0-1-1 1 1 0 0 0-1 1v6c0 0.56413-0.43587 1-1 1h-14c-0.56413 0-1-0.43587-1-1v-14c0-0.56413 0.43587-1 1-1h6a1 1 0 0 0 1-1 1 1 0 0 0-1-1z" stop-color="#000000"/><path d="m20.293 2.293-9 9a1 1 0 0 0 0 1.4141 1 1 0 0 0 1.4141 0l9-9a1 1 0 0 0 0-1.4141 1 1 0 0 0-1.4141 0z" stop-color="#000000"/><path d="m15 2a1 1 0 0 0-1 1 1 1 0 0 0 1 1h5v5a1 1 0 0 0 1 1 1 1 0 0 0 1-1v-6a1.0001 1.0001 0 0 0-1-1z" stop-color="#000000"/></svg>
