<svg class="lucide lucide-package-plus-icon lucide-package-plus" width="24" height="24" stroke-linecap="round" stroke-linejoin="round" stroke-width="2" version="1.1" viewBox="0 0 24 24" xmlns="http://www.w3.org/2000/svg"><path d="m16 15a1 1 0 0 0-1 1 1 1 0 0 0 1 1h6a1 1 0 0 0 1-1 1 1 0 0 0-1-1z" stop-color="#000000"/><path d="m19 12a1 1 0 0 0-1 1v6a1 1 0 0 0 1 1 1 1 0 0 0 1-1v-6a1 1 0 0 0-1-1z" stop-color="#000000"/><path d="m12 1.002c-0.51687 0-1.0337 0.13431-1.4961 0.40039l-7 4a1.0001 1.0001 0 0 0-0.0039063 0.0019532c-0.92587 0.53455-1.4989 1.5246-1.5 2.5938a1.0001 1.0001 0 0 0 0 0.0019531v8a1.0001 1.0001 0 0 0 0 2e-3c0.0011 1.0691 0.57413 2.0592 1.5 2.5938a1.0001 1.0001 0 0 0 0.00391 2e-3l7 4c0.92614 0.53289 2.0706 0.53241 2.9961-2e-3l-0.0039 0.0039 2-1.1406a1 1 0 0 0 0.37305-1.3633 1 1 0 0 0-1.3652-0.375l-2 1.1406a1.0001 1.0001 0 0 0-0.0039 2e-3c-0.31079 0.17944-0.68921 0.17944-1 0a1.0001 1.0001 0 0 0-0.0039-2e-3l-6.9961-3.9981c-0.30994-0.17894-0.499-0.5055-0.5-0.86328v-8c1e-3 -0.35778 0.19006-0.68434 0.5-0.86328l6.9961-3.998a1.0001 1.0001 0 0 0 0.003906-0.0019531c0.31079-0.17943 0.68921-0.17943 1 0a1.0001 1.0001 0 0 0 0.0039 0.00195l6.9961 3.998c0.30994 0.17894 0.499 0.5055 0.5 0.86328v2a1 1 0 0 0 1 1 1 1 0 0 0 1-1v-2a1.0001 1.0001 0 0 0 0-0.00195c-0.0011-1.0691-0.57413-2.0592-1.5-2.5938a1.0001 1.0001 0 0 0-0.0039-0.00195l-6.9961-3.9981c-0.46341-0.26755-0.9817-0.40234-1.5-0.40234z" stop-color="#000000"/><path d="m7.2383 3.3047a1 1 0 0 0-0.60547 0.46875 1 1 0 0 0 0.37109 1.3652l9 5.1484a1 1 0 0 0 1.3633-0.37109 1 1 0 0 0-0.37109-1.3633l-9-5.1504a1 1 0 0 0-0.75781-0.097656z" stop-color="#000000"/><path d="m3.0293 6.0352a1 1 0 0 0-0.60742 0.4668 1 1 0 0 0 0.37109 1.3652l8.709 5a1.0001 1.0001 0 0 0 0.99609 0l8.709-5a1 1 0 0 0 0.37109-1.3652 1 1 0 0 0-1.3652-0.36914l-8.2129 4.7148-8.2129-4.7148a1 1 0 0 0-0.75781-0.097656z" stop-color="#000000"/><path d="m12 11a1 1 0 0 0-1 1v10a1 1 0 0 0 1 1 1 1 0 0 0 1-1v-10a1 1 0 0 0-1-1z" stop-color="#000000"/></svg>
