<svg class="lucide lucide-share2-icon lucide-share-2" width="24" height="24" stroke-linecap="round" stroke-linejoin="round" stroke-width="2" version="1.1" viewBox="0 0 24 24" xmlns="http://www.w3.org/2000/svg"><path d="m18 1c-2.1973 0-4 1.8027-4 4s1.8027 4 4 4 4-1.8027 4-4-1.8027-4-4-4zm0 2c1.1164 0 2 0.88359 2 2s-0.88359 2-2 2-2-0.88359-2-2 0.88359-2 2-2z" stop-color="#000000"/><path d="m6 8c-2.1973 0-4 1.8027-4 4 0 2.1973 1.8027 4 4 4s4-1.8027 4-4c0-2.1973-1.8027-4-4-4zm0 2c1.1164 0 2 0.88359 2 2s-0.88359 2-2 2-2-0.88359-2-2 0.88359-2 2-2z" stop-color="#000000"/><path d="m18 15c-2.1973 0-4 1.8027-4 4s1.8027 4 4 4 4-1.8027 4-4-1.8027-4-4-4zm0 2c1.1164 0 2 0.88359 2 2s-0.88359 2-2 2-2-0.88359-2-2 0.88359-2 2-2z" stop-color="#000000"/><path d="m9.0938 12.646a1 1 0 0 0-1.3672 0.35938 1 1 0 0 0 0.35938 1.3672l6.8301 3.9805a1 1 0 0 0 1.3672-0.35938 1 1 0 0 0-0.35938-1.3672z" stop-color="#000000"/><path d="m14.906 5.6465-6.8203 3.9805a1 1 0 0 0-0.35938 1.3672 1 1 0 0 0 1.3672 0.35938l6.8203-3.9805a1 1 0 0 0 0.35937-1.3672 1 1 0 0 0-1.3672-0.35938z" stop-color="#000000"/></svg>
