<svg xmlns="http://www.w3.org/2000/svg" width="24" height="24" fill="none" stroke="currentColor" stroke-linecap="round" stroke-linejoin="round" stroke-width="2" class="lucide lucide-settings-icon lucide-settings"><path stroke="none" d="M11.78 1c-1.646 0-3 1.355-3 3v.18a1 1 0 0 1-.5.865h-.003l-.43.25a1 1 0 0 1-.997 0l-.03-.018-.12-.064a3.014 3.014 0 0 0-4.095 1.096l-.22.38h-.002a3.016 3.016 0 0 0 1.096 4.096l-.053-.033.15.1.055.035a1 1 0 0 1 .5.86v.507a1 1 0 0 1-.5.869l-.016.01-.136.082a3.016 3.016 0 0 0-1.096 4.096h.002l.22.38A3.014 3.014 0 0 0 6.7 18.787l.121-.064.03-.018a.99.99 0 0 1 1 0l.427.25h.002c.31.18.5.507.5.865V20c0 1.645 1.355 3 3 3h.442c1.645 0 3-1.355 3-3v-.18c0-.358.19-.686.5-.865h.002l.427-.25a.99.99 0 0 1 1 0l.03.018.12.064a3.014 3.014 0 0 0 4.095-1.096l.005-.01.217-.382v-.002a3.014 3.014 0 0 0-1.095-4.092l-.032-.018-.12-.064a1 1 0 0 1-.5-.87v-.507a1 1 0 0 1 .5-.87l.015-.009.137-.082a3.016 3.016 0 0 0 1.095-4.096h-.002l-.22-.38A3.014 3.014 0 0 0 17.3 5.213l-.121.064-.03.018a1 1 0 0 1-.998 0h-.002l-.427-.25h-.002a1 1 0 0 1-.5-.865V4c0-1.645-1.355-3-3-3zm0 2h.44c.565 0 1 .436 1 1v.182a3 3 0 0 0 1.5 2.593h-.003l.43.25h.003a3 3 0 0 0 3 0l-.029.018.15-.08.028-.018a.986.986 0 0 1 1.365.366l.219.378a.985.985 0 0 1-.363 1.366l-.014.007-.137.083a3 3 0 0 0-1.5 2.609v.492a3 3 0 0 0 1.5 2.61l.03.017.122.066a.984.984 0 0 1 .362 1.362l-.004.008-.215.38a.986.986 0 0 1-1.365.366l-.028-.018-.15-.08.03.018a3 3 0 0 0-3 0h-.004l-.43.25h.004a3 3 0 0 0-1.5 2.593V20c0 .564-.436 1-1 1h-.442c-.564 0-1-.436-1-1v-.182a3 3 0 0 0-1.5-2.593h.004l-.43-.25H8.85a3 3 0 0 0-3 0l.029-.018-.15.08-.028.018a.986.986 0 0 1-1.365-.366l-.219-.378a.985.985 0 0 1 .363-1.366l.014-.007.137-.083a3 3 0 0 0 1.5-2.609v-.512a3 3 0 0 0-1.5-2.58l.055.034-.15-.1-.056-.033a.985.985 0 0 1-.363-1.366l.219-.378A.986.986 0 0 1 5.7 6.945l.028.018.15.08-.03-.018a3 3 0 0 0 3 0h.005l.43-.25h-.005a3 3 0 0 0 1.5-2.593V4c0-.564.436-1 1-1" style="baseline-shift:baseline;display:inline;overflow:visible;vector-effect:none;fill:#000;stroke:none;stroke-linecap:butt;stroke-linejoin:miter;stop-color:#000;stop-opacity:1;opacity:1"/><path stroke="none" d="M12 8c-2.197 0-4 1.803-4 4s1.803 4 4 4 4-1.803 4-4-1.803-4-4-4m0 2c1.116 0 2 .884 2 2s-.884 2-2 2-2-.884-2-2 .884-2 2-2" style="baseline-shift:baseline;display:inline;overflow:visible;vector-effect:none;fill:#000;stroke:none;stroke-linecap:butt;stroke-linejoin:miter;stop-color:#000;stop-opacity:1;opacity:1"/></svg>