<svg class="lucide lucide-eye-icon lucide-eye" width="24" height="24" stroke-linecap="round" stroke-linejoin="round" stroke-width="2" version="1.1" viewBox="0 0 24 24" xmlns="http://www.w3.org/2000/svg"><path d="m12 4c-4.4192 0-8.8807 2.4642-10.863 7.2715a1.0001 1.0001 0 0 0-0.011719 0.033204c-0.1666 0.44881-0.1666 0.94181 0 1.3906a1 1 0 0 0 0.021484 0.0098 1 1 0 0 0-0.00977 0.02344c1.9826 4.8072 6.4441 7.2714 10.863 7.2714 4.4192 0 8.8807-2.4642 10.863-7.2715a1.0001 1.0001 0 0 0 0.01172-0.0332c0.1666-0.44881 0.1666-0.94181 0-1.3906a1.0001 1.0001 0 0 0-0.01172-0.0332c-1.9826-4.8073-6.4441-7.2715-10.863-7.2715zm0 2c3.6786 0 7.3122 1.9643 8.9941 6-1.6819 4.0357-5.3155 6-8.9941 6-3.6786 0-7.3122-1.9643-8.9941-6 1.6819-4.0357 5.3155-6 8.9941-6z" stop-color="#000000"/><path d="m12 8c-2.1973 0-4 1.8027-4 4 0 2.1973 1.8027 4 4 4 2.1973 0 4-1.8027 4-4 0-2.1973-1.8027-4-4-4zm0 2c1.1164 0 2 0.88359 2 2s-0.88359 2-2 2-2-0.88359-2-2 0.88359-2 2-2z" stop-color="#000000"/></svg>
