<svg class="lucide lucide-lock-open-icon lucide-lock-open" width="24" height="24" stroke-linecap="round" stroke-linejoin="round" stroke-width="2" version="1.1" viewBox="0 0 24 24" xmlns="http://www.w3.org/2000/svg"><path d="m5 10c-1.6447 0-3 1.3553-3 3v7c0 1.6447 1.3553 3 3 3h14c1.6447 0 3-1.3553 3-3v-7c0-1.6447-1.3553-3-3-3zm0 2h14c0.5713 0 1 0.4287 1 1v7c0 0.5713-0.4287 1-1 1h-14c-0.5713 0-1-0.4287-1-1v-7c0-0.5713 0.4287-1 1-1z" stop-color="#000000"/><path d="m11.396 1.0254c-2.7516 0.27794-5.4 2.4789-5.3965 5.9766v3.998a1 1 0 0 0 1 1 1 1 0 0 0 1-1v-4a1.0001 1.0001 0 0 0 0-0.00195c-0.00255-2.5356 1.6978-3.7905 3.5977-3.9824 1.8998-0.1919 3.8177 0.69868 4.3223 3.1836a1 1 0 0 0 1.1797 0.78125 1 1 0 0 0 0.78125-1.1797c-0.69602-3.4277-3.7328-5.0533-6.4844-4.7754z" stop-color="#000000"/></svg>
