<svg class="lucide lucide-hash-icon lucide-hash" width="24" height="24" stroke-linecap="round" stroke-linejoin="round" stroke-width="2" version="1.1" viewBox="0 0 24 24" xmlns="http://www.w3.org/2000/svg"><path d="m4 8a1 1 0 0 0-1 1 1 1 0 0 0 1 1h16a1 1 0 0 0 1-1 1 1 0 0 0-1-1z" stop-color="#000000"/><path d="m4 14a1 1 0 0 0-1 1 1 1 0 0 0 1 1h16a1 1 0 0 0 1-1 1 1 0 0 0-1-1z" stop-color="#000000"/><path d="m10.111 2.0059a1 1 0 0 0-1.1055 0.88281l-2 18a1 1 0 0 0 0.88281 1.1055 1 1 0 0 0 1.1055-0.88281l2-18a1 1 0 0 0-0.88281-1.1055z" stop-color="#000000"/><path d="m16.111 2.0059a1 1 0 0 0-1.1055 0.88281l-2 18a1 1 0 0 0 0.88281 1.1055 1 1 0 0 0 1.1055-0.88281l2-18a1 1 0 0 0-0.88281-1.1055z" stop-color="#000000"/></svg>
