<?xml version="1.0" encoding="UTF-8" standalone="no"?>
<svg
   width="24"
   height="24"
   viewBox="0 0 24 24"
   fill="none"
   stroke="currentColor"
   stroke-width="2"
   stroke-linecap="round"
   stroke-linejoin="round"
   class="lucide lucide-spool-icon lucide-spool"
   version="1.1"
   id="svg2"
   sodipodi:docname="lucide-thread-del.svg"
   xml:space="preserve"
   inkscape:version="1.4 (e7c3feb100, 2024-10-09)"
   xmlns:inkscape="http://www.inkscape.org/namespaces/inkscape"
   xmlns:sodipodi="http://sodipodi.sourceforge.net/DTD/sodipodi-0.dtd"
   xmlns="http://www.w3.org/2000/svg"
   xmlns:svg="http://www.w3.org/2000/svg"><defs
     id="defs2" /><sodipodi:namedview
     id="namedview2"
     pagecolor="#ffffff"
     bordercolor="#000000"
     borderopacity="0.25"
     inkscape:showpageshadow="2"
     inkscape:pageopacity="0.0"
     inkscape:pagecheckerboard="0"
     inkscape:deskcolor="#d1d1d1"
     inkscape:zoom="11.43156"
     inkscape:cx="14.083818"
     inkscape:cy="10.453517"
     inkscape:window-width="1158"
     inkscape:window-height="716"
     inkscape:window-x="0"
     inkscape:window-y="0"
     inkscape:window-maximized="0"
     inkscape:current-layer="svg2" /><path
     d="m 13.916381,11.08815 -9.9763099,2.893272 a 1.5888374,1.5888374 0 0 0 0.4289861,3.112533 H 15.505218 a 1.5888374,1.5888374 0 0 0 0.443286,-3.114916 L 15.062727,13.724825 A 1.5888374,1.5888374 0 0 1 13.916381,12.197952 V 6.4964096"
     id="path1"
     style="stroke-width:1.58884" /><path
     d="M 5.9721941,8.8002238 15.948504,5.9069509 A 1.5888374,1.5888374 0 0 0 15.519518,2.7944186 H 4.3833568 A 1.5888374,1.5888374 0 0 0 3.9400711,5.9093342 l 0.8857769,0.254214 a 1.5888374,1.5888374 0 0 1 1.1463461,1.5268727 v 5.7023371"
     id="path2"
     style="stroke-width:1.58884" /><g
     style="stroke-width:2;stroke-linecap:round;stroke-linejoin:round"
     id="g2"
     transform="translate(0.24165387,-0.13494684)"><g
       id="g3"
       transform="translate(-1.1372027,-0.61233989)"><path
         d="m 16.293,16.293 a 1,1 0 0 0 0,1.4141 l 5,5 a 1,1 0 0 0 1.4141,0 1,1 0 0 0 0,-1.4141 l -5,-5 a 1,1 0 0 0 -1.4141,0 z"
         stop-color="#000000"
         id="path3" /><path
         d="m 21.293,16.293 -5,5 a 1,1 0 0 0 0,1.4141 1,1 0 0 0 1.4141,0 l 5,-5 a 1,1 0 0 0 0,-1.4141 1,1 0 0 0 -1.4141,0 z"
         stop-color="#000000"
         id="path4" /></g></g></svg>
