<svg class="lucide lucide-volume-off-icon lucide-volume-off" width="24" height="24" stroke-linecap="round" stroke-linejoin="round" stroke-width="2" version="1.1" viewBox="0 0 24 24" xmlns="http://www.w3.org/2000/svg"><path d="m15.4 8.1992a1 1 0 0 0-0.20117 1.4004c0.40351 0.5379 0.66658 1.1683 0.76172 1.834a1 1 0 0 0 1.1309 0.84961 1 1 0 0 0 0.84766-1.1309c-0.14269-0.9984-0.53347-1.9452-1.1387-2.752a1 1 0 0 0-1.4004-0.20117z" stop-color="#000000"/><path d="m20.07 4.9277a1 1 0 0 0-1.4141 0.00195 1 1 0 0 0 0 1.4141c2.3288 2.3275 2.9946 5.835 1.6797 8.8535a1 1 0 0 0 0.51758 1.3164 1 1 0 0 0 1.3164-0.51758c1.6408-3.7667 0.80644-8.164-2.0996-11.068z" stop-color="#000000"/><path d="m1.293 1.293a1 1 0 0 0 0 1.4141l20 20a1 1 0 0 0 1.4141 0 1 1 0 0 0 0-1.4141l-20-20a1 1 0 0 0-1.4141 0z" stop-color="#000000"/><path d="m7 6a1 1 0 0 0-0.70703 0.29297l-0.58789 0.58789a1.0001 1.0001 0 0 0-0.00195 0.00195c-0.075653 0.076105-0.17785 0.11751-0.28516 0.11719a1.0001 1.0001 0 0 0-0.00195 0h-2.416c-1.0927 0-2 0.90728-2 2v6c0 1.0927 0.90728 2 2 2h2.416a1.0001 1.0001 0 0 0 0.00195 0c0.1073-3.15e-4 0.20951 0.04108 0.28516 0.11719a1.0001 1.0001 0 0 0 0.00195 2e-3l3.3828 3.3848c0.50709 0.50804 1.2771 0.61237 1.8594 0.37105 0.58226-0.24132 1.0537-0.8603 1.0527-1.5781v-8.2969a1 1 0 0 0-1-1 1 1 0 0 0-1 1v7.5859l-2.877-2.8789c-0.45193-0.45463-1.0699-0.70891-1.7109-0.70703h-2.4121v-6h2.4121c0.63953 0.0018746 1.2554-0.25245 1.707-0.70508l0.58789-0.58789a1 1 0 0 0 0-1.4141 1 1 0 0 0-0.70703-0.29297z" stop-color="#000000"/><path d="m10.012 3.0039c-0.32519 0.058945-0.64218 0.21153-0.89258 0.46289a1 1 0 0 0 0.0039063 1.4141 1 1 0 0 0 0.87695 0.2207v0.24219a1 1 0 0 0 1 1 1 1 0 0 0 1-1v-0.6875c1.6e-5 -0.70876-0.46561-1.3205-1.041-1.5586-0.28797-0.11917-0.62207-0.15269-0.94726-0.09375z" stop-color="#000000"/></svg>
