<svg class="lucide lucide-message-circle-more-icon lucide-message-circle-more" width="24" height="24" stroke-linecap="round" stroke-linejoin="round" stroke-width="2" version="1.1" viewBox="0 0 24 24" xmlns="http://www.w3.org/2000/svg"><path d="m12.531 0.95312c-2.4957-0.10141-4.9467 0.68554-6.9258 2.0977-3.9328 2.8062-6.1055 8.178-3.543 13.621a1 1 0 0 0 0 0.03906c0.072069 0.1818 0.084618 0.38097 0.044922 0.57227l-1.0371 3.207a1.0001 1.0001 0 0 0-0.029297 0.10742c-0.29088 1.4143 1.0771 2.7063 2.4727 2.3359a1.0001 1.0001 0 0 0 0.023437-0.0059l3.3438-0.97656c0.17901-0.03253 0.36291-0.01973 0.5332 0.04492l-0.068359-0.0293c5.5108 2.5736 10.906 0.31069 13.682-3.6816 2.7757-3.9923 3.0218-9.8393-1.2988-14.107-2.1603-2.1341-4.7016-3.1232-7.1973-3.2246zm-0.12695 1.9512c2.0209 0.071595 4.0884 0.88796 5.918 2.6953 3.6591 3.6147 3.3669 8.2314 1.0645 11.543-2.3024 3.3116-6.5259 5.1923-11.195 3.0117a1.0001 1.0001 0 0 0-0.068359-0.02734c-0.52564-0.19957-1.0969-0.24807-1.6484-0.13868a1.0001 1.0001 0 0 0-0.085937 0.02148l-3.3809 0.98829 1.0293-3.1816a1.0001 1.0001 0 0 0 0.025391-0.091797c0.12864-0.58441 0.079898-1.1957-0.14062-1.752a1 1 0 0 0-0.044922-0.01953 1 1 0 0 0 0.015625-0.04492c-2.2375-4.6424-0.40824-8.8878 2.875-11.23 1.6416-1.1714 3.6158-1.845 5.6367-1.7734zm-9.4043 18.096v2e-3l-0.023437 0.0059z" stop-color="#000000"/><path d="m8 11a1 1 0 0 0-1 1 1 1 0 0 0 1 1h0.00977a1 1 0 0 0 1-1 1 1 0 0 0-1-1z" stop-color="#000000"/><path d="m12 11a1 1 0 0 0-1 1 1 1 0 0 0 1 1h0.0098a1 1 0 0 0 1-1 1 1 0 0 0-1-1z" stop-color="#000000"/><path d="m16 11a1 1 0 0 0-1 1 1 1 0 0 0 1 1h0.0098a1 1 0 0 0 1-1 1 1 0 0 0-1-1z" stop-color="#000000"/></svg>
