<svg xmlns="http://www.w3.org/2000/svg" width="16" height="16" fill="none" stroke="currentColor" stroke-linecap="round" stroke-linejoin="round" stroke-width="2" class="lucide lucide-circle-question-mark-icon lucide-circle-question-mark" viewBox="0 0 24 24"><path stroke="none" d="M12 1C5.937 1 1 5.937 1 12s4.937 11 11 11 11-4.937 11-11S18.063 1 12 1Zm0 2c4.982 0 9 4.018 9 9s-4.018 9-9 9-9-4.018-9-9 4.018-9 9-9Z" style="baseline-shift:baseline;display:inline;overflow:visible;vector-effect:none;fill:#000;stroke:none;stroke-linecap:butt;stroke-linejoin:miter;enable-background:accumulate;stop-color:#000;stop-opacity:1;opacity:1"/><path stroke="none" d="M12.596 6.053c-1.727-.296-3.735.583-4.45 2.615a1 1 0 0 0 .612 1.275 1 1 0 0 0 1.275-.611c.406-1.154 1.316-1.464 2.225-1.309.909.156 1.664.752 1.662 1.975a1 1 0 0 0 0 .002c0 .5-.433 1.003-1.055 1.418-.622.415-1.261.633-1.261.633a1 1 0 0 0-.633 1.265 1 1 0 0 0 1.265.633s.86-.282 1.739-.867c.877-.585 1.944-1.581 1.945-3.08V10c.002-2.153-1.598-3.651-3.324-3.947ZM12 16a1 1 0 0 0-1 1 1 1 0 0 0 1 1h.01a1 1 0 0 0 1-1 1 1 0 0 0-1-1z" style="baseline-shift:baseline;display:inline;overflow:visible;vector-effect:none;fill:#000;stroke:none;stroke-linecap:butt;stroke-linejoin:miter;enable-background:accumulate;stop-color:#000;stop-opacity:1;opacity:1"/></svg>