<svg class="lucide lucide-save-icon lucide-save" width="24" height="24" stroke-linecap="round" stroke-linejoin="round" stroke-width="2" version="1.1" viewBox="0 0 24 24" xmlns="http://www.w3.org/2000/svg"><path d="m5 2c-1.645 0-3 1.355-3 3v14c0 1.645 1.355 3 3 3h14c1.645 0 3-1.355 3-3v-10.199a1.0001 1.0001 0 0 0 0-0.015625c-0.011266-0.79093-0.33542-1.546-0.90039-2.0996l-3.7852-3.7852c-0.55363-0.56498-1.3087-0.88912-2.0996-0.90039a1.0001 1.0001 0 0 0-0.01563 0zm0 2h10.186c0.26414 0.00376 0.51628 0.1121 0.70117 0.30078a1.0001 1.0001 0 0 0 0.0059 0.00586l3.8008 3.8008a1.0001 1.0001 0 0 0 0.0059 0.00586c0.1886 0.18489 0.29694 0.43703 0.3007 0.70117v10.186c0 0.56413-0.43587 1-1 1h-14c-0.56413 0-1-0.43587-1-1v-14c0-0.56413 0.43587-1 1-1z" stop-color="#000000"/><path d="m8 12c-1.0927 0-2 0.90728-2 2v7a1 1 0 0 0 1 1 1 1 0 0 0 1-1v-7h8v7a1 1 0 0 0 1 1 1 1 0 0 0 1-1v-7c0-1.0927-0.90728-2-2-2z" stop-color="#000000"/><path d="m7 2a1 1 0 0 0-1 1v4c0 1.0927 0.90728 2 2 2h7a1 1 0 0 0 1-1 1 1 0 0 0-1-1h-7v-4a1 1 0 0 0-1-1z" stop-color="#000000"/></svg>
