<svg class="lucide lucide-app-window-icon lucide-app-window" width="24" height="24" stroke-linecap="round" stroke-linejoin="round" stroke-width="2" version="1.1" viewBox="0 0 24 24" xmlns="http://www.w3.org/2000/svg"><path d="m4 3c-1.6447 0-3 1.3553-3 3v12c0 1.6447 1.3553 3 3 3h16c1.6447 0 3-1.3553 3-3v-12c0-1.6447-1.3553-3-3-3zm0 2h16c0.5713 0 1 0.4287 1 1v12c0 0.5713-0.4287 1-1 1h-16c-0.5713 0-1-0.4287-1-1v-12c0-0.5713 0.4287-1 1-1z" stop-color="#000000"/><path d="m10 3a1 1 0 0 0-1 1v4a1 1 0 0 0 1 1 1 1 0 0 0 1-1v-4a1 1 0 0 0-1-1z" stop-color="#000000"/><path d="m2 7a1 1 0 0 0-1 1 1 1 0 0 0 1 1h20a1 1 0 0 0 1-1 1 1 0 0 0-1-1z" stop-color="#000000"/><path d="m6 3a1 1 0 0 0-1 1v4a1 1 0 0 0 1 1 1 1 0 0 0 1-1v-4a1 1 0 0 0-1-1z" stop-color="#000000"/></svg>
