<svg class="lucide lucide-trash-icon lucide-trash" width="24" height="24" stroke-linecap="round" stroke-linejoin="round" stroke-width="2" version="1.1" viewBox="0 0 24 24" xmlns="http://www.w3.org/2000/svg"><path d="m5 5a1 1 0 0 0-1 1v14c0 1.645 1.355 3 3 3h10c1.645 0 3-1.355 3-3v-14a1 1 0 0 0-1-1 1 1 0 0 0-1 1v14c0 0.56413-0.43587 1-1 1h-10c-0.56413 0-1-0.43587-1-1v-14a1 1 0 0 0-1-1z" stop-color="#000000"/><path d="m3 5a1 1 0 0 0-1 1 1 1 0 0 0 1 1h18a1 1 0 0 0 1-1 1 1 0 0 0-1-1z" stop-color="#000000"/><path d="m10 1c-1.645 0-3 1.355-3 3v2a1 1 0 0 0 1 1 1 1 0 0 0 1-1v-2c0-0.56413 0.43587-1 1-1h4c0.56413 0 1 0.43587 1 1v2a1 1 0 0 0 1 1 1 1 0 0 0 1-1v-2c0-1.645-1.355-3-3-3z" stop-color="#000000"/></svg>
