<svg xmlns="http://www.w3.org/2000/svg" width="24" height="24" fill="none" stroke="currentColor" stroke-linecap="round" stroke-linejoin="round" stroke-width="2" class="lucide lucide-square-pen-icon lucide-square-pen"><path stroke="none" d="M5 2C3.355 2 2 3.355 2 5v14c0 1.645 1.355 3 3 3h14c1.645 0 3-1.355 3-3v-7a1 1 0 0 0-1-1 1 1 0 0 0-1 1v7c0 .564-.436 1-1 1H5c-.564 0-1-.436-1-1V5c0-.564.436-1 1-1h7a1 1 0 0 0 1-1 1 1 0 0 0-1-1Z" style="baseline-shift:baseline;display:inline;overflow:visible;vector-effect:none;fill:#000;stroke:none;stroke-linecap:butt;stroke-linejoin:miter;enable-background:accumulate;stop-color:#000;stop-opacity:1;opacity:1"/><path stroke="none" d="M20.027.97c-.806-.047-1.682.271-2.359.948l-9.012 9.014a3 3 0 0 0-.76 1.277 1 1 0 0 0 0 .002l-.84 2.873c-.316 1.086.774 2.176 1.86 1.86l2.873-.84a3 3 0 0 0 1.28-.758l9.013-9.014c.677-.677.995-1.553.947-2.36a3.177 3.177 0 0 0-.947-2.054 3.177 3.177 0 0 0-2.055-.947Zm-.117 1.997c.256.015.54.147.758.365.218.218.35.502.365.758.015.256-.042.505-.365.828l-9.014 9.014a.996.996 0 0 1-.425.252l-1.997.584.584-1.995v-.002a.997.997 0 0 1 .252-.423 1 1 0 0 0 0-.002l9.014-9.014c.323-.323.572-.38.828-.365Z" style="baseline-shift:baseline;display:inline;overflow:visible;vector-effect:none;fill:#000;stroke:none;stroke-linecap:butt;stroke-linejoin:miter;enable-background:accumulate;stop-color:#000;stop-opacity:1;opacity:1"/></svg>