<svg class="lucide lucide-shield-off-icon lucide-shield-off" width="24" height="24" stroke-linecap="round" stroke-linejoin="round" stroke-width="2" version="1.1" viewBox="0 0 24 24" xmlns="http://www.w3.org/2000/svg"><path d="m1.293 1.293a1 1 0 0 0 0 1.4141l20 20a1 1 0 0 0 1.4141 0 1 1 0 0 0 0-1.4141l-20-20a1 1 0 0 0-1.4141 0z" stop-color="#000000"/><path d="m5 4c-1.0927 0-2 0.90728-2 2v7c0 2.7333 1.001 4.9107 2.5566 6.5039 1.5512 1.5887 3.6041 2.6234 5.7695 3.373 0.42938 0.15847 0.9004 0.16646 1.334 0.01953a1.0001 1.0001 0 0 0 0.0098-2e-3c2.4471-0.85389 4.7525-2.0692 6.3457-4.0215a1 1 0 0 0-0.14258-1.4082 1 1 0 0 0-1.4082 0.14258c-1.2448 1.5254-3.1968 2.6087-5.4453 3.3945a1.0001 1.0001 0 0 0-0.02344-0.0078c-1.9979-0.68986-3.7729-1.6218-5.0098-2.8886s-1.9863-2.8388-1.9863-5.1055v-7a1 1 0 0 0 1-1 1 1 0 0 0-1-1z" stop-color="#000000"/><path d="m12 1.0039c-0.50319 1e-7 -1.007 0.17115-1.4102 0.51562a1.0001 1.0001 0 0 0-0.0059 0.00586c-0.54901 0.4763-1.143 0.89802-1.7734 1.2598a1 1 0 0 0-0.36914 1.3652 1 1 0 0 0 1.3652 0.36914c0.7425-0.42604 1.4413-0.92342 2.0879-1.4844l-0.0059 0.00586c0.06897-0.058923 0.15369-0.058923 0.22266 0 1.9096 1.6664 4.4959 2.959 6.8887 2.959v7a1.0001 1.0001 0 0 0 0 2e-3c5.93e-4 0.37942-0.02384 0.75844-0.07227 1.1348a1 1 0 0 0 0.86524 1.1191 1 1 0 0 0 1.1191-0.86328c0.059455-0.46205 0.088623-0.92876 0.087895-1.3946v-6.998c0-1.0927-0.90728-2-2-2-1.6033 0-3.9925-1.0829-5.582-2.4727a1.0001 1.0001 0 0 0-0.0078-0.00781c-0.4032-0.34447-0.90698-0.51563-1.4102-0.51563z" stop-color="#000000"/></svg>
