<svg class="lucide lucide-user-cog-icon lucide-user-cog" width="24" height="24" fill="none" stroke="currentColor" stroke-linecap="round" stroke-linejoin="round" stroke-width="2" version="1.1" viewBox="0 0 24 24" xmlns="http://www.w3.org/2000/svg"><path d="M10 15H6a4 4 0 0 0-4 4v2"/><path d="m14.305 16.53.923-.382"/><path d="m15.228 13.852-.923-.383"/><path d="m16.852 12.228-.383-.923"/><path d="m16.852 17.772-.383.924"/><path d="m19.148 12.228.383-.923"/><path d="m19.53 18.696-.382-.924"/><path d="m20.772 13.852.924-.383"/><path d="m20.772 16.148.924.383"/><path d="m21 15a3 3 0 0 1-3 3 3 3 0 0 1-3-3 3 3 0 0 1 3-3 3 3 0 0 1 3 3z"/><path d="m13 7a4 4 0 0 1-4 4 4 4 0 0 1-4-4 4 4 0 0 1 4-4 4 4 0 0 1 4 4z"/></svg>
