<svg class="lucide lucide-pause-icon lucide-pause" width="24" height="24" stroke-linecap="round" stroke-linejoin="round" stroke-width="2" version="1.1" viewBox="0 0 24 24" xmlns="http://www.w3.org/2000/svg"><path d="m15 2c-1.0907 0-2 0.9093-2 2v16c0 1.0907 0.9093 2 2 2h3c1.0907 0 2-0.9093 2-2v-16c0-1.0907-0.9093-2-2-2zm0 2h3v16h-3z" stop-color="#000000"/><path d="m6 2c-1.0907 0-2 0.9093-2 2v16c0 1.0907 0.9093 2 2 2h3c1.0907 0 2-0.9093 2-2v-16c0-1.0907-0.9093-2-2-2zm0 2h3v16h-3z" stop-color="#000000"/></svg>
