<svg xmlns="http://www.w3.org/2000/svg" width="16" height="16" fill="none" stroke="currentColor" stroke-linecap="round" stroke-linejoin="round" class="lucide lucide-settings-icon lucide-settings" viewBox="0 0 24 24"><path stroke="none" d="M11.78 1.5A2.51 2.51 0 0 0 9.28 4v.18c-.001.536-.286 1.028-.75 1.297v.002l-.43.25v-.002a1.5 1.5 0 0 1-1.5 0l-.014-.008-.137-.073a2.507 2.507 0 0 0-3.412.913l-.22.38a2.51 2.51 0 0 0 .91 3.413l.002.002.125.082.027.017c.462.267.747.756.75 1.29v.509a1.5 1.5 0 0 1-.75 1.305l-.008.004-.144.086a2.51 2.51 0 0 0-.913 3.414l.221.38a2.507 2.507 0 0 0 3.412.913l.137-.073.014-.008a1.5 1.5 0 0 1 1.5 0v-.002l.43.25v.002c.464.269.749.761.75 1.297V20c0 1.375 1.125 2.5 2.5 2.5h.44c1.375 0 2.5-1.125 2.5-2.5v-.18c.001-.536.286-1.028.75-1.297v-.002l.43-.25v.002a1.5 1.5 0 0 1 1.5 0l.014.008.137.073a2.507 2.507 0 0 0 3.412-.913l.002-.006.219-.384v-.004a2.51 2.51 0 0 0-.912-3.41l-.016-.008-.137-.072a1.5 1.5 0 0 1-.75-1.305v-.504a1.5 1.5 0 0 1 .75-1.305l.008-.004.145-.086a2.51 2.51 0 0 0 .912-3.414l-.221-.38a2.507 2.507 0 0 0-3.412-.913l-.137.073-.014.008a1.5 1.5 0 0 1-1.5 0v.002l-.43-.25v-.002a1.5 1.5 0 0 1-.75-1.297V4c0-1.375-1.125-2.5-2.5-2.5zm0 1h.44c.835 0 1.5.666 1.5 1.5v.18c.002.89.478 1.716 1.249 2.162l.002.002.427.248.002.002a2.5 2.5 0 0 0 2.499 0h.002l.134-.073.016-.007a1.49 1.49 0 0 1 2.047.547l.219.38c.414.722.173 1.63-.547 2.047l-.006.004-.15.09a2.5 2.5 0 0 0-1.245 2.17v.496a2.5 2.5 0 0 0 1.25 2.176l.016.008.137.072c.719.418.96 1.326.545 2.047l-.002.004-.217.384h-.002a1.49 1.49 0 0 1-2.045.547l-.016-.007-.135-.073h-.002a2.5 2.5 0 0 0-2.498 0l-.002.002-.427.248-.002.002a2.5 2.5 0 0 0-1.248 2.162V20c0 .834-.666 1.5-1.5 1.5h-.442c-.834 0-1.5-.666-1.5-1.5v-.18c0-.89-.477-1.716-1.248-2.162l-.002-.002-.427-.248-.002-.002a2.5 2.5 0 0 0-2.498 0l-.137.072-.016.008a1.49 1.49 0 0 1-2.047-.547l-.218-.379v-.002a1.493 1.493 0 0 1 .546-2.046l.006-.004.15-.09a2.5 2.5 0 0 0 1.245-2.17v-.512a2.5 2.5 0 0 0-1.25-2.148l.027.015-.15-.1-.028-.015a1.493 1.493 0 0 1-.546-2.047V7.44l.218-.378a1.49 1.49 0 0 1 2.047-.547l.016.007.135.073h.002a2.5 2.5 0 0 0 2.498 0l.002-.002.427-.248.002-.002A2.5 2.5 0 0 0 10.28 4.18V4c0-.834.666-1.5 1.5-1.5" style="baseline-shift:baseline;display:inline;overflow:visible;vector-effect:none;fill:#000;stroke:none;stroke-linecap:butt;stroke-linejoin:miter;stop-color:#000;stop-opacity:1;opacity:1"/><path stroke="none" d="M12 8.5A3.51 3.51 0 0 0 8.5 12c0 1.927 1.573 3.5 3.5 3.5s3.5-1.573 3.5-3.5-1.573-3.5-3.5-3.5m0 1c1.387 0 2.5 1.113 2.5 2.5s-1.113 2.5-2.5 2.5A2.49 2.49 0 0 1 9.5 12c0-1.387 1.113-2.5 2.5-2.5" style="baseline-shift:baseline;display:inline;overflow:visible;vector-effect:none;fill:#000;stroke:none;stroke-linecap:butt;stroke-linejoin:miter;stop-color:#000;stop-opacity:1;opacity:1"/></svg>