<svg class="lucide lucide-play-icon lucide-play" width="24" height="24" fill="none" stroke="currentColor" stroke-linecap="round" stroke-linejoin="round" stroke-width="2" version="1.1" viewBox="0 0 24 24" xmlns="http://www.w3.org/2000/svg"><path d="m6.9805 2.0117c-1.5445 0.036905-2.981 1.2878-2.9805 2.9883v14c-6.72e-4 2.2673 2.5534 3.7345 4.5117 2.5918l12-7c1.9466-1.1341 1.9449-4.0533-2e-3 -5.1855l-11.998-6.998c-0.48957-0.28568-1.0164-0.40879-1.5313-0.39648zm-0.49414 2.0937c0.28743-0.16512 0.66318-0.17751 1.0176 0.029297a1.0001 1.0001 0 0 0 0 0.00195l11.998 6.9961a1.0001 1.0001 0 0 0 2e-3 2e-3c0.70452 0.4088 0.70381 1.3185 0 1.7285l-12 7a1.0001 1.0001 0 0 0 0 2e-3c-0.70885 0.41352-1.5042-0.044677-1.504-0.86533v-14c-1.216e-4 -0.41033 0.1989-0.72941 0.48633-0.89453z" fill="#000" stop-color="#000000" stroke="none"/></svg>
