<svg class="lucide lucide-square-asterisk-icon lucide-square-asterisk" width="24" height="24" stroke-linecap="round" stroke-linejoin="round" stroke-width="2" version="1.1" viewBox="0 0 24 24" xmlns="http://www.w3.org/2000/svg"><path d="m5 2c-1.6447 0-3 1.3553-3 3v14c0 1.6447 1.3553 3 3 3h14c1.6447 0 3-1.3553 3-3v-14c0-1.6447-1.3553-3-3-3zm0 2h14c0.5713 0 1 0.4287 1 1v14c0 0.5713-0.4287 1-1 1h-14c-0.5713 0-1-0.4287-1-1v-14c0-0.5713 0.4287-1 1-1z" stop-color="#000000"/><path d="m12 7a1 1 0 0 0-1 1v8a1 1 0 0 0 1 1 1 1 0 0 0 1-1v-8a1 1 0 0 0-1-1z" stop-color="#000000"/><path d="m15.764 9.0352a1 1 0 0 0-0.75977 0.095703l-7 4a1 1 0 0 0-0.37305 1.3652 1 1 0 0 0 1.3652 0.37305l7-4a1 1 0 0 0 0.37305-1.3652 1 1 0 0 0-0.60547-0.46875z" stop-color="#000000"/><path d="m8.2363 9.0352a1 1 0 0 0-0.60547 0.46875 1 1 0 0 0 0.37305 1.3652l7 4a1 1 0 0 0 1.3652-0.37305 1 1 0 0 0-0.37305-1.3652l-7-4a1 1 0 0 0-0.75977-0.095703z" stop-color="#000000"/></svg>
