<?xml version="1.0" encoding="UTF-8" standalone="no"?>
<svg
   width="24"
   height="24"
   viewBox="0 0 24 24"
   fill="none"
   stroke="currentColor"
   stroke-width="2"
   stroke-linecap="round"
   stroke-linejoin="round"
   class="lucide lucide-user-cog"
   version="1.1"
   id="svg10"
   sodipodi:docname="user-cog.svg"
   inkscape:version="1.4 (e7c3feb100, 2024-10-09)"
   xmlns:inkscape="http://www.inkscape.org/namespaces/inkscape"
   xmlns:sodipodi="http://sodipodi.sourceforge.net/DTD/sodipodi-0.dtd"
   xmlns="http://www.w3.org/2000/svg"
   xmlns:svg="http://www.w3.org/2000/svg">
  <defs
     id="defs10" />
  <sodipodi:namedview
     id="namedview10"
     pagecolor="#ffffff"
     bordercolor="#666666"
     borderopacity="1.0"
     inkscape:showpageshadow="2"
     inkscape:pageopacity="0.0"
     inkscape:pagecheckerboard="0"
     inkscape:deskcolor="#d1d1d1"
     inkscape:zoom="32.333333"
     inkscape:cx="12"
     inkscape:cy="12"
     inkscape:window-width="1920"
     inkscape:window-height="1005"
     inkscape:window-x="0"
     inkscape:window-y="0"
     inkscape:window-maximized="1"
     inkscape:current-layer="svg10" />
  <path
     style="fill:#000000;stroke:none"
     d="m 18,11 c -2.197294,0 -4,1.802706 -4,4 0,2.197294 1.802706,4 4,4 2.197294,0 4,-1.802706 4,-4 0,-2.197294 -1.802706,-4 -4,-4 z m 0,2 c 1.116414,0 2,0.883586 2,2 0,1.116414 -0.883586,2 -2,2 -1.116414,0 -2,-0.883586 -2,-2 0,-1.116414 0.883586,-2 2,-2 z"
     id="circle1" />
  <path
     style="fill:#000000;stroke:none"
     d="M 9,2 C 6.2504209,2 4,4.2504209 4,7 4,9.7495791 6.2504209,12 9,12 11.749579,12 14,9.7495791 14,7 14,4.2504209 11.749579,2 9,2 Z m 0,2 c 1.668699,0 3,1.3313011 3,3 0,1.6686989 -1.331301,3 -3,3 C 7.3313011,10 6,8.6686989 6,7 6,5.3313011 7.3313011,4 9,4 Z"
     id="circle2" />
  <path
     style="fill:#000000;stroke:none"
     d="m 6,14 c -2.7495791,0 -5,2.250421 -5,5 v 2 a 1,1 0 0 0 1,1 1,1 0 0 0 1,-1 v -2 c 0,-1.668699 1.3313011,-3 3,-3 h 4 a 1,1 0 0 0 1,-1 1,1 0 0 0 -1,-1 z"
     id="path2" />
  <path
     style="fill:#000000;stroke:none"
     d="m 21.117187,15.150391 a 1,1 0 0 0 -1.265625,0.632812 1,1 0 0 0 0.632813,1.265625 l 0.898437,0.300781 a 1,1 0 0 0 1.265625,-0.632812 1,1 0 0 0 -0.632812,-1.265625 z"
     id="path3" />
  <path
     style="fill:#000000;stroke:none"
     d="m 14.617188,12.650391 a 1,1 0 0 0 -1.265625,0.632812 1,1 0 0 0 0.632812,1.265625 l 0.898438,0.300781 a 1,1 0 0 0 1.265624,-0.632812 1,1 0 0 0 -0.632812,-1.265625 z"
     id="path4" />
  <path
     style="fill:#000000;stroke:none"
     d="m 17.216797,16.851562 a 1,1 0 0 0 -1.265625,0.632813 l -0.300781,0.898437 a 1,1 0 0 0 0.632812,1.265625 1,1 0 0 0 1.265625,-0.632812 l 0.300781,-0.898438 a 1,1 0 0 0 -0.632812,-1.265625 z"
     id="path5" />
  <path
     style="fill:#000000;stroke:none"
     d="m 19.716797,10.351563 a 1,1 0 0 0 -1.265625,0.632812 l -0.300781,0.898438 a 1,1 0 0 0 0.632812,1.265625 1,1 0 0 0 1.265625,-0.632813 l 0.300781,-0.898437 a 1,1 0 0 0 -0.632812,-1.265625 z"
     id="path6" />
  <path
     style="fill:#000000;stroke:none"
     d="m 18.828125,16.771484 a 1,1 0 0 0 -0.556641,1.300782 l 0.400391,1 a 1,1 0 0 0 1.298828,0.55664 1,1 0 0 0 0.558594,-1.300781 l -0.400391,-1 a 1,1 0 0 0 -1.300781,-0.556641 z"
     id="path7" />
  <path
     style="fill:#000000;stroke:none"
     d="m 16.029297,10.371094 a 1,1 0 0 0 -0.558594,1.300781 l 0.400391,1 a 1,1 0 0 0 1.300781,0.556641 1,1 0 0 0 0.556641,-1.300782 l -0.400391,-1 a 1,1 0 0 0 -1.298828,-0.55664 z"
     id="path8" />
  <path
     style="fill:#000000;stroke:none"
     d="m 14.927734,15.271484 -1,0.400391 a 1,1 0 0 0 -0.55664,1.298828 1,1 0 0 0 1.300781,0.558594 l 1,-0.400391 a 1,1 0 0 0 0.556641,-1.300781 1,1 0 0 0 -1.300782,-0.556641 z"
     id="path9" />
  <path
     style="fill:#000000;stroke:none"
     d="m 21.328125,12.470703 -1,0.400391 a 1,1 0 0 0 -0.556641,1.300781 1,1 0 0 0 1.300782,0.556641 l 1,-0.400391 a 1,1 0 0 0 0.55664,-1.298828 1,1 0 0 0 -1.300781,-0.558594 z"
     id="path10" />
</svg>
