<svg class="lucide lucide-mail-icon lucide-mail" width="24" height="24" stroke-linecap="round" stroke-linejoin="round" stroke-width="2" version="1.1" viewBox="0 0 24 24" xmlns="http://www.w3.org/2000/svg"><path d="m1.7832 6.0234a1 1 0 0 0-0.62695 0.43945 1 1 0 0 0 0.30664 1.3809l9 5.7266a1.0001 1.0001 0 0 0 0.03516 0.02148c0.93021 0.54028 2.0835 0.54028 3.0137 0a1.0001 1.0001 0 0 0 0.03516-0.02148l8.9902-5.7266a1 1 0 0 0 0.30664-1.3809 1 1 0 0 0-1.3809-0.30664l-8.957 5.7051c-0.31136 0.18084-0.69033 0.18014-1.002 0h-2e-3l-8.9648-5.7051a1 1 0 0 0-0.75391-0.13281z" stop-color="#000000"/><path d="m4 3c-1.6447 0-3 1.3553-3 3v12c0 1.6447 1.3553 3 3 3h16c1.6447 0 3-1.3553 3-3v-12c0-1.6447-1.3553-3-3-3zm0 2h16c0.5713 0 1 0.4287 1 1v12c0 0.5713-0.4287 1-1 1h-16c-0.5713 0-1-0.4287-1-1v-12c0-0.5713 0.4287-1 1-1z" stop-color="#000000"/></svg>
