<svg class="lucide lucide-minimize2-icon lucide-minimize-2" width="24" height="24" stroke-linecap="round" stroke-linejoin="round" stroke-width="2" version="1.1" viewBox="0 0 24 24" xmlns="http://www.w3.org/2000/svg"><path d="m20.293 2.293-7 7a1 1 0 0 0 0 1.4141 1 1 0 0 0 1.4141 0l7-7a1 1 0 0 0 0-1.4141 1 1 0 0 0-1.4141 0z" stop-color="#000000"/><path d="m14 3a1 1 0 0 0-1 1v6a1.0001 1.0001 0 0 0 1 1h6a1 1 0 0 0 1-1 1 1 0 0 0-1-1h-5v-5a1 1 0 0 0-1-1z" stop-color="#000000"/><path d="m10 13a1 1 0 0 0-0.70703 0.29297l-7 7a1 1 0 0 0 0 1.4141 1 1 0 0 0 1.4141 0l7-7a1 1 0 0 0 0-1.4141 1 1 0 0 0-0.70703-0.29297z" stop-color="#000000"/><path d="m4 13a1 1 0 0 0-1 1 1 1 0 0 0 1 1h5v5a1 1 0 0 0 1 1 1 1 0 0 0 1-1v-6a1.0001 1.0001 0 0 0-1-1z" stop-color="#000000"/></svg>
