<svg class="lucide lucide-phone-off-icon lucide-phone-off" width="24" height="24" stroke-linecap="round" stroke-linejoin="round" stroke-width="2" version="1.1" viewBox="0 0 24 24" xmlns="http://www.w3.org/2000/svg"><path d="m9.3926 13.193a1 1 0 0 0 0 1.4141c1.1666 1.1662 2.5171 2.1309 3.998 2.8574a1.0001 1.0001 0 0 0 0.02344 0.01172c0.8457 0.38839 1.8621 0.13499 2.4258-0.60547l0.35547-0.46484a1.0001 1.0001 0 0 0 0.0039-0.0059c0.18938-0.25247 0.48515-0.40035 0.80079-0.40035h3c0.56413 0 1 0.43587 1 1v3c0 0.56413-0.43587 1-1 1-4.5091 3.9e-5 -8.8331-1.7901-12.021-4.9785a1 1 0 0 0-1.4141 0 1 1 0 0 0 0 1.4141c3.563 3.5629 8.3968 5.5645 13.436 5.5645 1.645 0 3-1.355 3-3v-3c0-1.645-1.355-3-3-3h-3c-0.94057 0-1.8283 0.44275-2.3945 1.1934l-2e-3 2e-3c-0.0011 0.0015-0.0028 0.0024-0.0039 0.0039l-0.34766 0.45703c-1.2751-0.62843-2.4399-1.4578-3.4453-2.4629a1 1 0 0 0-1.4141 0z" stop-color="#000000"/><path d="m21.293 1.293-20 20a1 1 0 0 0 0 1.4141 1 1 0 0 0 1.4141 0l20-20a1 1 0 0 0 0-1.4141 1 1 0 0 0-1.4141 0z" stop-color="#000000"/><path d="m4 1c-1.645 0-3 1.355-3 3-7.503e-4 3.5785 1.0099 7.0835 2.9141 10.113a1 1 0 0 0 1.3789 0.31445 1 1 0 0 0 0.31445-1.377c-1.7038-2.711-2.6081-5.8489-2.6074-9.0508 0-0.56413 0.43587-1 1-1h3c0.56413 0 1 0.43587 1 1v3c0 0.31563-0.14788 0.6114-0.40039 0.80078l-0.4668 0.34961a1.0001 1.0001 0 0 0-0.0078125 0.0058594c-0.75221 0.57436-0.99871 1.6161-0.58398 2.4668a1.0001 1.0001 0 0 0 0.00195 2e-3c0.083924 0.17057 0.17137 0.34056 0.26172 0.50781a1 1 0 0 0 1.3555 0.4043 1 1 0 0 0 0.4043-1.3555c-0.077605-0.14372-0.15247-0.2891-0.22461-0.43559l0.46094-0.3457c0.75472-0.56604 1.1992-1.457 1.1992-2.4004v-3c0-1.645-1.355-3-3-3z" stop-color="#000000"/></svg>
