<svg class="lucide lucide-eye-off-icon lucide-eye-off" width="24" height="24" stroke-linecap="round" stroke-linejoin="round" stroke-width="2" version="1.1" viewBox="0 0 24 24" xmlns="http://www.w3.org/2000/svg"><path d="m10.615 4.084a1 1 0 0 0-0.875 1.1094 1 1 0 0 0 1.1113 0.875c4.3336-0.51645 8.4655 1.9058 10.143 5.9316-0.33142 0.79418-0.76343 1.5446-1.291 2.2246a1 1 0 0 0 0.17773 1.4023 1 1 0 0 0 1.4023-0.17773c0.64578-0.83235 1.1784-1.7468 1.5801-2.7207a1.0001 1.0001 0 0 0 0.01172-0.0332c0.1666-0.44881 0.1666-0.94377 0-1.3926a1.0001 1.0001 0 0 0-0.01172-0.0332c-2.006-4.868-7.02-7.8086-12.248-7.1856z" stop-color="#000000"/><path d="m10.537 9.1973a1 1 0 0 0-1.4141 0.023438c-0.85539 0.88565-1.2326 1.985-1.166 3 0.066573 1.015 0.53443 1.927 1.2148 2.6074s1.5924 1.1483 2.6074 1.2148c1.015 0.06657 2.1144-0.31063 3-1.166a1 1 0 0 0 0.02344-1.4141 1 1 0 0 0-1.4141-0.02344c-0.52814 0.5101-1.0064 0.63839-1.4785 0.60742-0.47213-0.03097-0.95621-0.26481-1.3242-0.63281-0.36801-0.36801-0.60185-0.85209-0.63281-1.3242s0.097326-0.95038 0.60742-1.4785a1 1 0 0 0-0.02344-1.4141z" stop-color="#000000"/><path d="m5.998 5.6484c-2.1852 1.2987-3.8923 3.273-4.8613 5.623a1.0001 1.0001 0 0 0-0.011719 0.033204c-0.1666 0.44881-0.1666 0.94181 0 1.3906a1.0001 1.0001 0 0 0 0.011719 0.0332c2.7221 6.6014 10.708 9.2701 16.852 5.6309a1 1 0 0 0 0.35156-1.3691 1 1 0 0 0-1.3711-0.35156c-5.1151 3.03-11.675 0.84084-13.961-4.6406 0.8069-1.9333 2.2102-3.5582 4.0117-4.6289a1 1 0 0 0 0.34766-1.3711 1 1 0 0 0-1.3691-0.34961z" stop-color="#000000"/><path d="m1.293 1.293a1 1 0 0 0 0 1.4141l20 20a1 1 0 0 0 1.4141 0 1 1 0 0 0 0-1.4141l-20-20a1 1 0 0 0-1.4141 0z" stop-color="#000000"/></svg>
