<svg class="lucide lucide-clipboard-paste-icon lucide-clipboard-paste" width="24" height="24" stroke-linecap="round" stroke-linejoin="round" stroke-width="2" version="1.1" viewBox="0 0 24 24" xmlns="http://www.w3.org/2000/svg"><path d="m11 13a1 1 0 0 0-1 1 1 1 0 0 0 1 1h10a1 1 0 0 0 1-1 1 1 0 0 0-1-1z" stop-color="#000000"/><path d="m16 3a1 1 0 0 0-1 1 1 1 0 0 0 1 1h2c0.56413 0 1 0.43587 1 1v1.3438a1 1 0 0 0 1 1 1 1 0 0 0 1-1v-1.3438c0-1.645-1.355-3-3-3z" stop-color="#000000"/><path d="m16.293 9.293a1 1 0 0 0 0 1.4141l3.293 3.293-3.293 3.293a1 1 0 0 0 0 1.4141 1 1 0 0 0 1.4141 0l4-4a1.0001 1.0001 0 0 0 0-1.4141l-4-4a1 1 0 0 0-1.4141 0z" stop-color="#000000"/><path d="m6 3c-1.645 0-3 1.355-3 3v14c0 1.645 1.355 3 3 3h12c1.1389 2.57e-4 2.1844-0.64916 2.6895-1.6699a1 1 0 0 0-0.45312-1.3398 1 1 0 0 0-1.3398 0.45312c-0.16964 0.34283-0.51398 0.55673-0.89648 0.55664h-12c-0.56413 0-1-0.43587-1-1v-14c0-0.56413 0.43587-1 1-1h2a1 1 0 0 0 1-1 1 1 0 0 0-1-1z" stop-color="#000000"/><path d="m9 1c-1.0907 0-2 0.9093-2 2v2c0 1.0907 0.9093 2 2 2h6c1.0907 0 2-0.9093 2-2v-2c0-1.0907-0.9093-2-2-2zm0 2h6v2h-6z" stop-color="#000000"/></svg>
