<svg class="lucide lucide-user-round-x-icon lucide-user-round-x" width="24" height="24" stroke-linecap="round" stroke-linejoin="round" stroke-width="2" version="1.1" viewBox="0 0 24 24" xmlns="http://www.w3.org/2000/svg"><path d="m9.7559 12.008c-4.5946 0.15532-8.7559 3.8852-8.7559 8.9922a1 1 0 0 0 1 1 1 1 0 0 0 1-1c-6.2e-6 -5.3781 5.6828-8.7287 10.389-6.125a1 1 0 0 0 1.3594-0.39062 1 1 0 0 0-0.39062-1.3594c-1.4895-0.82414-3.07-1.169-4.6016-1.1172z" stop-color="#000000"/><path d="m10 2c-3.3019 0-6 2.6981-6 6 0 3.3019 2.6981 6 6 6 3.3019 0 6-2.6981 6-6 0-3.3019-2.6981-6-6-6zm0 2c2.221 0 4 1.779 4 4 0 2.221-1.779 4-4 4-2.221 0-4-1.779-4-4 0-2.221 1.779-4 4-4z" stop-color="#000000"/><path d="m16.293 16.293a1 1 0 0 0 0 1.4141l5 5a1 1 0 0 0 1.4141 0 1 1 0 0 0 0-1.4141l-5-5a1 1 0 0 0-1.4141 0z" stop-color="#000000"/><path d="m21.293 16.293-5 5a1 1 0 0 0 0 1.4141 1 1 0 0 0 1.4141 0l5-5a1 1 0 0 0 0-1.4141 1 1 0 0 0-1.4141 0z" stop-color="#000000"/></svg>
