<svg class="lucide lucide-x-icon lucide-x" width="24" height="24" stroke-linecap="round" stroke-linejoin="round" stroke-width="2" version="1.1" viewBox="0 0 24 24" xmlns="http://www.w3.org/2000/svg"><path d="m17.293 5.293-12 12a1 1 0 0 0 0 1.4141 1 1 0 0 0 1.4141 0l12-12a1 1 0 0 0 0-1.4141 1 1 0 0 0-1.4141 0z" stop-color="#000000"/><path d="m6 5a1 1 0 0 0-0.70703 0.29297 1 1 0 0 0 0 1.4141l12 12a1 1 0 0 0 1.4141 0 1 1 0 0 0 0-1.4141l-12-12a1 1 0 0 0-0.70703-0.29297z" stop-color="#000000"/></svg>
