<svg class="lucide lucide-image-off-icon lucide-image-off" width="24" height="24" stroke-linecap="round" stroke-linejoin="round" stroke-width="2" version="1.1" viewBox="0 0 24 24" xmlns="http://www.w3.org/2000/svg"><path d="m1.293 1.293a1 1 0 0 0 0 1.4141l20 20a1 1 0 0 0 1.4141 0 1 1 0 0 0 0-1.4141l-20-20a1 1 0 0 0-1.4141 0z" stop-color="#000000"/><path d="m7.5801 6.5801a1 1 0 0 0-0.70703 0.29297c-0.64844 0.64844-0.95583 1.493-0.91016 2.2695 0.045679 0.77653 0.39927 1.4637 0.91016 1.9746 0.51088 0.51088 1.1981 0.86448 1.9746 0.91016 0.77653 0.04568 1.6211-0.26171 2.2695-0.91016a1 1 0 0 0 0-1.4141 1 1 0 0 0-1.4141 0c-0.29489 0.29489-0.51252 0.3414-0.73828 0.32812-0.22576-0.01328-0.48112-0.13151-0.67773-0.32812-0.19662-0.19662-0.31484-0.45197-0.32812-0.67773-0.01328-0.22576 0.033235-0.44339 0.32812-0.73828a1 1 0 0 0 0-1.4141 1 1 0 0 0-0.70703-0.29297z" stop-color="#000000"/><path d="m13.5 12.5a1 1 0 0 0-0.70703 0.29297l-7.5 7.5a1 1 0 0 0 0 1.4141 1 1 0 0 0 1.4141 0l7.5-7.5a1 1 0 0 0 0-1.4141 1 1 0 0 0-0.70703-0.29297z" stop-color="#000000"/><path d="m17.293 11.293a1 1 0 0 0 0 1.4141l3 3a1 1 0 0 0 1.4141 0 1 1 0 0 0 0-1.4141l-3-3a1 1 0 0 0-1.4141 0z" stop-color="#000000"/><path d="m2.8867 2.8789c-0.56545 0.55975-0.88502 1.3235-0.88672 2.1191a1.0001 1.0001 0 0 0 0 0.0019531v14c0 1.645 1.355 3 3 3h14c0.81667 0 1.5838-0.33116 2.1289-0.89453a1 1 0 0 0-0.02344-1.4141 1 1 0 0 0-1.4141 0.02344c-0.1709 0.17663-0.40807 0.28515-0.6914 0.28515h-14c-0.56413 0-1-0.43587-1-1v-14c0.0010586-0.26328 0.10582-0.51396 0.29297-0.69922a1 1 0 0 0 0.00781-1.4141 1 1 0 0 0-1.4141-0.00781z" stop-color="#000000"/><path d="m9 2a1 1 0 0 0-1 1 1 1 0 0 0 1 1h10c0.56413 0 1 0.43587 1 1v10a1 1 0 0 0 1 1 1 1 0 0 0 1-1v-10c0-1.645-1.355-3-3-3z" stop-color="#000000"/></svg>
