<svg class="lucide lucide-megaphone-off-icon lucide-megaphone-off" width="24" height="24" fill="none" stroke="currentColor" stroke-linecap="round" stroke-linejoin="round" stroke-width="2" version="1.1" viewBox="0 0 24 24" xmlns="http://www.w3.org/2000/svg"><path d="M11.636 6A13 13 0 0 0 19.4 3.2 1 1 0 0 1 21 4v11.344"/><path d="M14.378 14.357A13 13 0 0 0 11 14H5a2 2 0 0 1-2-2V8a2 2 0 0 1 2-2h1"/><path d="m2 2 20 20"/><path d="M6 14a12 12 0 0 0 2.4 7.2 2 2 0 0 0 3.2-2.4A8 8 0 0 1 10 14"/><path d="m8 8v6"/></svg>
