<?xml version="1.0" encoding="UTF-8" standalone="no"?>
<svg
   width="24"
   height="24"
   viewBox="0 0 24 24"
   fill="none"
   stroke="currentColor"
   stroke-width="2"
   stroke-linecap="round"
   stroke-linejoin="round"
   class="lucide lucide-box-icon lucide-box"
   version="1.1"
   id="svg3"
   sodipodi:docname="lucide-box-symbolic.svg"
   inkscape:version="1.4.1 (93de688d07, 2025-03-30)"
   xmlns:inkscape="http://www.inkscape.org/namespaces/inkscape"
   xmlns:sodipodi="http://sodipodi.sourceforge.net/DTD/sodipodi-0.dtd"
   xmlns="http://www.w3.org/2000/svg"
   xmlns:svg="http://www.w3.org/2000/svg">
  <defs
     id="defs3" />
  <sodipodi:namedview
     id="namedview3"
     pagecolor="#ffffff"
     bordercolor="#666666"
     borderopacity="1.0"
     inkscape:showpageshadow="2"
     inkscape:pageopacity="0.0"
     inkscape:pagecheckerboard="0"
     inkscape:deskcolor="#d1d1d1"
     inkscape:zoom="32.333333"
     inkscape:cx="12"
     inkscape:cy="12"
     inkscape:window-width="1920"
     inkscape:window-height="1005"
     inkscape:window-x="0"
     inkscape:window-y="0"
     inkscape:window-maximized="1"
     inkscape:current-layer="svg3" />
  <path
     style="baseline-shift:baseline;display:inline;overflow:visible;vector-effect:none;fill:#000000;stroke:none;stroke-linecap:butt;stroke-linejoin:miter;enable-background:accumulate;stop-color:#000000;stop-opacity:1;opacity:1;fill-opacity:1"
     d="m 12,1.0019531 c -0.516868,0 -1.033662,0.1343145 -1.496094,0.4003906 l -6.9999997,4 A 1.0001,1.0001 0 0 0 3.5,5.4042969 C 2.5741295,5.9388477 2.0010966,6.9289447 2,7.9980469 A 1.0001,1.0001 0 0 0 2,8 v 8 a 1.0001,1.0001 0 0 0 0,0.002 c 0.0011,1.069102 0.5741295,2.059199 1.5,2.59375 a 1.0001,1.0001 0 0 0 0.00391,0.002 l 6.9999997,4 c 0.926142,0.532888 2.070556,0.532407 2.996094,-0.002 l 6.996094,-3.998047 a 1.0001,1.0001 0 0 0 0.0039,-0.002 c 0.92587,-0.534551 1.498903,-1.524648 1.5,-2.59375 A 1.0001,1.0001 0 0 0 22,16 V 8 a 1.0001,1.0001 0 0 0 0,-0.00195 c -0.0011,-1.0691022 -0.57413,-2.0591992 -1.5,-2.59375 a 1.0001,1.0001 0 0 0 -0.0039,-0.00195 L 13.5,1.4042969 C 13.036593,1.1367485 12.518296,1.0019531 12,1.0019531 Z m -0.5,2.1347657 c 0.310789,-0.1794344 0.689211,-0.1794344 1,0 a 1.0001,1.0001 0 0 0 0.0039,0.00195 L 19.5,7.1367187 C 19.80994,7.3156626 19.998995,7.6422179 20,8 v 7.998047 c -3.68e-4,0.358494 -0.189534,0.685987 -0.5,0.865234 l -6.996094,3.998047 a 1.0001,1.0001 0 0 0 -0.0039,0.002 c -0.310789,0.179435 -0.689211,0.179435 -1,0 a 1.0001,1.0001 0 0 0 -0.0039,-0.002 L 4.5,16.863281 C 4.1900597,16.684337 4.0010048,16.357782 4,16 V 8.0019531 8 c 0.001,-0.3577821 0.1900597,-0.6843374 0.5,-0.8632813 L 11.496094,3.1386719 A 1.0001,1.0001 0 0 0 11.5,3.1367188 Z"
     id="path1" />
  <path
     style="baseline-shift:baseline;display:inline;overflow:visible;vector-effect:none;fill:#000000;stroke:none;stroke-linecap:butt;stroke-linejoin:miter;enable-background:accumulate;stop-color:#000000;stop-opacity:1;opacity:1;fill-opacity:1"
     d="m 20.960937,6.0351562 a 1,1 0 0 0 -0.759765,0.097656 L 12,10.845703 3.7988281,6.1328125 A 1,1 0 0 0 2.4335938,6.5019531 1,1 0 0 0 2.8007813,7.8671875 l 8.7011717,5.0000005 a 1.0001,1.0001 0 0 0 0.996094,0 L 21.199219,7.8671875 A 1,1 0 0 0 21.566406,6.5019531 1,1 0 0 0 20.960937,6.0351562 Z"
     id="path2" />
  <path
     style="baseline-shift:baseline;display:inline;overflow:visible;vector-effect:none;fill:#000000;stroke:none;stroke-linecap:butt;stroke-linejoin:miter;enable-background:accumulate;stop-color:#000000;stop-opacity:1;opacity:1;fill-opacity:1"
     d="m 12,11 a 1,1 0 0 0 -1,1 v 10 a 1,1 0 0 0 1,1 1,1 0 0 0 1,-1 V 12 a 1,1 0 0 0 -1,-1 z"
     id="path3" />
</svg>
