<svg class="lucide lucide-paperclip-icon lucide-paperclip" width="24" height="24" fill="none" stroke="currentColor" stroke-linecap="round" stroke-linejoin="round" stroke-width="2" version="1.1" viewBox="0 0 24 24" xmlns="http://www.w3.org/2000/svg"><path d="m16.236 0.93555c-1.2771-0.075127-2.6519 0.40969-3.7715 1.5293a1.0001 1.0001 0 0 0-0.0078 0.00781l-8.3652 8.5371c-1.616 1.5899-2.2928 3.502-2.1934 5.2891 0.09949 1.787 0.92836 3.4264 2.1523 4.6504 1.224 1.224 2.8634 2.0529 4.6504 2.1523 1.787 0.09949 3.6991-0.57538 5.2891-2.1914a1.0001 1.0001 0 0 0 2e-3 -2e-3l8.3789-8.5508a1 1 0 0 0-0.01367-1.4141 1 1 0 0 0-1.4141 0.01367l-8.3789 8.5488c-1.2384 1.2587-2.5195 1.6683-3.752 1.5997-1.2325-0.06862-2.4388-0.66144-3.3477-1.5703-0.90887-0.90887-1.4997-2.1151-1.5684-3.3477-0.06862-1.2325 0.339-2.5136 1.5977-3.752a1.0001 1.0001 0 0 0 0.013672-0.01172l8.3711-8.5449c0.76606-0.76606 1.5139-0.98804 2.2402-0.94531 0.72637 0.042728 1.452 0.39532 2.002 0.94531 0.54999 0.54999 0.90454 1.2775 0.94726 2.0039 0.04273 0.72637-0.18121 1.4722-0.94726 2.2383a1.0001 1.0001 0 0 0-0.0059 0.00781l-8.4082 8.5781c-0.29472 0.29472-0.51075 0.3414-0.73633 0.32812-0.22558-0.013269-0.48124-0.13164-0.67773-0.32812-0.19649-0.19649-0.31486-0.45215-0.32813-0.67773-0.01327-0.22558 0.033402-0.4416 0.32813-0.73633a1.0001 1.0001 0 0 0 0.00781-0.0078l8.4141-8.586a1 1 0 0 0-0.01563-1.4141 1 1 0 0 0-1.4141 0.015625l-8.4062 8.5781c-0.64828 0.64828-0.95582 1.4932-0.91016 2.2695 0.045668 0.77636 0.3994 1.4638 0.91016 1.9746 0.51076 0.51076 1.1983 0.86254 1.9746 0.9082 0.77635 0.04567 1.6213-0.25993 2.2695-0.9082a1.0001 1.0001 0 0 0 0.0059-0.0078l8.4141-8.5859-0.0078 0.00586c1.1196-1.1196 1.6044-2.4924 1.5292-3.7695-0.075126-1.2771-0.66504-2.4365-1.5293-3.3008-0.86426-0.86426-2.0217-1.4542-3.2988-1.5293z" fill="#000" stop-color="#000000" stroke="none"/></svg>
