<svg class="lucide lucide-laptop-icon lucide-laptop" width="24" height="24" stroke-linecap="round" stroke-linejoin="round" stroke-width="2" version="1.1" viewBox="0 0 24 24" xmlns="http://www.w3.org/2000/svg"><path d="m6 4c-1.645 0-3 1.355-3 3v8.5254a1.0001 1.0001 0 0 0 0 2e-3c6.74e-5 0.15574-0.035686 0.30803-0.10547 0.44726l-1.0684 2.1269c-0.65194 1.2971 0.34869 2.9086 1.8008 2.8984h16.746c1.4521 0.01014 2.4527-1.6014 1.8008-2.8984v-2e-3l-1.0684-2.125c-0.069783-0.13919-0.10554-0.29148-0.10547-0.44722a1.0001 1.0001 0 0 0 0-2e-3v-8.5253c0-1.645-1.355-3-3-3zm0 2h12c0.56413 0 1 0.43587 1 1v8.5254c-2.02e-4 0.46711 0.10906 0.9281 0.31836 1.3457l1.0684 2.127a1.0001 1.0001 0 0 0 0 2e-3 1.0001 1.0001 0 0 0-0.0059 0h-16.762a1.0001 1.0001 0 0 0-0.00586 0 1.0001 1.0001 0 0 0 0-2e-3l1.0684-2.127c0.2093-0.4176 0.31856-0.87859 0.31836-1.3457v-8.5254c0-0.56413 0.43587-1 1-1z" stop-color="#000000"/><path d="m3.9453 14.986a1 1 0 0 0-1 1 1 1 0 0 0 1 1h16.109a1 1 0 0 0 1-1 1 1 0 0 0-1-1z" stop-color="#000000"/></svg>
