<svg class="lucide lucide-notebook-tabs-icon lucide-notebook-tabs" width="24" height="24" stroke-linecap="round" stroke-linejoin="round" stroke-width="2" version="1.1" viewBox="0 0 24 24" xmlns="http://www.w3.org/2000/svg"><path d="m2 5a1 1 0 0 0-1 1 1 1 0 0 0 1 1h4a1 1 0 0 0 1-1 1 1 0 0 0-1-1z" stop-color="#000000"/><path d="m2 9a1 1 0 0 0-1 1 1 1 0 0 0 1 1h4a1 1 0 0 0 1-1 1 1 0 0 0-1-1z" stop-color="#000000"/><path d="m2 13a1 1 0 0 0-1 1 1 1 0 0 0 1 1h4a1 1 0 0 0 1-1 1 1 0 0 0-1-1z" stop-color="#000000"/><path d="m2 17a1 1 0 0 0-1 1 1 1 0 0 0 1 1h4a1 1 0 0 0 1-1 1 1 0 0 0-1-1z" stop-color="#000000"/><path d="m6 1c-1.6447 0-3 1.3553-3 3v16c0 1.6447 1.3553 3 3 3h12c1.6447 0 3-1.3553 3-3v-16c0-1.6447-1.3553-3-3-3zm0 2h12c0.5713 0 1 0.4287 1 1v16c0 0.5713-0.4287 1-1 1h-12c-0.5713 0-1-0.4287-1-1v-16c0-0.5713 0.4287-1 1-1z" stop-color="#000000"/><path d="m15 1a1 1 0 0 0-1 1v20a1 1 0 0 0 1 1 1 1 0 0 0 1-1v-20a1 1 0 0 0-1-1z" stop-color="#000000"/><path d="m15 6a1 1 0 0 0-1 1 1 1 0 0 0 1 1h5a1 1 0 0 0 1-1 1 1 0 0 0-1-1z" stop-color="#000000"/><path d="m15 11a1 1 0 0 0-1 1 1 1 0 0 0 1 1h5a1 1 0 0 0 1-1 1 1 0 0 0-1-1z" stop-color="#000000"/><path d="m15 16a1 1 0 0 0-1 1 1 1 0 0 0 1 1h5a1 1 0 0 0 1-1 1 1 0 0 0-1-1z" stop-color="#000000"/></svg>
