<svg class="lucide lucide-megaphone-off-icon lucide-megaphone-off" width="24" height="24" stroke-linecap="round" stroke-linejoin="round" stroke-width="2" version="1.1" viewBox="0 0 24 24" xmlns="http://www.w3.org/2000/svg"><path d="m19.836 2.0254c-0.35944 0.018421-0.71813 0.13723-1.0352 0.375a1.0001 1.0001 0 0 0-0.02148 0.015625c-2.0449 1.6172-4.5596 2.5238-7.166 2.584a1 1 0 0 0-0.97656 1.0234 1 1 0 0 0 1.0215 0.97656c3.0405-0.070221 5.9759-1.1291 8.3613-3.0156l-0.019531 0.015625v11.344a1 1 0 0 0 1 1 1 1 0 0 0 1-1v-11.344c0-1.1889-1.0857-2.0299-2.1641-1.9746z" stop-color="#000000"/><path d="m5 5c-1.645 0-3 1.355-3 3v4c0 1.645 1.355 3 3 3h6a1.0001 1.0001 0 0 0 0.02539 0c1.0493-0.027 2.0986 0.08433 3.1191 0.33008a1 1 0 0 0 1.2051-0.73828 1 1 0 0 0-0.73828-1.207c-1.1906-0.28671-2.4125-0.41627-3.6367-0.38477h-5.9746c-0.56413 0-1-0.43587-1-1v-4c0-0.56413 0.43587-1 1-1h1a1 1 0 0 0 1-1 1 1 0 0 0-1-1z" stop-color="#000000"/><path d="m1.293 1.293a1 1 0 0 0 0 1.4141l20 20a1 1 0 0 0 1.4141 0 1 1 0 0 0 0-1.4141l-20-20a1 1 0 0 0-1.4141 0z" stop-color="#000000"/><path d="m6 13a1 1 0 0 0-1 1c0 2.8127 0.91201 5.5506 2.5996 7.8008 0.55 0.73333 1.3423 1.1561 2.1172 1.2207 0.77491 0.06458 1.5062-0.18776 2.084-0.62109 0.57778-0.43333 1.0247-1.0642 1.1797-1.8262s-0.03008-1.6417-0.58008-2.375c-0.90884-1.2118-1.4004-2.6845-1.4004-4.1992a1 1 0 0 0-1-1 1 1 0 0 0-1 1c0 1.9472 0.63247 3.8426 1.8008 5.4004 0.25 0.33333 0.26377 0.55405 0.21875 0.77539-0.04502 0.22134-0.1977 0.45833-0.41992 0.625-0.22222 0.16667-0.49171 0.24727-0.7168 0.22852-0.22509-0.018758-0.43359-0.096355-0.68359-0.42969-1.4281-1.9042-2.1992-4.2194-2.1992-6.5996a1 1 0 0 0-1-1z" stop-color="#000000"/><path d="m8 7a1 1 0 0 0-1 1v6a1 1 0 0 0 1 1 1 1 0 0 0 1-1v-6a1 1 0 0 0-1-1z" stop-color="#000000"/></svg>
