<svg class="lucide lucide-fast-forward-icon lucide-fast-forward" width="24" height="24" stroke-linecap="round" stroke-linejoin="round" stroke-width="2" version="1.1" viewBox="0 0 24 24" xmlns="http://www.w3.org/2000/svg"><path d="m14.531 3.0508c-0.57383-0.10163-1.1635-0.036058-1.6797 0.17773-1.0324 0.42758-1.8513 1.4778-1.8516 2.7715v12c2.76e-4 1.2937 0.81919 2.3439 1.8516 2.7715 1.0324 0.42758 2.3546 0.26425 3.2695-0.65039l6-6c1.1628-1.1631 1.1628-3.0791 0-4.2422l-6-6c-0.45746-0.45732-1.016-0.7265-1.5898-0.82812zm-0.91406 2.0254c0.35956-0.14892 0.74488-0.12806 1.0898 0.2168l6 6c0.39875 0.39887 0.39875 1.0152 0 1.4141l-6 6c-0.34496 0.34486-0.73028 0.36572-1.0898 0.2168-0.35957-0.14892-0.61708-0.43606-0.61719-0.92383v-12c1.04e-4 -0.48777 0.25762-0.7749 0.61719-0.92383z" stop-color="#000000"/><path d="m4.5312 3.0508c-0.57383-0.10163-1.1635-0.036058-1.6797 0.17773-1.0324 0.42758-1.8513 1.4778-1.8516 2.7715v12c2.762e-4 1.2937 0.81919 2.3439 1.8516 2.7715 1.0324 0.42758 2.3546 0.26425 3.2695-0.65039l6-6c1.1628-1.1631 1.1628-3.0791 0-4.2422l-6-6c-0.45746-0.45732-1.016-0.7265-1.5898-0.82812zm-0.91406 2.0254c0.35957-0.14892 0.74489-0.12806 1.0898 0.2168l6 6c0.39875 0.39887 0.39875 1.0152 0 1.4141l-6 6c-0.34496 0.34486-0.73028 0.36572-1.0898 0.2168s-0.61708-0.43606-0.61719-0.92383v-12c1.042e-4 -0.48777 0.25762-0.7749 0.61719-0.92383z" stop-color="#000000"/></svg>
