<?xml version="1.0" encoding="UTF-8" standalone="no"?>
<svg
   width="24"
   height="24"
   viewBox="0 0 24 24"
   fill="none"
   stroke="currentColor"
   stroke-width="2"
   stroke-linecap="round"
   stroke-linejoin="round"
   class="lucide lucide-megaphone"
   version="1.1"
   id="svg2"
   sodipodi:docname="lucide-megaphone-symbolic.svg"
   inkscape:version="1.3.2 (091e20ef0f, 2023-11-25, custom)"
   xmlns:inkscape="http://www.inkscape.org/namespaces/inkscape"
   xmlns:sodipodi="http://sodipodi.sourceforge.net/DTD/sodipodi-0.dtd"
   xmlns="http://www.w3.org/2000/svg"
   xmlns:svg="http://www.w3.org/2000/svg">
  <defs
     id="defs2" />
  <sodipodi:namedview
     id="namedview2"
     pagecolor="#ffffff"
     bordercolor="#666666"
     borderopacity="1.0"
     inkscape:showpageshadow="2"
     inkscape:pageopacity="0.0"
     inkscape:pagecheckerboard="0"
     inkscape:deskcolor="#d1d1d1"
     inkscape:zoom="32.25"
     inkscape:cx="12"
     inkscape:cy="12"
     inkscape:window-width="1920"
     inkscape:window-height="999"
     inkscape:window-x="0"
     inkscape:window-y="0"
     inkscape:window-maximized="1"
     inkscape:current-layer="svg2" />
  <g
     id="path1"
     style="stroke:none">
    <path
       style="color:#000000;fill:#000000;-inkscape-stroke:none;stroke:none"
       d="M 20.865234,5.5175781 2.8652344,10.517578 A 0.50005,0.50005 0 0 0 2.5,11 v 3 a 0.50005,0.50005 0 0 0 0.390625,0.488281 l 18,4 A 0.50005,0.50005 0 0 0 21.5,18 V 6 A 0.50005,0.50005 0 0 0 20.865234,5.5175781 Z M 20.5,6.6582031 V 17.376953 l -17,-3.777344 v -2.21875 z"
       id="path5" />
    <path
       style="color:#000000;fill:#000000;-inkscape-stroke:none;stroke:none"
       d="M 20.730469,5.0351562 2.7304688,10.035156 C 2.3002105,10.155615 1.9992065,10.553198 2,11 v 3 c -3.262e-4,0.465434 0.3270962,0.874713 0.78125,0.976563 l 18,3.999999 C 21.395508,19.114186 22.000413,18.629487 22,18 V 6 C 22.001118,5.3501819 21.356262,4.8600908 20.730469,5.0351562 Z M 21,6 V 6.6582031 A 0.50005,0.50005 0 0 0 20.367187,6.1757812 Z M 20,7.3164062 V 16.753906 L 4,13.199219 v -1.4375 z M 3.3652344,10.898438 A 0.50005,0.50005 0 0 0 3,11.380859 V 11 Z M 3,13.599609 a 0.50005,0.50005 0 0 0 0.3886719,0.486329 L 3,14 Z m 18,3.777344 V 18 L 20.392578,17.865234 A 0.50005,0.50005 0 0 0 21,17.376953 Z"
       id="path6" />
  </g>
  <g
     id="path2"
     style="stroke:none">
    <path
       style="color:#000000;fill:#000000;-inkscape-stroke:none;stroke:none"
       d="M 5.9335937,14.71875 A 0.5,0.5 0 0 0 5.3183594,15.066406 C 5.018452,16.153571 5.2020736,17.1474 5.6875,17.896484 c 0.4854264,0.749084 1.2479687,1.256781 2.0800781,1.486328 0.8321094,0.229548 1.7460449,0.185271 2.5468749,-0.208984 0.80083,-0.394255 1.467671,-1.15307 1.767578,-2.240234 a 0.5,0.5 0 0 0 -0.349609,-0.615235 0.5,0.5 0 0 0 -0.615234,0.34961 C 10.883762,17.514135 10.426382,18.004933 9.8730469,18.277344 9.3197118,18.549755 8.6510923,18.588421 8.0332031,18.417969 7.415314,18.247517 6.8607969,17.871097 6.5253906,17.353516 6.1899844,16.835935 6.0478248,16.178198 6.28125,15.332031 A 0.5,0.5 0 0 0 5.9335937,14.71875 Z"
       id="path3" />
    <path
       style="color:#000000;fill:#000000;-inkscape-stroke:none;stroke:none"
       d="m 6.0664062,14.236328 c -0.526059,-0.145834 -1.0839799,0.169435 -1.2304687,0.695313 a 0.50005,0.50005 0 0 0 0,0.002 c -0.3345931,1.2129 -0.1322505,2.364208 0.4316406,3.234375 0.5593127,0.863101 1.4283766,1.438284 2.3671875,1.697265 0.9384724,0.25889 1.9776271,0.212097 2.9003904,-0.242187 0.930237,-0.457963 1.694725,-1.343815 2.029297,-2.556641 0.145557,-0.527187 -0.171816,-1.085692 -0.699219,-1.230468 -0.527187,-0.145556 -1.085693,0.171816 -1.230468,0.699218 -0.202081,0.732538 -0.544642,1.077447 -0.9824222,1.292969 C 9.2253845,18.03832 8.6760808,18.076254 8.1660156,17.935547 7.6561136,17.794884 7.2041109,17.481395 6.9453125,17.082031 6.679974,16.672575 6.5617497,16.196812 6.7636719,15.464844 a 0.50005,0.50005 0 0 0 0,-0.002 C 6.9070555,14.938008 6.5923657,14.382881 6.0683594,14.236328 a 0.50005,0.50005 0 0 0 -0.00195,0 z m 5.5332028,2.564453 C 11.466814,17.282163 11.258044,17.68014 10.998047,18 c 0.259616,-0.320112 0.469177,-0.719323 0.601562,-1.199219 z"
       id="path4" />
  </g>
</svg>
