<svg xmlns="http://www.w3.org/2000/svg" fill="none" stroke="currentColor" stroke-linecap="round" stroke-linejoin="round" stroke-width="2" class="lucide lucide-package-plus-icon lucide-package-plus" viewBox="0 0 24 24"><path fill="#000" stroke="none" d="M16 15a1 1 0 0 0-1 1 1 1 0 0 0 1 1h6a1 1 0 0 0 1-1 1 1 0 0 0-1-1z"/><path fill="#000" stroke="none" d="M19 12a1 1 0 0 0-1 1v6a1 1 0 0 0 1 1 1 1 0 0 0 1-1v-6a1 1 0 0 0-1-1"/><path fill="#000" stroke="none" d="M12 1.002a3 3 0 0 0-1.496.4l-7 4-.004.002A3 3 0 0 0 2 7.998v8.004a3 3 0 0 0 1.5 2.594l.004.002 7 4c.926.533 2.07.532 2.996-.002l-.004.004 2-1.14a1 1 0 0 0 .373-1.364 1 1 0 0 0-1.365-.375l-2 1.14-.004.002c-.31.18-.69.18-1 0l-.004-.002L4.5 16.863A1 1 0 0 1 4 16V8a1 1 0 0 1 .5-.863l6.996-3.998.004-.002c.31-.18.69-.18 1 0l.004.002L19.5 7.137c.31.179.5.505.5.863v2a1 1 0 0 0 1 1 1 1 0 0 0 1-1V7.998a3 3 0 0 0-1.5-2.594l-.004-.002L13.5 1.404a3 3 0 0 0-1.5-.402"/><path fill="#000" stroke="none" d="M7.238 3.305a1 1 0 0 0-.605.468 1 1 0 0 0 .37 1.366l9 5.148a1 1 0 0 0 1.364-.371 1 1 0 0 0-.37-1.363l-9-5.15a1 1 0 0 0-.759-.098"/><path fill="#000" stroke="none" d="M3.03 6.035a1 1 0 0 0-.608.467 1 1 0 0 0 .371 1.365l8.709 5a1 1 0 0 0 .996 0l8.71-5a1 1 0 0 0 .37-1.365 1 1 0 0 0-1.365-.37L12 10.849 3.787 6.133a1 1 0 0 0-.758-.098"/><path d="M12 22V12"/></svg>