<svg class="lucide lucide-user-icon lucide-user" width="24" height="24" stroke-linecap="round" stroke-linejoin="round" stroke-width="2" version="1.1" viewBox="0 0 24 24" xmlns="http://www.w3.org/2000/svg"><path d="m9 14c-2.7496 0-5 2.2504-5 5v2a1 1 0 0 0 1 1 1 1 0 0 0 1-1v-2c0-1.6687 1.3313-3 3-3h6c1.6687 0 3 1.3313 3 3v2a1 1 0 0 0 1 1 1 1 0 0 0 1-1v-2c0-2.7496-2.2504-5-5-5z" stop-color="#000000"/><path d="m12 2c-2.7496 0-5 2.2504-5 5s2.2504 5 5 5c2.7496 0 5-2.2504 5-5s-2.2504-5-5-5zm0 2c1.6687 0 3 1.3313 3 3s-1.3313 3-3 3-3-1.3313-3-3 1.3313-3 3-3z" stop-color="#000000"/></svg>
