<svg class="lucide lucide-user-cog-icon lucide-user-cog" width="24" height="24" stroke-linecap="round" stroke-linejoin="round" stroke-width="2" version="1.1" viewBox="0 0 24 24" xmlns="http://www.w3.org/2000/svg"><path d="m6 14c-2.7496 0-5 2.2504-5 5v2a1 1 0 0 0 1 1 1 1 0 0 0 1-1v-2c0-1.6687 1.3313-3 3-3h4a1 1 0 0 0 1-1 1 1 0 0 0-1-1z" stop-color="#000000"/><path d="m14.846 15.225-0.92383 0.38086a1 1 0 0 0-0.54102 1.3066 1 1 0 0 0 1.3066 0.54102l0.92383-0.38086a1 1 0 0 0 0.54102-1.3066 1 1 0 0 0-1.3066-0.54102z" stop-color="#000000"/><path d="m14.688 12.545a1 1 0 0 0-1.3066 0.54102 1 1 0 0 0 0.54102 1.3066l0.92383 0.38281a1 1 0 0 0 1.3066-0.54102 1 1 0 0 0-0.54102-1.3066z" stop-color="#000000"/><path d="m16.086 10.381a1 1 0 0 0-0.54102 1.3066l0.38281 0.92383a1 1 0 0 0 1.3066 0.54102 1 1 0 0 0 0.54102-1.3066l-0.38281-0.92383a1 1 0 0 0-1.3066-0.54102z" stop-color="#000000"/><path d="m16.469 16.848a1 1 0 0 0-0.54102 0.54102l-0.38281 0.92383a1 1 0 0 0 0.54102 1.3066 1 1 0 0 0 1.3066-0.54102l0.38281-0.92383a1 1 0 0 0-0.54102-1.3066 1 1 0 0 0-0.76562 0z" stop-color="#000000"/><path d="m19.148 10.381a1 1 0 0 0-0.54102 0.54102l-0.38281 0.92383a1 1 0 0 0 0.54102 1.3066 1 1 0 0 0 1.3066-0.54102l0.38281-0.92383a1 1 0 0 0-0.54102-1.3066 1 1 0 0 0-0.76562 0z" stop-color="#000000"/><path d="m18.766 16.848a1 1 0 0 0-0.54102 1.3066l0.38086 0.92383a1 1 0 0 0 1.3066 0.54297 1 1 0 0 0 0.54297-1.3066l-0.38281-0.92383a1 1 0 0 0-1.3066-0.54297z" stop-color="#000000"/><path d="m21.312 12.545-0.92383 0.38281a1 1 0 0 0-0.54102 1.3066 1 1 0 0 0 1.3066 0.54102l0.92383-0.38281a1 1 0 0 0 0.54102-1.3066 1 1 0 0 0-1.3066-0.54102z" stop-color="#000000"/><path d="m20.389 15.225a1 1 0 0 0-0.54102 0.54102 1 1 0 0 0 0.54102 1.3066l0.92383 0.38281a1 1 0 0 0 1.3066-0.54102 1 1 0 0 0-0.54102-1.3066l-0.92383-0.38281a1 1 0 0 0-0.76562 0z" stop-color="#000000"/><path d="m18 11c-2.1973 0-4 1.8027-4 4s1.8027 4 4 4 4-1.8027 4-4-1.8027-4-4-4zm0 2c1.1164 0 2 0.88359 2 2s-0.88359 2-2 2-2-0.88359-2-2 0.88359-2 2-2z" stop-color="#000000"/><path d="m9 2c-2.7496 0-5 2.2504-5 5s2.2504 5 5 5c2.7496 0 5-2.2504 5-5s-2.2504-5-5-5zm0 2c1.6687 0 3 1.3313 3 3s-1.3313 3-3 3c-1.6687 0-3-1.3313-3-3s1.3313-3 3-3z" stop-color="#000000"/></svg>
