<?xml version="1.0" encoding="UTF-8" standalone="no"?>
<svg
   width="24"
   height="24"
   viewBox="0 0 24 24"
   fill="none"
   stroke="currentColor"
   stroke-width="2"
   stroke-linecap="round"
   stroke-linejoin="round"
   class="lucide lucide-languages-icon lucide-languages"
   version="1.1"
   id="svg6"
   sodipodi:docname="lucide-languages-symbolic.svg"
   inkscape:version="1.4 (e7c3feb100, 2024-10-09)"
   xmlns:inkscape="http://www.inkscape.org/namespaces/inkscape"
   xmlns:sodipodi="http://sodipodi.sourceforge.net/DTD/sodipodi-0.dtd"
   xmlns="http://www.w3.org/2000/svg"
   xmlns:svg="http://www.w3.org/2000/svg">
  <defs
     id="defs6" />
  <sodipodi:namedview
     id="namedview6"
     pagecolor="#ffffff"
     bordercolor="#666666"
     borderopacity="1.0"
     inkscape:showpageshadow="2"
     inkscape:pageopacity="0.0"
     inkscape:pagecheckerboard="0"
     inkscape:deskcolor="#d1d1d1"
     inkscape:zoom="32.333333"
     inkscape:cx="12"
     inkscape:cy="12"
     inkscape:window-width="1920"
     inkscape:window-height="1005"
     inkscape:window-x="0"
     inkscape:window-y="0"
     inkscape:window-maximized="1"
     inkscape:current-layer="svg6" />
  <path
     style="fill:#000000;stroke:none"
     d="m 5,7 a 1,1 0 0 0 -0.7070313,0.2929687 1,1 0 0 0 0,1.4140626 l 6.0000003,5.9999997 a 1,1 0 0 0 1.414062,0 1,1 0 0 0 0,-1.414062 L 5.7070312,7.2929687 A 1,1 0 0 0 5,7 Z"
     id="path1" />
  <path
     style="fill:#000000;stroke:none"
     d="M 12.554688,4.1679687 A 1,1 0 0 0 11.167969,4.4453125 L 9.2226563,7.3632812 3.2929688,13.292969 a 1,1 0 0 0 0,1.414062 1,1 0 0 0 1.4140624,0 L 10.707031,8.7070313 a 1.0001,1.0001 0 0 0 0.125,-0.1523438 l 2,-3 A 1,1 0 0 0 12.554688,4.1679687 Z"
     id="path2" />
  <path
     style="fill:#000000;stroke:none"
     d="M 2,4 A 1,1 0 0 0 1,5 1,1 0 0 0 2,6 H 14 A 1,1 0 0 0 15,5 1,1 0 0 0 14,4 Z"
     id="path3" />
  <path
     style="fill:#000000;stroke:none"
     d="M 7,1 A 1,1 0 0 0 6,2 1,1 0 0 0 7,3 H 8 A 1,1 0 0 0 9,2 1,1 0 0 0 8,1 Z"
     id="path4" />
  <path
     style="fill:#000000;stroke:none"
     d="m 17,11 a 1.0001,1.0001 0 0 0 -0.894531,0.552734 l -5,10 a 1,1 0 0 0 0.447265,1.341797 1,1 0 0 0 1.341797,-0.447265 L 17,14.236328 l 4.105469,8.210938 a 1,1 0 0 0 1.341797,0.447265 1,1 0 0 0 0.447265,-1.341797 l -5,-10 A 1.0001,1.0001 0 0 0 17,11 Z"
     id="path5" />
  <path
     style="fill:#000000;stroke:none"
     d="m 14,17 a 1,1 0 0 0 -1,1 1,1 0 0 0 1,1 h 6 a 1,1 0 0 0 1,-1 1,1 0 0 0 -1,-1 z"
     id="path6" />
</svg>
