<svg class="lucide lucide-hard-drive-icon lucide-hard-drive" width="24" height="24" stroke-linecap="round" stroke-linejoin="round" stroke-width="2" version="1.1" viewBox="0 0 24 24" xmlns="http://www.w3.org/2000/svg"><path d="m2 11a1 1 0 0 0-1 1 1 1 0 0 0 1 1h20a1 1 0 0 0 1-1 1 1 0 0 0-1-1z" stop-color="#000000"/><path d="m7.2402 3c-1.1363 6.03e-4 -2.1799 0.64648-2.6855 1.6641l-3.4492 6.8887a1.0001 1.0001 0 0 0-0.10547 0.44727v6c0 1.645 1.355 3 3 3h16c1.645 0 3-1.355 3-3v-6a1.0001 1.0001 0 0 0-0.10547-0.44727l-3.4512-6.8906c-0.50612-1.0161-1.5483-1.6615-2.6836-1.6621zm0 2h9.5195c0.3816 2.025e-4 0.72472 0.21295 0.89453 0.55469a1.0001 1.0001 0 0 0 2e-3 0.00391l3.3437 6.6777v5.7637c0 0.56413-0.43587 1-1 1h-16c-0.56413 0-1-0.43587-1-1v-5.7637l3.3438-6.6777a1.0001 1.0001 0 0 0 0.00195-0.00391c0.16982-0.34173 0.51293-0.55448 0.89453-0.55468z" stop-color="#000000"/><path d="m6 15a1 1 0 0 0-1 1 1 1 0 0 0 1 1h0.00977a1 1 0 0 0 1-1 1 1 0 0 0-1-1z" stop-color="#000000"/><path d="m10 15a1 1 0 0 0-1 1 1 1 0 0 0 1 1h0.0098a1 1 0 0 0 1-1 1 1 0 0 0-1-1z" stop-color="#000000"/></svg>
