<svg class="lucide lucide-frown-icon lucide-frown" width="24" height="24" stroke-linecap="round" stroke-linejoin="round" stroke-width="2" version="1.1" viewBox="0 0 24 24" xmlns="http://www.w3.org/2000/svg"><path d="m12 1c-6.0633 0-11 4.9367-11 11 0 6.0633 4.9367 11 11 11 6.0633 0 11-4.9367 11-11 0-6.0633-4.9367-11-11-11zm0 2c4.9824 0 9 4.0176 9 9 0 4.9824-4.0176 9-9 9-4.9824 0-9-4.0176-9-9 0-4.9824 4.0176-9 9-9z" stop-color="#000000"/><path d="m12 13c-3.0333 0-4.8008 2.4004-4.8008 2.4004a1 1 0 0 0 0.20117 1.4004 1 1 0 0 0 1.4004-0.20117s1.2326-1.5996 3.1992-1.5996 3.1992 1.5996 3.1992 1.5996a1 1 0 0 0 1.4004 0.20117 1 1 0 0 0 0.20117-1.4004s-1.7674-2.4004-4.8008-2.4004z" stop-color="#000000"/><path d="m9 8a1 1 0 0 0-1 1 1 1 0 0 0 1 1h0.00977a1 1 0 0 0 1-1 1 1 0 0 0-1-1z" stop-color="#000000"/><path d="m15 8a1 1 0 0 0-1 1 1 1 0 0 0 1 1h0.0098a1 1 0 0 0 1-1 1 1 0 0 0-1-1z" stop-color="#000000"/></svg>
