<svg class="lucide lucide-square-pen-icon lucide-square-pen" width="24" height="24" stroke-linecap="round" stroke-linejoin="round" stroke-width="2" version="1.1" viewBox="0 0 24 24" xmlns="http://www.w3.org/2000/svg"><path d="m5 2c-1.645 0-3 1.355-3 3v14c0 1.645 1.355 3 3 3h14c1.645 0 3-1.355 3-3v-7a1 1 0 0 0-1-1 1 1 0 0 0-1 1v7c0 0.56413-0.43587 1-1 1h-14c-0.56413 0-1-0.43587-1-1v-14c0-0.56413 0.43587-1 1-1h7a1 1 0 0 0 1-1 1 1 0 0 0-1-1z" stop-color="#000000"/><path d="m20.027 0.9707c-0.80664-0.047449-1.6826 0.27049-2.3594 0.94727l-9.0117 9.0137c-0.35617 0.35556-0.61799 0.79446-0.75977 1.2773a1.0001 1.0001 0 0 0 0 2e-3l-0.83984 2.873c-0.31668 1.0858 0.7736 2.1761 1.8594 1.8594l2.873-0.83984c0.48327-0.14112 0.92315-0.40197 1.2793-0.75781l9.0137-9.0137c0.67678-0.67678 0.99472-1.5527 0.94727-2.3594-0.047449-0.80664-0.41513-1.5226-0.94727-2.0547-0.53214-0.53213-1.2481-0.89982-2.0547-0.94727zm-0.11719 1.9961c0.25586 0.015051 0.53995 0.14737 0.75781 0.36523 0.21786 0.21787 0.35018 0.50195 0.36523 0.75781 0.01505 0.25586-0.04201 0.5049-0.36523 0.82812l-9.0137 9.0137c-0.11876 0.11865-0.26464 0.2049-0.42578 0.25195l-1.9961 0.58398 0.58398-1.9941v-2e-3c0.047383-0.16032 0.13359-0.30563 0.25195-0.42378a1.0001 1.0001 0 0 0 0-2e-3l9.0137-9.0136c0.32322-0.32322 0.57226-0.38029 0.82812-0.36523z" stop-color="#000000"/></svg>
