<svg xmlns="http://www.w3.org/2000/svg" fill="none" stroke="currentColor" stroke-linecap="round" stroke-linejoin="round" stroke-width="2" class="lucide lucide-wrench-icon lucide-wrench" viewBox="0 0 24 24"><path fill="#000" stroke="none" d="M16.703 1.022c-2.165-.23-4.229.598-5.656 2.025-1.746 1.746-2.51 4.446-1.625 7.117l-6.51 6.51c-.677.677-.995 1.553-.947 2.36.047.806.415 1.522.947 2.054s1.248.9 2.055.947c.806.048 1.682-.27 2.36-.947l6.509-6.51c2.671.885 5.37.121 7.117-1.625 1.903-1.903 2.739-4.939 1.428-7.836a1 1 0 0 0-1.617-.295L17 8.586 15.414 7l.004-.002 3.76-3.761a1 1 0 0 0-.295-1.618 7.1 7.1 0 0 0-2.18-.597zm-.23 1.976c.029.003.06.022.09.025l-2.561 2.56-.01.01-.006.007a2.016 2.016 0 0 0 0 2.8l.006.006 1.602 1.602.006.006c.77.754 2.03.754 2.8 0l.006-.006 2.57-2.57c.206 1.587-.385 3.049-1.437 4.101-1.377 1.377-3.453 1.99-5.598 1.02a1 1 0 0 0-1.119.205l-6.91 6.91c-.323.323-.57.378-.826.363a1.22 1.22 0 0 1-.76-.363 1.22 1.22 0 0 1-.363-.76c-.015-.256.04-.503.363-.826l6.91-6.91a1 1 0 0 0 .205-1.12c-.97-2.144-.357-4.22 1.02-5.597 1.033-1.033 2.459-1.635 4.012-1.463"/></svg>