<svg class="lucide lucide-server-icon lucide-server" width="24" height="24" fill="none" stroke="currentColor" stroke-linecap="round" stroke-linejoin="round" stroke-width="2" version="1.1" viewBox="0 0 24 24" xmlns="http://www.w3.org/2000/svg"><path d="m4 2h16c1.108 0 2 0.892 2 2v4c0 1.108-0.892 2-2 2h-16c-1.108 0-2-0.892-2-2v-4c0-1.108 0.892-2 2-2z"/><path d="m4 14h16c1.108 0 2 0.892 2 2v4c0 1.108-0.892 2-2 2h-16c-1.108 0-2-0.892-2-2v-4c0-1.108 0.892-2 2-2z"/><path d="m6 6h0.01"/><path d="m6 18h0.01"/></svg>
