<svg class="lucide lucide-mic-icon lucide-mic" width="24" height="24" stroke-linecap="round" stroke-linejoin="round" stroke-width="2" version="1.1" viewBox="0 0 24 24" xmlns="http://www.w3.org/2000/svg"><path d="m12 18a1 1 0 0 0-1 1v3a1 1 0 0 0 1 1 1 1 0 0 0 1-1v-3a1 1 0 0 0-1-1z" stop-color="#000000"/><path d="m5 9a1 1 0 0 0-1 1v2c0 4.4064 3.5936 8 8 8 4.4064 0 8-3.5936 8-8v-2a1 1 0 0 0-1-1 1 1 0 0 0-1 1v2c0 3.3256-2.6744 6-6 6s-6-2.6744-6-6v-2a1 1 0 0 0-1-1z" stop-color="#000000"/><path d="m12 1c-2.1987 0-4 1.8013-4 4v7c0 2.1987 1.8013 4 4 4 2.1987 0 4-1.8013 4-4v-7c0-2.1987-1.8013-4-4-4zm0 2c1.1253 0 2 0.8747 2 2v7c0 1.1253-0.8747 2-2 2s-2-0.8747-2-2v-7c0-1.1253 0.8747-2 2-2z" stop-color="#000000"/></svg>
