<svg class="lucide lucide-file-down-icon lucide-file-down" width="24" height="24" stroke-linecap="round" stroke-linejoin="round" stroke-width="2" version="1.1" viewBox="0 0 24 24" xmlns="http://www.w3.org/2000/svg"><path d="m6 1c-1.645 0-3 1.355-3 3v16c0 1.645 1.355 3 3 3h12c1.645 0 3-1.355 3-3v-13a1.0001 1.0001 0 0 0-0.29297-0.70703l-5-5a1.0001 1.0001 0 0 0-0.70703-0.29297zm0 2h8.5859l4.4141 4.4141v12.586c0 0.56413-0.43587 1-1 1h-12c-0.56413 0-1-0.43587-1-1v-16c0-0.56413 0.43587-1 1-1z" stop-color="#000000"/><path d="m14 1a1 1 0 0 0-1 1v4c0 1.645 1.355 3 3 3h4a1 1 0 0 0 1-1 1 1 0 0 0-1-1h-4c-0.56413 0-1-0.43587-1-1v-4a1 1 0 0 0-1-1z" stop-color="#000000"/><path d="m12 11a1 1 0 0 0-1 1v6a1 1 0 0 0 1 1 1 1 0 0 0 1-1v-6a1 1 0 0 0-1-1z" stop-color="#000000"/><path d="m9 14a1 1 0 0 0-0.70703 0.29297 1 1 0 0 0 0 1.4141l3 3a1.0001 1.0001 0 0 0 1.4141 0l3-3a1 1 0 0 0 0-1.4141 1 1 0 0 0-1.4141 0l-2.293 2.293-2.293-2.293a1 1 0 0 0-0.70703-0.29297z" stop-color="#000000"/></svg>
