<svg class="lucide lucide-at-sign-icon lucide-at-sign" width="24" height="24" stroke-linecap="round" stroke-linejoin="round" stroke-width="2" version="1.1" viewBox="0 0 24 24" xmlns="http://www.w3.org/2000/svg"><path d="m12 7c-2.7496 0-5 2.2504-5 5 0 2.7496 2.2504 5 5 5 2.7496 0 5-2.2504 5-5 0-2.7496-2.2504-5-5-5zm0 2c1.6687 0 3 1.3313 3 3s-1.3313 3-3 3-3-1.3313-3-3 1.3313-3 3-3z" stop-color="#000000"/><path d="m11.041 1.0273c-3.5155 0.27739-6.9572 2.2152-8.877 6.0547-2.5596 5.1193-0.79092 10.376 2.7871 13.363 3.578 2.9878 9.0665 3.7919 13.648 0.35547a1 1 0 0 0 0.20117-1.4004 1 1 0 0 0-1.4004-0.20117c-3.8633 2.8975-8.2049 2.1836-11.166-0.28906s-4.4389-6.6182-2.2812-10.934c2.1577-4.3154 6.3605-5.6217 10.115-4.7363 3.7548 0.88533 6.9316 3.9307 6.9316 8.7598v1c0 0.75-0.24524 1.1852-0.60156 1.502-0.35632 0.31673-0.87066 0.49805-1.3984 0.49805s-1.0421-0.18132-1.3984-0.49805c-0.35632-0.31673-0.60156-0.75195-0.60156-1.502v-5a1 1 0 0 0-1-1 1 1 0 0 0-1 1v5c0 1.25 0.50476 2.3148 1.2734 2.998 0.76868 0.68327 1.7543 1.002 2.7266 1.002s1.9579-0.31868 2.7266-1.002c0.76868-0.68327 1.2734-1.748 1.2734-2.998v-1c0-5.7274-3.9356-9.6353-8.4727-10.705-1.1343-0.26744-2.3145-0.36004-3.4863-0.26758z" stop-color="#000000"/></svg>
