<svg class="lucide lucide-user-check-icon lucide-user-check" width="24" height="24" stroke-linecap="round" stroke-linejoin="round" stroke-width="2" version="1.1" viewBox="0 0 24 24" xmlns="http://www.w3.org/2000/svg"><path d="m21.293 8.293-3.293 3.293-1.293-1.293a1 1 0 0 0-1.4141 0 1 1 0 0 0 0 1.4141l2 2a1.0001 1.0001 0 0 0 1.4141 0l4-4a1 1 0 0 0 0-1.4141 1 1 0 0 0-1.4141 0z" stop-color="#000000"/><path d="m6 14c-2.7496 0-5 2.2504-5 5v2a1 1 0 0 0 1 1 1 1 0 0 0 1-1v-2c0-1.6687 1.3313-3 3-3h6c1.6687 0 3 1.3313 3 3v2a1 1 0 0 0 1 1 1 1 0 0 0 1-1v-2c0-2.7496-2.2504-5-5-5z" stop-color="#000000"/><path d="m9 2c-2.7496 0-5 2.2504-5 5s2.2504 5 5 5c2.7496 0 5-2.2504 5-5s-2.2504-5-5-5zm0 2c1.6687 0 3 1.3313 3 3s-1.3313 3-3 3c-1.6687 0-3-1.3313-3-3s1.3313-3 3-3z" stop-color="#000000"/></svg>
