<svg class="lucide lucide-bot-icon lucide-bot" width="24" height="24" stroke-linecap="round" stroke-linejoin="round" stroke-width="2" version="1.1" viewBox="0 0 24 24" xmlns="http://www.w3.org/2000/svg"><path d="m8 3a1 1 0 0 0-1 1 1 1 0 0 0 1 1h3v3a1 1 0 0 0 1 1 1 1 0 0 0 1-1v-4a1.0001 1.0001 0 0 0-1-1z" stop-color="#000000"/><path d="m6 7c-1.6447 0-3 1.3553-3 3v8c0 1.6447 1.3553 3 3 3h12c1.6447 0 3-1.3553 3-3v-8c0-1.6447-1.3553-3-3-3zm0 2h12c0.5713 0 1 0.4287 1 1v8c0 0.5713-0.4287 1-1 1h-12c-0.5713 0-1-0.4287-1-1v-8c0-0.5713 0.4287-1 1-1z" stop-color="#000000"/><path d="m2 13a1 1 0 0 0-1 1 1 1 0 0 0 1 1h2a1 1 0 0 0 1-1 1 1 0 0 0-1-1z" stop-color="#000000"/><path d="m20 13a1 1 0 0 0-1 1 1 1 0 0 0 1 1h2a1 1 0 0 0 1-1 1 1 0 0 0-1-1z" stop-color="#000000"/><path d="m15 12a1 1 0 0 0-1 1v2a1 1 0 0 0 1 1 1 1 0 0 0 1-1v-2a1 1 0 0 0-1-1z" stop-color="#000000"/><path d="m9 12a1 1 0 0 0-1 1v2a1 1 0 0 0 1 1 1 1 0 0 0 1-1v-2a1 1 0 0 0-1-1z" stop-color="#000000"/></svg>
