<svg class="lucide lucide-calendar-search-icon lucide-calendar-search" width="24" height="24" stroke-linecap="round" stroke-linejoin="round" stroke-width="2" version="1.1" viewBox="0 0 24 24" xmlns="http://www.w3.org/2000/svg"><path d="m16 1a1 1 0 0 0-1 1v4a1 1 0 0 0 1 1 1 1 0 0 0 1-1v-4a1 1 0 0 0-1-1z" stop-color="#000000"/><path d="m5 3c-1.645 0-3 1.355-3 3v14c0 1.645 1.355 3 3 3h7.25a1 1 0 0 0 1-1 1 1 0 0 0-1-1h-7.25c-0.56413 0-1-0.43587-1-1v-14c0-0.56413 0.43587-1 1-1h14c0.56413 0 1 0.43587 1 1v5.75a1 1 0 0 0 1 1 1 1 0 0 0 1-1v-5.75c0-1.645-1.355-3-3-3z" stop-color="#000000"/><path d="m19.418 19.418a1 1 0 0 0 0 1.4141l1.875 1.875a1 1 0 0 0 1.4141 0 1 1 0 0 0 0-1.4141l-1.875-1.875a1 1 0 0 0-1.4141 0z" stop-color="#000000"/><path d="m3 9a1 1 0 0 0-1 1 1 1 0 0 0 1 1h18a1 1 0 0 0 1-1 1 1 0 0 0-1-1z" stop-color="#000000"/><path d="m8 1a1 1 0 0 0-1 1v4a1 1 0 0 0 1 1 1 1 0 0 0 1-1v-4a1 1 0 0 0-1-1z" stop-color="#000000"/><path d="m18 14c-2.1973 0-4 1.8027-4 4s1.8027 4 4 4 4-1.8027 4-4-1.8027-4-4-4zm0 2c1.1164 0 2 0.88359 2 2s-0.88359 2-2 2-2-0.88359-2-2 0.88359-2 2-2z" stop-color="#000000"/></svg>
