<svg class="lucide lucide-send-horizontal-icon lucide-send-horizontal" width="24" height="24" stroke-linecap="round" stroke-linejoin="round" stroke-width="2" version="1.1" viewBox="0 0 24 24" xmlns="http://www.w3.org/2000/svg"><path d="m3.2578 2.0234c-0.29471 0.048213-0.5694 0.18004-0.77539 0.36914-0.41154 0.37779-0.61249 1.0487-0.38477 1.6406 2.46e-4 6.397e-4 -2.471e-4 0.00131 0 0.00195l2.8398 7.6152c0.083919 0.22534 0.083919 0.47388 0 0.69922l-2.8379 7.6152c-2.458e-4 6.38e-4 2.447e-4 0.0013 0 2e-3 -0.22656 0.59123-0.027856 1.2631 0.38281 1.6406 0.41067 0.37755 1.0959 0.51951 1.666 0.24414h0.00195l17.99-8.4961c1.0824-0.5119 1.0824-2.199 0-2.7109l-17.994-8.4961c-0.28391-0.13707-0.59586-0.1729-0.88867-0.125zm1.1406 2.4551 15.93 7.5215-15.93 7.5215 2.4121-6.4746c0.25143-0.67512 0.25143-1.4186 0-2.0938z" stop-color="#000000"/><path d="m6 11a1 1 0 0 0-1 1 1 1 0 0 0 1 1h16a1 1 0 0 0 1-1 1 1 0 0 0-1-1z" stop-color="#000000"/></svg>
