<svg class="lucide lucide-camera-icon lucide-camera" width="24" height="24" stroke-linecap="round" stroke-linejoin="round" stroke-width="2" version="1.1" viewBox="0 0 24 24" xmlns="http://www.w3.org/2000/svg"><path d="m10.004 3c-1.0996-6.02e-5 -2.1153 0.60526-2.6387 1.5723l-0.48828 0.9043c-0.17562 0.32447-0.51191 0.52346-0.88086 0.52344h-1.9961c-1.645 0-3 1.355-3 3v9c0 1.645 1.355 3 3 3h16c1.645 0 3-1.355 3-3v-9c0-1.645-1.355-3-3-3h-1.9961c-0.36935 5.2e-6 -0.70542-0.20036-0.88086-0.52539l-0.48633-0.90039c-0.52285-0.96863-1.5399-1.5742-2.6406-1.5742zm0 2h3.9922c0.36935-5.2e-6 0.70542 0.20036 0.88086 0.52539l0.48633 0.90039c0.52285 0.96863 1.5399 1.5742 2.6406 1.5742h1.9961c0.56413 0 1 0.43587 1 1v9c0 0.56413-0.43587 1-1 1h-16c-0.56413 0-1-0.43587-1-1v-9c0-0.56413 0.43587-1 1-1h1.9961c1.0996 6.02e-5 2.1153-0.60526 2.6387-1.5723l0.49023-0.9043c0.17562-0.32447 0.50996-0.52346 0.87891-0.52344z" stop-color="#000000"/><path d="m12 9c-2.1973 0-4 1.8027-4 4s1.8027 4 4 4c2.1973 0 4-1.8027 4-4s-1.8027-4-4-4zm0 2c1.1164 0 2 0.88359 2 2s-0.88359 2-2 2-2-0.88359-2-2 0.88359-2 2-2z" stop-color="#000000"/></svg>
