<svg class="lucide lucide-settings-icon lucide-settings" width="24" height="24" stroke-linecap="round" stroke-linejoin="round" stroke-width="2" version="1.1" viewBox="0 0 24 24" xmlns="http://www.w3.org/2000/svg"><path d="m12 1.0176c-1.5265 0-3.1444 1.1312-3.3242 3.0234a1 1 0 0 0 0.00195 0.00195 1 1 0 0 0-0.00391 0.00586c-0.084634 0.95704-1.0314 1.5014-1.9023 1.0957a1.0001 1.0001 0 0 0-0.00977-0.00391c-1.7258-0.78087-3.508 0.052383-4.2695 1.3711-0.76154 1.3187-0.59361 3.2803 0.94531 4.3848a1.0001 1.0001 0 0 0 0.00977 0.0059c0.78614 0.55161 0.78614 1.6417 0 2.1934a1.0001 1.0001 0 0 0-0.00781 0.0059c-1.5414 1.1041-1.7096 3.0673-0.94727 4.3867s2.5451 2.1549 4.2715 1.3711a1.0001 1.0001 0 0 0 0.00977-0.0059c0.8711-0.40627 1.8179 0.14019 1.9023 1.0977a1.0001 1.0001 0 0 0 0 0.0059c0.17986 1.8922 1.7977 3.0253 3.3242 3.0253s3.1463-1.1331 3.3262-3.0254a1.0001 1.0001 0 0 0 0-0.0059c0.08464-0.95703 1.0295-1.5034 1.9004-1.0977a1.0001 1.0001 0 0 0 0.0098 0.0059c1.7264 0.78381 3.5092-0.05165 4.2715-1.3711 0.76229-1.3194 0.5941-3.2826-0.94726-4.3867a1.0001 1.0001 0 0 0-0.0078-0.0059c-0.78614-0.55161-0.78614-1.6417 0-2.1934a1.0001 1.0001 0 0 0 0.0078-0.0059c1.5413-1.104 1.7095-3.0652 0.94723-4.3847-0.76229-1.3194-2.5451-2.1549-4.2715-1.3711a1.0001 1.0001 0 0 0-0.0098 0.00391c-0.87091 0.4057-1.8158-0.13867-1.9004-1.0957a1.0001 1.0001 0 0 0 0-0.00781c-0.17983-1.8923-1.7996-3.0234-3.3261-3.0234zm0 2c0.6687 0 1.2453 0.2804 1.334 1.2129v-0.00586c0.2013 2.276 2.6651 3.6973 4.7363 2.7324l-0.0078 0.00391c0.84967-0.38576 1.3812-0.026789 1.7148 0.55078 0.33368 0.57757 0.37774 1.2164-0.38086 1.7598l0.0078-0.00586c-1.8697 1.3119-1.8697 4.1568 0 5.4688l-0.0078-0.0059c0.7586 0.54339 0.71454 1.1822 0.38086 1.7598-0.33368 0.57757-0.86518 0.93459-1.7148 0.54883l0.0078 0.0039c-2.0712-0.96484-4.535 0.45834-4.7363 2.7344v-0.0078c-0.088636 0.93252-0.66528 1.2149-1.334 1.2149s-1.2453-0.28236-1.334-1.2148c-0.2063-2.272-2.6693-3.6915-4.7383-2.7266l0.00977-0.0039c-0.84967 0.38575-1.3812 0.028735-1.7148-0.54884-0.33368-0.57757-0.37774-1.2164 0.38086-1.7598l-0.00781 0.0059c1.8697-1.3119 1.8697-4.1568 0-5.4688l0.00781 0.00586c-0.75704-0.54335-0.71217-1.1808-0.37891-1.7579 0.33326-0.5771 0.86393-0.93491 1.7129-0.55078l-0.00977-0.00586c2.0687 0.96364 4.5297-0.45352 4.7363-2.7246a1 1 0 0 0 2e-3 -0.00195c0.088589-0.93249 0.66523-1.2129 1.3339-1.2129z" stop-color="#000000"/><path d="m12 8c-2.1973 0-4 1.8027-4 4 0 2.1973 1.8027 4 4 4 2.1973 0 4-1.8027 4-4 0-2.1973-1.8027-4-4-4zm0 2c1.1164 0 2 0.88359 2 2s-0.88359 2-2 2-2-0.88359-2-2 0.88359-2 2-2z" stop-color="#000000"/></svg>
