<svg class="lucide lucide-smile-plus-icon lucide-smile-plus" width="24" height="24" stroke-linecap="round" stroke-linejoin="round" stroke-width="2" version="1.1" viewBox="0 0 24 24" xmlns="http://www.w3.org/2000/svg"><path d="m13.1 1.0059c-4.9558-0.49802-9.0094 2.2157-10.912 5.9707-1.9027 3.755-1.6948 8.6303 1.6367 12.332 3.3315 3.7017 8.1578 4.418 12.092 2.9199 3.934-1.498 7.059-5.2419 7.084-10.223a1.0001 1.0001 0 0 0 0-0.005859v-1a1 1 0 0 0-1-1 1 1 0 0 0-1 1v1c-0.02332 4.157-2.5562 7.1273-5.7969 8.3613-3.2422 1.2346-7.11 0.70113-9.8926-2.3906s-2.9061-6.9951-1.3379-10.09c1.5682-3.0947 4.7883-5.3027 8.9277-4.8867a1 1 0 0 0 1.0938-0.89453 1 1 0 0 0-0.89453-1.0938z" stop-color="#000000"/><path d="m8.1406 13.01a1 1 0 0 0-0.74023 0.18945 1 1 0 0 0-0.20117 1.4004s1.7674 2.4004 4.8008 2.4004c3.0333 0 4.8008-2.4004 4.8008-2.4004a1 1 0 0 0-0.20117-1.4004 1 1 0 0 0-1.4004 0.20117s-1.2326 1.5996-3.1992 1.5996-3.1992-1.5996-3.1992-1.5996a1 1 0 0 0-0.66016-0.39062z" stop-color="#000000"/><path d="m9 8a1 1 0 0 0-1 1 1 1 0 0 0 1 1h0.00977a1 1 0 0 0 1-1 1 1 0 0 0-1-1z" stop-color="#000000"/><path d="m15 8a1 1 0 0 0-1 1 1 1 0 0 0 1 1h0.0098a1 1 0 0 0 1-1 1 1 0 0 0-1-1z" stop-color="#000000"/><path d="m16 4a1 1 0 0 0-1 1 1 1 0 0 0 1 1h6a1 1 0 0 0 1-1 1 1 0 0 0-1-1z" stop-color="#000000"/><path d="m19 1a1 1 0 0 0-1 1v6a1 1 0 0 0 1 1 1 1 0 0 0 1-1v-6a1 1 0 0 0-1-1z" stop-color="#000000"/></svg>
