<svg class="lucide lucide-mic-off-icon lucide-mic-off" width="24" height="24" stroke-linecap="round" stroke-linejoin="round" stroke-width="2" version="1.1" viewBox="0 0 24 24" xmlns="http://www.w3.org/2000/svg"><path d="m12 18a1 1 0 0 0-1 1v3a1 1 0 0 0 1 1 1 1 0 0 0 1-1v-3a1 1 0 0 0-1-1z" stop-color="#000000"/><path d="m12.912 1.123c-1.6309-0.38188-3.5767 0.2893-4.4863 2.0977a1 1 0 0 0 0.44531 1.3418 1 1 0 0 0 1.3418-0.44336c0.50677-1.0075 1.3919-1.2479 2.2422-1.0488 0.85026 0.19909 1.5381 0.80781 1.5449 1.9355v4.334a1 1 0 0 0 1 1 1 1 0 0 0 1-1v-4.3398a1.0001 1.0001 0 0 0 0-0.00586c-0.012197-2.0242-1.457-3.4892-3.0879-3.8711z" stop-color="#000000"/><path d="m5 9a1 1 0 0 0-1 1v2c-2.541e-4 3.5214 2.1647 6.2421 4.9375 7.3906 2.7728 1.1486 6.2289 0.75576 8.7188-1.7344a1 1 0 0 0 0-1.4141 1 1 0 0 0-1.4141 0c-1.9199 1.9201-4.4392 2.1706-6.5391 1.3008-2.0999-0.86982-3.7033-2.8276-3.7031-5.543v-2a1 1 0 0 0-1-1z" stop-color="#000000"/><path d="m19 9a1 1 0 0 0-1 1v2c-3.08e-4 0.35352-0.03132 0.70477-0.09375 1.0527a1 1 0 0 0 0.80664 1.1621 1 1 0 0 0 1.1621-0.80859c0.083235-0.46395 0.12459-0.93489 0.125-1.4062v-2a1 1 0 0 0-1-1z" stop-color="#000000"/><path d="m1.293 1.293a1 1 0 0 0 0 1.4141l20 20a1 1 0 0 0 1.4141 0 1 1 0 0 0 0-1.4141l-20-20a1 1 0 0 0-1.4141 0z" stop-color="#000000"/><path d="m9 8a1 1 0 0 0-1 1v3c0.00153 1.7381 1.0909 3.122 2.4707 3.6934 1.3798 0.57132 3.1257 0.36299 4.3555-0.86523a1 1 0 0 0 2e-3 -1.4141 1 1 0 0 0-1.4141-2e-3c-0.65978 0.65896-1.4725 0.72643-2.1797 0.43359-0.70728-0.29279-1.2336-0.91317-1.2344-1.8457v-3a1 1 0 0 0-1-1z" stop-color="#000000"/></svg>
