<svg class="lucide lucide-package-plus-icon lucide-package-plus" width="24" height="24" fill="none" stroke="currentColor" stroke-linecap="round" stroke-linejoin="round" stroke-width="2" version="1.1" viewBox="0 0 24 24" xmlns="http://www.w3.org/2000/svg"><path d="m16 16h6"/><path d="m19 13v6"/><path d="M21 10V8a2 2 0 0 0-1-1.73l-7-4a2 2 0 0 0-2 0l-7 4A2 2 0 0 0 3 8v8a2 2 0 0 0 1 1.73l7 4a2 2 0 0 0 2 0l2-1.14"/><path d="m7.5 4.27 9 5.15"/><path d="m3.29 7 8.71 5 8.71-5"/><path d="m12 22v-10"/></svg>
