<svg class="lucide lucide-search-icon lucide-search" width="24" height="24" stroke-linecap="round" stroke-linejoin="round" stroke-width="2" version="1.1" viewBox="0 0 24 24" xmlns="http://www.w3.org/2000/svg"><path d="m15.953 15.953a1 1 0 0 0 0 1.4141l4.3398 4.3398a1 1 0 0 0 1.4141 0 1 1 0 0 0 0-1.4141l-4.3398-4.3398a1 1 0 0 0-1.4141 0z" stop-color="#000000"/><path d="m11 2c-4.9587 0-9 4.0413-9 9 0 4.9587 4.0413 9 9 9 4.9587 0 9-4.0413 9-9 0-4.9587-4.0413-9-9-9zm0 2c3.8778 0 7 3.1222 7 7 0 3.8778-3.1222 7-7 7-3.8778 0-7-3.1222-7-7 0-3.8778 3.1222-7 7-7z" stop-color="#000000"/></svg>
