<svg class="lucide lucide-calendar-icon lucide-calendar" width="24" height="24" stroke-linecap="round" stroke-linejoin="round" stroke-width="2" version="1.1" viewBox="0 0 24 24" xmlns="http://www.w3.org/2000/svg"><path d="m8 1a1 1 0 0 0-1 1v4a1 1 0 0 0 1 1 1 1 0 0 0 1-1v-4a1 1 0 0 0-1-1z" stop-color="#000000"/><path d="m16 1a1 1 0 0 0-1 1v4a1 1 0 0 0 1 1 1 1 0 0 0 1-1v-4a1 1 0 0 0-1-1z" stop-color="#000000"/><path d="m5 3c-1.6447 0-3 1.3553-3 3v14c0 1.6447 1.3553 3 3 3h14c1.6447 0 3-1.3553 3-3v-14c0-1.6447-1.3553-3-3-3zm0 2h14c0.5713 0 1 0.4287 1 1v14c0 0.5713-0.4287 1-1 1h-14c-0.5713 0-1-0.4287-1-1v-14c0-0.5713 0.4287-1 1-1z" stop-color="#000000"/><path d="m3 9a1 1 0 0 0-1 1 1 1 0 0 0 1 1h18a1 1 0 0 0 1-1 1 1 0 0 0-1-1z" stop-color="#000000"/></svg>
