<svg width="24" height="24" stroke-linecap="round" stroke-linejoin="round" stroke-width="2" version="1.1" viewBox="0 0 24 24" xmlns="http://www.w3.org/2000/svg"><g fill="#000" opacity=".9"><path d="m10.783 23.422c-1.5721-0.19361-2.9977-0.64192-4.2638-1.3408-3.3698-1.8601-5.5471-5.1434-5.9477-8.9687-0.06403-0.61152-0.026843-2.2261 0.064275-2.7907 0.40487-2.5087 1.5069-4.6891 3.2519-6.4341 1.7566-1.7566 3.9242-2.8474 6.476-3.2589 0.65999-0.10643 2.6099-0.10643 3.2699 0 2.5545 0.41193 4.7176 1.5005 6.476 3.2589 1.8723 1.8723 3.0111 4.2578 3.3117 6.9372 0.05398 0.48122 0.05402 1.8088 7e-5 2.3267-0.27536 2.6431-1.4243 5.0598-3.303 6.9474-1.7442 1.7526-3.9091 2.8467-6.4622 3.266-0.46385 0.07618-2.4051 0.11473-2.8733 0.05706z" fill-opacity=".49902" stop-color="#000000"/><path d="m10.332 0.43945c-2.5875 0.41726-4.7958 1.5283-6.5801 3.3125-1.7729 1.7729-2.8939 3.9936-3.3047 6.5391-0.098962 0.6132-0.13487 2.1879-0.066406 2.8418 0.40684 3.8855 2.6222 7.2278 6.0449 9.1172 1.289 0.71153 2.7403 1.167 4.334 1.3633 0.54225 0.06679 2.3898 0.02976 2.9277-0.05859 2.5886-0.42512 4.7944-1.5398 6.5664-3.3203 1.9088-1.9179 3.0776-4.3767 3.3574-7.0625 0.05745-0.55145 0.05833-1.8472 0-2.3672-0.30514-2.7201-1.4648-5.1504-3.3672-7.0527-1.786-1.786-3.99-2.8948-6.5801-3.3125-0.71852-0.11587-2.6135-0.11587-3.332 0zm0.0625 0.37891c0.60147-0.096992 2.6075-0.096992 3.209 0 2.5189 0.4062 4.6403 1.4743 6.3711 3.2051 1.8422 1.8422 2.9599 4.1837 3.2559 6.8223 0.04963 0.44246 0.05045 1.8028 0 2.2871-0.27092 2.6005-1.3995 4.9747-3.248 6.832-1.7165 1.7247-3.8398 2.7975-6.3574 3.2109-0.38974 0.06401-2.4241 0.1052-2.8184 0.05664-1.5504-0.19094-2.9521-0.63213-4.1953-1.3184-3.3169-1.8309-5.4554-5.0552-5.8496-8.8203-0.059595-0.56916-0.020776-2.2242 0.0625-2.7402 0.39894-2.472 1.4821-4.6129 3.1992-6.3301 1.7289-1.7289 3.855-2.7993 6.3711-3.2051z" fill-opacity=".097371" stop-color="#000000"/></g><path fill="#fff" d="m8.142 18.857c-0.72543-0.25608-1.2471-0.87625-1.369-1.6274-0.063756-0.39297-0.064366-10.036-6.602e-4 -10.435 0.21033-1.3189 1.6409-2.1216 2.8399-1.5934 0.10991 0.048412 2.1271 1.2111 4.4826 2.5838 4.5856 2.6723 4.657 2.7189 4.9236 3.2192 0.45641 0.85631 0.32655 1.7759-0.34652 2.4538-0.20754 0.20902-0.9036 0.63055-4.6109 2.7923-2.8618 1.6688-4.4585 2.5748-4.6336 2.6293-0.38434 0.11962-0.9092 0.11052-1.2854-0.02229zm5.1865-3.7361c2.3404-1.3632 4.3021-2.5203 4.3594-2.5714 0.15636-0.13957 0.22893-0.30982 0.22893-0.53705 0-0.2266-0.07192-0.39592-0.22893-0.53897-0.08821-0.08036-7.6157-4.492-8.4123-4.9302-0.44909-0.24704-0.86927-0.16649-1.0791 0.20685l-0.09405 0.16735v5.0921c0 5.4917-0.01213 5.2041 0.22895 5.4292 0.15413 0.1439 0.30155 0.19238 0.53406 0.17561 0.18236-0.01315 0.73067-0.31949 4.4631-2.4935z"/></svg>
