<svg class="lucide lucide-chevrons-down-icon lucide-chevrons-down" width="24" height="24" stroke-linecap="round" stroke-linejoin="round" stroke-width="2" version="1.1" viewBox="0 0 24 24" xmlns="http://www.w3.org/2000/svg"><path d="m7 5a1 1 0 0 0-0.70703 0.29297 1 1 0 0 0 0 1.4141l5 5a1.0001 1.0001 0 0 0 1.4141 0l5-5a1 1 0 0 0 0-1.4141 1 1 0 0 0-1.4141 0l-4.293 4.293-4.293-4.293a1 1 0 0 0-0.70703-0.29297z" stop-color="#000000"/><path d="m7 12a1 1 0 0 0-0.70703 0.29297 1 1 0 0 0 0 1.4141l5 5a1.0001 1.0001 0 0 0 1.4141 0l5-5a1 1 0 0 0 0-1.4141 1 1 0 0 0-1.4141 0l-4.293 4.293-4.293-4.293a1 1 0 0 0-0.70703-0.29297z" stop-color="#000000"/></svg>
