<svg class="lucide lucide-circle-dashed-icon lucide-circle-dashed" width="24" height="24" stroke-linecap="round" stroke-linejoin="round" stroke-width="2" version="1.1" viewBox="0 0 24 24" xmlns="http://www.w3.org/2000/svg"><path d="m9.9102 1.2012a1 1 0 0 0-0.79102 1.1699 1 1 0 0 0 1.1699 0.79297c1.1295-0.21859 2.2923-0.21859 3.4219 0a1 1 0 0 0 1.1699-0.79297 1 1 0 0 0-0.79102-1.1699c-1.3805-0.26716-2.7992-0.26716-4.1797 0z" stop-color="#000000"/><path d="m10.289 20.836a1 1 0 0 0-1.1699 0.79297 1 1 0 0 0 0.79102 1.1699c1.3805 0.26716 2.7992 0.26716 4.1797 0a1 1 0 0 0 0.79102-1.1699 1 1 0 0 0-1.1699-0.79297c-1.1295 0.21859-2.2923 0.21859-3.4219 0z" stop-color="#000000"/><path d="m17.42 2.7383a1 1 0 0 0-0.63867 0.42188 1 1 0 0 0 0.26758 1.3887c0.95533 0.64731 1.7762 1.472 2.4199 2.4297a1 1 0 0 0 1.3887 0.27148 1 1 0 0 0 0.27148-1.3867c-0.7868-1.1705-1.7914-2.1796-2.959-2.9707a1 1 0 0 0-0.75-0.1543z" stop-color="#000000"/><path d="m2.3711 9.1191a1 1 0 0 0-1.1699 0.79102c-0.26716 1.3805-0.26716 2.7992 0 4.1797a1 1 0 0 0 1.1699 0.79102 1 1 0 0 0 0.79297-1.1699c-0.21859-1.1295-0.21859-2.2923 0-3.4219a1 1 0 0 0-0.79297-1.1699z" stop-color="#000000"/><path d="m20.84 16.781a1 1 0 0 0-1.3887 0.26758c-0.64731 0.95533-1.472 1.7762-2.4297 2.4199a1 1 0 0 0-0.27148 1.3887 1 1 0 0 0 1.3867 0.27148c1.1705-0.7868 2.1796-1.7914 2.9707-2.959a1 1 0 0 0-0.26758-1.3887z" stop-color="#000000"/><path d="m21.629 9.1191a1 1 0 0 0-0.79297 1.1699c0.21859 1.1295 0.21859 2.2923 0 3.4219a1 1 0 0 0 0.79297 1.1699 1 1 0 0 0 1.1699-0.79102c0.26716-1.3805 0.26716-2.7992 0-4.1797a1 1 0 0 0-1.1699-0.79102z" stop-color="#000000"/><path d="m5.8633 2.8711c-1.1705 0.7868-2.1796 1.7914-2.9707 2.959a1 1 0 0 0 0.26758 1.3887 1 1 0 0 0 1.3887-0.26758c0.64731-0.95533 1.472-1.7762 2.4297-2.4199a1 1 0 0 0 0.27148-1.3887 1 1 0 0 0-1.3867-0.27148z" stop-color="#000000"/><path d="m3.1426 16.75a1 1 0 0 0-0.27148 1.3867c0.7868 1.1705 1.7914 2.1796 2.959 2.9707a1 1 0 0 0 1.3887-0.26758 1 1 0 0 0-0.26758-1.3887c-0.95533-0.64731-1.7762-1.472-2.4199-2.4297a1 1 0 0 0-1.3887-0.27148z" stop-color="#000000"/></svg>
