<svg class="lucide lucide-chevron-first-icon lucide-chevron-first" width="24" height="24" stroke-linecap="round" stroke-linejoin="round" stroke-width="2" version="1.1" viewBox="0 0 24 24" xmlns="http://www.w3.org/2000/svg"><path d="m16.293 5.293-6 6a1.0001 1.0001 0 0 0 0 1.4141l6 6a1 1 0 0 0 1.4141 0 1 1 0 0 0 0-1.4141l-5.293-5.293 5.293-5.293a1 1 0 0 0 0-1.4141 1 1 0 0 0-1.4141 0z" stop-color="#000000"/><path d="m7 5a1 1 0 0 0-1 1v12a1 1 0 0 0 1 1 1 1 0 0 0 1-1v-12a1 1 0 0 0-1-1z" stop-color="#000000"/></svg>
