<svg class="lucide lucide-rewind-icon lucide-rewind" width="24" height="24" stroke-linecap="round" stroke-linejoin="round" stroke-width="2" version="1.1" viewBox="0 0 24 24" xmlns="http://www.w3.org/2000/svg"><path d="m9.4688 3.0508c-0.57383 0.10163-1.1324 0.37081-1.5898 0.82812l-6 6c-1.1628 1.1631-1.1628 3.0791 0 4.2422l6 6c0.91491 0.91464 2.2372 1.078 3.2695 0.65039 1.0324-0.42758 1.8513-1.4778 1.8516-2.7715v-12c-2.76e-4 -1.2937-0.81919-2.3439-1.8516-2.7715-0.51619-0.21379-1.1059-0.27936-1.6797-0.17773zm0.91406 2.0254c0.35956 0.14892 0.61708 0.43606 0.61719 0.92383v12c-1.04e-4 0.48777-0.25762 0.7749-0.61719 0.92383-0.35957 0.14892-0.74489 0.12806-1.0898-0.2168l-6-6c-0.39875-0.39887-0.39875-1.0152 0-1.4141l6-6c0.34496-0.34485 0.73028-0.36572 1.0898-0.2168z" stop-color="#000000"/><path d="m19.469 3.0508c-0.57383 0.10163-1.1324 0.37081-1.5898 0.82812l-6 6c-1.1628 1.1631-1.1628 3.0791 0 4.2422l6 6c0.91491 0.91464 2.2372 1.078 3.2695 0.65039 1.0324-0.42758 1.8513-1.4778 1.8516-2.7715v-12c-2.76e-4 -1.2937-0.81919-2.3439-1.8516-2.7715-0.51618-0.21379-1.1059-0.27936-1.6797-0.17773zm0.91406 2.0254c0.35957 0.14892 0.61708 0.43606 0.61719 0.92383v12c-1.04e-4 0.48777-0.25762 0.7749-0.61719 0.92383-0.35956 0.14892-0.74488 0.12806-1.0898-0.2168l-6-6c-0.39875-0.39887-0.39875-1.0152 0-1.4141l6-6c0.34496-0.34485 0.73028-0.36572 1.0898-0.2168z" stop-color="#000000"/></svg>
