<?xml version="1.0" encoding="UTF-8" standalone="no"?>
<svg
   width="24"
   height="24"
   viewBox="0 0 24 24"
   fill="none"
   stroke="currentColor"
   stroke-width="2"
   stroke-linecap="round"
   stroke-linejoin="round"
   class="lucide lucide-megaphone-off"
   version="1.1"
   id="svg3"
   sodipodi:docname="lucide-megaphone-off-symbolic.svg"
   inkscape:version="1.3.2 (091e20ef0f, 2023-11-25, custom)"
   xmlns:inkscape="http://www.inkscape.org/namespaces/inkscape"
   xmlns:sodipodi="http://sodipodi.sourceforge.net/DTD/sodipodi-0.dtd"
   xmlns="http://www.w3.org/2000/svg"
   xmlns:svg="http://www.w3.org/2000/svg">
  <defs
     id="defs3" />
  <sodipodi:namedview
     id="namedview3"
     pagecolor="#ffffff"
     bordercolor="#666666"
     borderopacity="1.0"
     inkscape:showpageshadow="2"
     inkscape:pageopacity="0.0"
     inkscape:pagecheckerboard="0"
     inkscape:deskcolor="#d1d1d1"
     inkscape:zoom="32.25"
     inkscape:cx="12"
     inkscape:cy="12"
     inkscape:window-width="1920"
     inkscape:window-height="999"
     inkscape:window-x="0"
     inkscape:window-y="0"
     inkscape:window-maximized="1"
     inkscape:current-layer="svg3" />
  <path
     style="color:#000000;fill:#000000;-inkscape-stroke:none;stroke:none"
     d="M 8.9921875,8.296875 2.7324219,10.037109 A 1.0001,1.0001 0 0 0 2,11 v 3 a 1.0001,1.0001 0 0 0 0.7832031,0.976563 l 14.1406249,3.140624 a 1,1 0 0 0 1.193359,-0.759765 1,1 0 0 0 -0.759765,-1.19336 L 4,13.197266 v -1.4375 l 5.5273438,-1.53711 A 1,1 0 0 0 10.222656,8.9921875 1,1 0 0 0 8.9921875,8.296875 Z"
     id="path1" />
  <path
     style="color:#000000;fill:#000000;-inkscape-stroke:none;stroke:none"
     d="M 20.732422,5.0371094 13.421875,7.0664062 A 1,1 0 0 0 12.726563,8.296875 1,1 0 0 0 13.957031,8.9941406 L 20,7.3144531 v 8.0253909 a 1,1 0 0 0 1,1 1,1 0 0 0 1,-1 V 6 A 1.0001,1.0001 0 0 0 20.732422,5.0371094 Z"
     id="path2" />
  <path
     style="color:#000000;fill:#000000;-inkscape-stroke:none;stroke:none"
     d="m 6.0664062,14.236328 a 1,1 0 0 0 -1.2304687,0.697266 c -0.3331485,1.207663 -0.1287958,2.369539 0.4316406,3.234375 0.5604365,0.864835 1.427968,1.436217 2.3671875,1.695312 0.9392196,0.259095 1.9758129,0.214942 2.9003904,-0.240234 0.924578,-0.455177 1.696149,-1.348977 2.029297,-2.556641 a 1,1 0 0 0 -0.699219,-1.230468 1,1 0 0 0 -1.228515,0.697265 C 10.436535,17.25887 10.081931,17.616636 9.6523438,17.828125 9.2227563,18.039614 8.6767946,18.076451 8.1660156,17.935547 7.6552366,17.794642 7.2057087,17.483861 6.9453125,17.082031 6.6849163,16.680202 6.5634878,16.192464 6.7636719,15.466797 A 1,1 0 0 0 6.0664062,14.236328 Z"
     id="path3" />
  <path
     style="color:#000000;fill:#000000;-inkscape-stroke:none;stroke:none"
     d="m 2,1 a 1,1 0 0 0 -0.7070313,0.2929687 1,1 0 0 0 0,1.4140626 L 21.292969,22.707031 a 1,1 0 0 0 1.414062,0 1,1 0 0 0 0,-1.414062 L 2.7070313,1.2929687 A 1,1 0 0 0 2,1 Z"
     id="line3" />
</svg>
