<svg class="lucide lucide-italic-icon lucide-italic" width="24" height="24" stroke-linecap="round" stroke-linejoin="round" stroke-width="2" version="1.1" viewBox="0 0 24 24" xmlns="http://www.w3.org/2000/svg"><path d="m10 3a1 1 0 0 0-1 1 1 1 0 0 0 1 1h9a1 1 0 0 0 1-1 1 1 0 0 0-1-1z" stop-color="#000000"/><path d="m5 19a1 1 0 0 0-1 1 1 1 0 0 0 1 1h9a1 1 0 0 0 1-1 1 1 0 0 0-1-1z" stop-color="#000000"/><path d="m15.352 3.0645a1 1 0 0 0-1.2871 0.58398l-6 16a1 1 0 0 0 0.58398 1.2871 1 1 0 0 0 1.2871-0.58398l6-16a1 1 0 0 0-0.58398-1.2871z" stop-color="#000000"/></svg>
