<svg class="lucide lucide-monitor-smartphone-icon lucide-monitor-smartphone" width="24" height="24" stroke-linecap="round" stroke-linejoin="round" stroke-width="2" version="1.1" viewBox="0 0 24 24" xmlns="http://www.w3.org/2000/svg"><path d="m4 3c-1.645 0-3 1.355-3 3v7c0 1.645 1.355 3 3 3h8a1 1 0 0 0 1-1 1 1 0 0 0-1-1h-8c-0.56413 0-1-0.43587-1-1v-7c0-0.56413 0.43587-1 1-1h12c0.56413 0 1 0.43587 1 1v2a1 1 0 0 0 1 1 1 1 0 0 0 1-1v-2c0-1.645-1.355-3-3-3z" stop-color="#000000"/><path d="m10 14.055a1.0001 1.0001 0 0 0-1 0.98438v3.9609a1 1 0 0 0 1 1 1 1 0 0 0 1-1v-3.9609a1.0001 1.0001 0 0 0-1-0.98438z" stop-color="#000000"/><path d="m7 18a1 1 0 0 0-1 1 1 1 0 0 0 1 1h5a1 1 0 0 0 1-1 1 1 0 0 0-1-1z" stop-color="#000000"/><path d="m18 11c-1.6447 0-3 1.3553-3 3v6c0 1.6447 1.3553 3 3 3h2c1.6447 0 3-1.3553 3-3v-6c0-1.6447-1.3553-3-3-3zm0 2h2c0.5713 0 1 0.4287 1 1v6c0 0.5713-0.4287 1-1 1h-2c-0.5713 0-1-0.4287-1-1v-6c0-0.5713 0.4287-1 1-1z" stop-color="#000000"/></svg>
