<svg class="lucide lucide-briefcase-icon lucide-briefcase" width="24" height="24" stroke-linecap="round" stroke-linejoin="round" stroke-width="2" version="1.1" viewBox="0 0 24 24" xmlns="http://www.w3.org/2000/svg"><path d="m10 1c-1.645 0-3 1.355-3 3v16a1 1 0 0 0 1 1 1 1 0 0 0 1-1v-16c0-0.56413 0.43587-1 1-1h4c0.56413 0 1 0.43587 1 1v16a1 1 0 0 0 1 1 1 1 0 0 0 1-1v-16c0-1.645-1.355-3-3-3z" stop-color="#000000"/><path d="m4 5c-1.6447 0-3 1.3553-3 3v10c0 1.6447 1.3553 3 3 3h16c1.6447 0 3-1.3553 3-3v-10c0-1.6447-1.3553-3-3-3zm0 2h16c0.5713 0 1 0.4287 1 1v10c0 0.5713-0.4287 1-1 1h-16c-0.5713 0-1-0.4287-1-1v-10c0-0.5713 0.4287-1 1-1z" stop-color="#000000"/></svg>
