<svg class="lucide lucide-languages-icon lucide-languages" width="24" height="24" stroke-linecap="round" stroke-linejoin="round" stroke-width="2" version="1.1" viewBox="0 0 24 24" xmlns="http://www.w3.org/2000/svg"><path d="m5 7a1 1 0 0 0-0.70703 0.29297 1 1 0 0 0 0 1.4141l6 6a1 1 0 0 0 1.4141 0 1 1 0 0 0 0-1.4141l-6-6a1 1 0 0 0-0.70703-0.29297z" stop-color="#000000"/><path d="m12.555 4.168a1 1 0 0 0-1.3867 0.27734l-1.9453 2.918-5.9297 5.9297a1 1 0 0 0 0 1.4141 1 1 0 0 0 1.4141 0l6-6a1.0001 1.0001 0 0 0 0.125-0.15234l2-3a1 1 0 0 0-0.27734-1.3867z" stop-color="#000000"/><path d="m2 4a1 1 0 0 0-1 1 1 1 0 0 0 1 1h12a1 1 0 0 0 1-1 1 1 0 0 0-1-1z" stop-color="#000000"/><path d="m7 1a1 1 0 0 0-1 1 1 1 0 0 0 1 1h1a1 1 0 0 0 1-1 1 1 0 0 0-1-1z" stop-color="#000000"/><path d="m17 11a1.0001 1.0001 0 0 0-0.89453 0.55273l-5 10a1 1 0 0 0 0.44726 1.3418 1 1 0 0 0 1.3418-0.44726l4.1055-8.2109 4.1055 8.2109a1 1 0 0 0 1.3418 0.44726 1 1 0 0 0 0.44726-1.3418l-5-10a1.0001 1.0001 0 0 0-0.89453-0.55273z" stop-color="#000000"/><path d="m14 17a1 1 0 0 0-1 1 1 1 0 0 0 1 1h6a1 1 0 0 0 1-1 1 1 0 0 0-1-1z" stop-color="#000000"/></svg>
