<svg class="lucide lucide-database-backup-icon lucide-database-backup" width="24" height="24" stroke-linecap="round" stroke-linejoin="round" stroke-width="2" version="1.1" viewBox="0 0 24 24" xmlns="http://www.w3.org/2000/svg"><path d="m12 1c-2.5754 0-4.9062 0.33854-6.6797 0.92969-0.88672 0.29557-1.6379 0.64865-2.2324 1.1172s-1.0879 1.1336-1.0879 1.9531 0.49336 1.4846 1.0879 1.9531 1.3457 0.82161 2.2324 1.1172c1.7734 0.59115 4.1043 0.92969 6.6797 0.92969 2.5754 0 4.9062-0.33854 6.6797-0.92969 0.88672-0.29557 1.6379-0.64865 2.2324-1.1172 0.59453-0.46854 1.0879-1.1336 1.0879-1.9531s-0.49336-1.4846-1.0879-1.9531c-0.59453-0.46854-1.3457-0.82161-2.2324-1.1172-1.7734-0.59115-4.1043-0.92969-6.6797-0.92969zm0 2c2.3952 0 4.563 0.33349 6.0469 0.82812 0.74196 0.24732 1.3106 0.53977 1.627 0.78906s0.32617 0.37393 0.32617 0.38281c0 0.00888-0.0099 0.13352-0.32617 0.38281-0.31632 0.24929-0.885 0.54174-1.627 0.78906-1.4839 0.49464-3.6517 0.82812-6.0469 0.82812s-4.563-0.33349-6.0469-0.82812c-0.74196-0.24732-1.3106-0.53977-1.627-0.78906-0.31632-0.24929-0.32617-0.37393-0.32617-0.38281s0.0098507-0.13352 0.32617-0.38281c0.31632-0.24929 0.885-0.54174 1.627-0.78906 1.4839-0.49464 3.6517-0.82812 6.0469-0.82812z" stop-color="#000000"/><path d="m3.002 11a1 1 0 0 0-1.002 0.99805c-0.00293 1.1374 0.85787 1.9176 1.875 2.4648 1.0171 0.54722 2.3529 0.94696 3.9609 1.2129a1 1 0 0 0 1.1504-0.82226 1 1 0 0 0-0.82227-1.1504c-1.4572-0.24099-2.6245-0.61605-3.3418-1.002-0.71729-0.3859-0.82227-0.69599-0.82227-0.69922a1 1 0 0 0-0.99805-1.002z" stop-color="#000000"/><path d="m21 4a1 1 0 0 0-1 1v4.3008a1 1 0 0 0 1 1 1 1 0 0 0 1-1v-4.3008a1 1 0 0 0-1-1z" stop-color="#000000"/><path d="m3 4a1 1 0 0 0-1 1v14c-6.458e-4 0.66288 0.33517 1.2426 0.76758 1.6699s0.9776 0.75653 1.6211 1.043c1.287 0.57288 2.9879 0.96717 4.9844 1.1621a1 1 0 0 0 1.0918-0.89844 1 1 0 0 0-0.89844-1.0918c-1.8396-0.17962-3.374-0.55962-4.3633-1-0.49466-0.22019-0.84808-0.45764-1.0293-0.63672s-0.17383-0.24472-0.17383-0.24805v-14a1 1 0 0 0-1-1z" stop-color="#000000"/><path d="m12 11a1 1 0 0 0-1 1v4a1.0001 1.0001 0 0 0 1 1h4a1 1 0 0 0 1-1 1 1 0 0 0-1-1h-3v-3a1 1 0 0 0-1-1z" stop-color="#000000"/><path d="m17.5 11.5c-1.6007 0-3.0657 0.65161-4.1172 1.7031l-2.0898 2.0898a1 1 0 0 0 0 1.4141 1 1 0 0 0 1.4141 0l2.0898-2.0898c0.68848-0.68848 1.6438-1.1172 2.7031-1.1172 1.9448 0 3.5 1.5552 3.5 3.5 0 1.9782-1.2066 3.2857-2.7344 3.7949-1.5278 0.50925-3.2779 0.18802-4.4648-1.3945a1 1 0 0 0-1.4004-0.20117 1 1 0 0 0-0.20117 1.4004c1.6961 2.2615 4.4458 2.8423 6.6973 2.0918 2.2515-0.75049 4.1035-2.8645 4.1035-5.6914 0-3.0257-2.4743-5.5-5.5-5.5z" stop-color="#000000"/></svg>