<svg class="lucide lucide-arrow-right-icon lucide-arrow-right" width="24" height="24" stroke-linecap="round" stroke-linejoin="round" stroke-width="2" version="1.1" viewBox="0 0 24 24" xmlns="http://www.w3.org/2000/svg"><path d="m5 11a1 1 0 0 0-1 1 1 1 0 0 0 1 1h14a1 1 0 0 0 1-1 1 1 0 0 0-1-1z" stop-color="#000000"/><path d="m12 4a1 1 0 0 0-0.70703 0.29297 1 1 0 0 0 0 1.4141l6.293 6.293-6.293 6.293a1 1 0 0 0 0 1.4141 1 1 0 0 0 1.4141 0l7-7a1.0001 1.0001 0 0 0 0-1.4141l-7-7a1 1 0 0 0-0.70703-0.29297z" stop-color="#000000"/></svg>
