<svg class="lucide lucide-palette-icon lucide-palette" width="24" height="24" fill="none" stroke-linecap="round" stroke-linejoin="round" stroke-width="2" version="1.1" viewBox="0 0 24 24" xmlns="http://www.w3.org/2000/svg"><path d="m12 1c-6.0633 0-11 4.9367-11 11 0 6.0633 4.9367 11 11 11h0.25c2.2032 0 3.5211-2.6379 2.1992-4.4004l-0.29883-0.40039c-0.40859-0.54479-0.081376-1.1992 0.59961-1.1992h2.25c3.3019 0 6-2.6981 6-6 0-5.5711-4.9908-10-11-10zm0 2c5.0365 0 9 3.6299 9 8 0 2.221-1.779 4-4 4h-2.25c-2.2032 0-3.5211 2.6379-2.1992 4.4004l0.29883 0.40039c0.40859 0.54479 0.081376 1.1992-0.59961 1.1992h-0.25c-4.9824 0-9-4.0176-9-9 0-4.9824 4.0176-9 9-9z" fill="#000" stop-color="#000000"/><g><path d="m14 6.5a0.5 0.5 0 0 1-0.5 0.5 0.5 0.5 0 0 1-0.5-0.5 0.5 0.5 0 0 1 0.5-0.5 0.5 0.5 0 0 1 0.5 0.5z" fill="currentColor" stop-color="#000000"/><path d="m13.5 5c-0.81658 0-1.5 0.68342-1.5 1.5s0.68342 1.5 1.5 1.5 1.5-0.68342 1.5-1.5-0.68342-1.5-1.5-1.5zm0 1c0.2643 0 0.5 0.2357 0.5 0.5s-0.2357 0.5-0.5 0.5-0.5-0.2357-0.5-0.5 0.2357-0.5 0.5-0.5z" fill="#000" stop-color="#000000"/><path d="m18 10.5a0.5 0.5 0 0 1-0.5 0.5 0.5 0.5 0 0 1-0.5-0.5 0.5 0.5 0 0 1 0.5-0.5 0.5 0.5 0 0 1 0.5 0.5z" fill="currentColor" stop-color="#000000"/><path d="m17.5 9c-0.81658 0-1.5 0.68342-1.5 1.5 0 0.81658 0.68342 1.5 1.5 1.5s1.5-0.68342 1.5-1.5c0-0.81658-0.68342-1.5-1.5-1.5zm0 1c0.2643 0 0.5 0.2357 0.5 0.5s-0.2357 0.5-0.5 0.5-0.5-0.2357-0.5-0.5 0.2357-0.5 0.5-0.5z" fill="#000" stop-color="#000000"/><path d="m7 12.5a0.5 0.5 0 0 1-0.5 0.5 0.5 0.5 0 0 1-0.5-0.5 0.5 0.5 0 0 1 0.5-0.5 0.5 0.5 0 0 1 0.5 0.5z" fill="currentColor" stop-color="#000000"/><path d="m6.5 11c-0.81658 0-1.5 0.68342-1.5 1.5s0.68342 1.5 1.5 1.5 1.5-0.68342 1.5-1.5-0.68342-1.5-1.5-1.5zm0 1c0.2643 0 0.5 0.2357 0.5 0.5s-0.2357 0.5-0.5 0.5-0.5-0.2357-0.5-0.5 0.2357-0.5 0.5-0.5z" fill="#000" stop-color="#000000"/><path d="M 9,7.5 A 0.5,0.5 0 0 1 8.5,8 0.5,0.5 0 0 1 8,7.5 0.5,0.5 0 0 1 8.5,7 0.5,0.5 0 0 1 9,7.5 Z" fill="currentColor" stop-color="#000000"/><path d="m8.5 6c-0.81658 0-1.5 0.68342-1.5 1.5s0.68342 1.5 1.5 1.5 1.5-0.68342 1.5-1.5-0.68342-1.5-1.5-1.5zm0 1c0.2643 0 0.5 0.2357 0.5 0.5s-0.2357 0.5-0.5 0.5-0.5-0.2357-0.5-0.5 0.2357-0.5 0.5-0.5z" fill="#000" stop-color="#000000"/></g></svg>
