<svg class="lucide lucide-shield-x-icon lucide-shield-x" width="24" height="24" stroke-linecap="round" stroke-linejoin="round" stroke-width="2" version="1.1" viewBox="0 0 24 24" xmlns="http://www.w3.org/2000/svg"><path d="m12 1.0039c-0.50319 1e-7 -1.007 0.17115-1.4102 0.51562a1.0001 1.0001 0 0 0-0.0078 0.00781c-1.579 1.3793-3.982 2.4727-5.582 2.4727-1.0927 0-2 0.90728-2 2v7c0 2.7333 1.001 4.9107 2.5566 6.5039 1.5512 1.5887 3.6041 2.6234 5.7695 3.373 0.42938 0.15847 0.9004 0.16646 1.334 0.01953a1.0001 1.0001 0 0 0 0.0098-2e-3c2.1664-0.7551 4.2216-1.7964 5.7754-3.3906 1.5538-1.5941 2.5547-3.7705 2.5547-6.5039v-7c0-1.0927-0.90728-2-2-2-1.6033 0-3.9925-1.0829-5.582-2.4727a1.0001 1.0001 0 0 0-0.0078-0.00781c-0.4032-0.34447-0.90698-0.51563-1.4102-0.51563zm-0.11133 2.0371c0.06897-0.058923 0.15369-0.058923 0.22266 0 1.9095 1.6664 4.4958 2.959 6.8887 2.959v7c0 2.2667-0.75014 3.8391-1.9863 5.1074-1.2344 1.2665-3.004 2.1999-4.9941 2.8945a1.0001 1.0001 0 0 0-0.02344-0.0078c-1.9978-0.68991-3.7729-1.6219-5.0098-2.8887s-1.9863-2.8388-1.9863-5.1055v-7c2.3962 0 4.9885-1.3021 6.8887-2.959z" stop-color="#000000"/><path d="m14.5 8.5a1 1 0 0 0-0.70703 0.29297l-5 5a1 1 0 0 0 0 1.4141 1 1 0 0 0 1.4141 0l5-5a1 1 0 0 0 0-1.4141 1 1 0 0 0-0.70703-0.29297z" stop-color="#000000"/><path d="m9.5 8.5a1 1 0 0 0-0.70703 0.29297 1 1 0 0 0 0 1.4141l5 5a1 1 0 0 0 1.4141 0 1 1 0 0 0 0-1.4141l-5-5a1 1 0 0 0-0.70703-0.29297z" stop-color="#000000"/></svg>
