<svg class="lucide lucide-scan-qr-code-icon lucide-scan-qr-code" width="24" height="24" stroke-linecap="round" stroke-linejoin="round" stroke-width="2" version="1.1" viewBox="0 0 24 24" xmlns="http://www.w3.org/2000/svg"><path d="m17 11a1 1 0 0 0-1 1v4h-4a1 1 0 0 0-1 1 1 1 0 0 0 1 1h4c1.0927 0 2-0.90728 2-2v-4a1 1 0 0 0-1-1z" stop-color="#000000"/><path d="m17 2a1 1 0 0 0-1 1 1 1 0 0 0 1 1h2c0.56413 0 1 0.43587 1 1v2a1 1 0 0 0 1 1 1 1 0 0 0 1-1v-2c0-1.645-1.355-3-3-3z" stop-color="#000000"/><path d="m17 6a1 1 0 0 0-1 1v1a1 1 0 0 0 1 1 1 1 0 0 0 1-1v-1a1 1 0 0 0-1-1z" stop-color="#000000"/><path d="m21 16a1 1 0 0 0-1 1v2c0 0.56413-0.43587 1-1 1h-2a1 1 0 0 0-1 1 1 1 0 0 0 1 1h2c1.645 0 3-1.355 3-3v-2a1 1 0 0 0-1-1z" stop-color="#000000"/><path d="m5 2c-1.645 0-3 1.355-3 3v2a1 1 0 0 0 1 1 1 1 0 0 0 1-1v-2c0-0.56413 0.43587-1 1-1h2a1 1 0 0 0 1-1 1 1 0 0 0-1-1z" stop-color="#000000"/><path d="m7 16a1 1 0 0 0-1 1 1 1 0 0 0 1 1h0.00977a1 1 0 0 0 1-1 1 1 0 0 0-1-1z" stop-color="#000000"/><path d="m3 16a1 1 0 0 0-1 1v2c0 1.645 1.355 3 3 3h2a1 1 0 0 0 1-1 1 1 0 0 0-1-1h-2c-0.56413 0-1-0.43587-1-1v-2a1 1 0 0 0-1-1z" stop-color="#000000"/><path d="m8 6c-1.0907 0-2 0.9093-2 2v3c0 1.0907 0.9093 2 2 2h3c1.0907 0 2-0.9093 2-2v-3c0-1.0907-0.9093-2-2-2zm0 2h3v3h-3z" stop-color="#000000"/></svg>
