<svg class="lucide lucide-send-icon lucide-send" width="24" height="24" stroke-linecap="round" stroke-linejoin="round" stroke-width="2" version="1.1" viewBox="0 0 24 24" xmlns="http://www.w3.org/2000/svg"><path d="m21.83 1.0566c-0.26411-0.072517-0.55052-0.072383-0.83203 0.029297l-18.984 6.4941a1.0001 1.0001 0 0 0 0 0.00195c-0.61097 0.20953-0.99915 0.81192-1.0137 1.3789-0.014523 0.56699 0.34196 1.1911 0.94141 1.4316l7.9297 3.1797a1.0001 1.0001 0 0 0 0.00195 0c0.25369 0.10157 0.45266 0.30118 0.55469 0.55469l3.1797 7.9316c0.24053 0.59945 0.86465 0.95593 1.4316 0.94141 0.56699-0.01452 1.1694-0.4027 1.3789-1.0137a1.0001 1.0001 0 0 0 2e-3 0l6.4941-18.984c0.30504-0.84453-0.29165-1.7278-1.084-1.9453zm-1.1328 2.2461-5.7344 16.76-2.6777-6.6797a1.0001 1.0001 0 0 0-2e-3 -2e-3c-0.3052-0.7584-0.90911-1.3598-1.6679-1.664l-6.6797-2.6797z" stop-color="#000000"/><path d="m21.854 1.1465a1 1 0 0 0-0.70703 0.29297l-10.939 10.939a1 1 0 0 0 0 1.4141 1 1 0 0 0 1.4141 0l10.939-10.939a1 1 0 0 0 0-1.4141 1 1 0 0 0-0.70703-0.29297z" stop-color="#000000"/></svg>
