<svg class="lucide lucide-circle-question-mark-icon lucide-circle-question-mark" width="24" height="24" stroke-linecap="round" stroke-linejoin="round" stroke-width="2" version="1.1" viewBox="0 0 24 24" xmlns="http://www.w3.org/2000/svg"><path d="m12 1c-6.0633 0-11 4.9367-11 11 0 6.0633 4.9367 11 11 11 6.0633 0 11-4.9367 11-11 0-6.0633-4.9367-11-11-11zm0 2c4.9824 0 9 4.0176 9 9 0 4.9824-4.0176 9-9 9-4.9824 0-9-4.0176-9-9 0-4.9824 4.0176-9 9-9z" stop-color="#000000"/><path d="m12.596 6.0527c-1.727-0.29623-3.7344 0.5832-4.4492 2.6152a1 1 0 0 0 0.61133 1.2754 1 1 0 0 0 1.2754-0.61133c0.40595-1.154 1.3156-1.4645 2.2246-1.3086 0.90903 0.15592 1.6639 0.7513 1.6621 1.9746a1.0001 1.0001 0 0 0 0 0.00195c0 0.5-0.4327 1.0033-1.0547 1.418-0.62199 0.41466-1.2617 0.63281-1.2617 0.63281a1 1 0 0 0-0.63281 1.2656 1 1 0 0 0 1.2656 0.63281s0.86027-0.28185 1.7383-0.86719c0.8776-0.58507 1.9443-1.5812 1.9453-3.0801v-0.0019499c0.002189-2.153-1.5977-3.6511-3.3242-3.9473z" stop-color="#000000"/><path d="m12 16a1 1 0 0 0-1 1 1 1 0 0 0 1 1h0.0098a1 1 0 0 0 1-1 1 1 0 0 0-1-1z" stop-color="#000000"/></svg>
