<svg class="lucide lucide-zap-icon lucide-zap" width="24" height="24" fill="none" stroke="currentColor" stroke-linecap="round" stroke-linejoin="round" stroke-width="2" version="1.1" viewBox="0 0 24 24" xmlns="http://www.w3.org/2000/svg"><path d="m13.256 1.0312c-0.33339 0.053731-0.6575 0.21303-0.89258 0.48438l0.03906-0.042969-9.9004 10.201a1.0001 1.0001 0 0 0-0.058594 0.06641c-1.0183 1.2552-0.058612 3.2619 1.5566 3.2598h7a1.0001 1.0001 0 0 0 0.0039 0 1.0001 1.0001 0 0 0-0.01758 0.04687l-1.9199 6.0195a1.0001 1.0001 0 0 0-0.00977 0.03906c-0.19042 0.6923 0.19321 1.4292 0.73828 1.7207s1.3716 0.20088 1.8418-0.3418l-0.03906 0.04297 9.9004-10.201a1.0001 1.0001 0 0 0 0.05859-0.06641c1.0183-1.2552 0.058628-3.2619-1.5566-3.2598h-7a1.0001 1.0001 0 0 0-0.0039 0 1.0001 1.0001 0 0 0 0.01758-0.046875l1.9199-6.0195a1.0001 1.0001 0 0 0 0.0098-0.039063c0.19038-0.6923-0.19325-1.4292-0.73832-1.7207-0.27254-0.14578-0.61582-0.19631-0.94922-0.14258zm-0.88281 3.3438-1.2656 3.9707 0.015625-0.044922c-0.47799 1.2793 0.51521 2.7037 1.8809 2.6992h6.9941l-8.3711 8.625 1.2656-3.9707-0.01563 0.04492c0.47799-1.2793-0.5152-2.7037-1.8809-2.6992h-6.9941z" fill="#000" stop-color="#000000" stroke="none"/></svg>
