<svg class="lucide lucide-rotate-ccw-icon lucide-rotate-ccw" width="24" height="24" stroke-linecap="round" stroke-linejoin="round" stroke-width="2" version="1.1" viewBox="0 0 24 24" xmlns="http://www.w3.org/2000/svg"><path d="m11.996 2c-2.7738 0.010435-5.4374 1.0936-7.4316 3.0215a1.0001 1.0001 0 0 0-0.011719 0.011719l-2.2598 2.2598a1 1 0 0 0 0 1.4141 1 1 0 0 0 1.4141 0l2.248-2.248c1.6227-1.5687 3.788-2.4495 6.0449-2.459 3.6064 0 6.2327 2.1417 7.3906 4.9375 1.1579 2.7958 0.81536 6.169-1.7344 8.7188s-5.923 2.8923-8.7188 1.7344c-2.7958-1.1579-4.9375-3.7843-4.9375-7.3906a1 1 0 0 0-1-1 1 1 0 0 0-1 1c0 4.4123 2.7051 7.8017 6.1738 9.2383 3.4687 1.4366 7.7768 0.95169 10.896-2.168 3.1197-3.1197 3.6046-7.4278 2.168-10.896-1.4366-3.4687-4.8259-6.1738-9.2383-6.1738a1.0001 1.0001 0 0 0-0.0039 0z" stop-color="#000000"/><path d="m3 2a1 1 0 0 0-1 1v5a1.0001 1.0001 0 0 0 1 1h5a1 1 0 0 0 1-1 1 1 0 0 0-1-1h-4v-4a1 1 0 0 0-1-1z" stop-color="#000000"/></svg>
