<svg class="lucide lucide-camera-off-icon lucide-camera-off" width="24" height="24" stroke-linecap="round" stroke-linejoin="round" stroke-width="2" version="1.1" viewBox="0 0 24 24" xmlns="http://www.w3.org/2000/svg"><path d="m9.9219 9.582c-2.196 1.3343-2.5672 4.4313-0.75 6.248 1.8172 1.8168 4.9123 1.4425 6.2461-0.75391a1 1 0 0 0-0.33398-1.373 1 1 0 0 0-1.375 0.33594c-0.68534 1.1286-2.1893 1.3105-3.123 0.37695-0.93375-0.93353-0.75342-2.4394 0.375-3.125a1 1 0 0 0 0.33594-1.373 1 1 0 0 0-1.375-0.33594z" stop-color="#000000"/><path d="m1.293 1.293a1 1 0 0 0 0 1.4141l20 20a1 1 0 0 0 1.4141 0 1 1 0 0 0 0-1.4141l-20-20a1 1 0 0 0-1.4141 0z" stop-color="#000000"/><path d="m6.4062 5.9121c-0.12881 0.057746-0.26704 0.08795-0.4082 0.087891a1.0001 1.0001 0 0 0-0.00195 0h-1.9961c-1.645 0-3 1.355-3 3v9c0 1.645 1.355 3 3 3h16a1 1 0 0 0 1-1 1 1 0 0 0-1-1h-16c-0.56413 0-1-0.43587-1-1v-9c0-0.56413 0.43587-1 1-1h1.9961c0.42342 1.791e-4 0.84215-0.088508 1.2285-0.26172a1 1 0 0 0 0.50391-1.3223 1 1 0 0 0-1.3223-0.50391z" stop-color="#000000"/><path d="m10.004 3c-0.1552-7.2e-6 -0.30955 0.011185-0.46289 0.035156a1 1 0 0 0-0.83398 1.1426 1 1 0 0 0 1.1426 0.83398c0.051112-0.0079903 0.10256-0.011721 0.1543-0.011719h3.9922c0.36935-5.2e-6 0.70542 0.20036 0.88086 0.52539l0.48633 0.90039c0.52285 0.96863 1.5399 1.5742 2.6406 1.5742h1.9961c0.56413 0 1 0.43587 1 1v7.3438a1 1 0 0 0 1 1 1 1 0 0 0 1-1v-7.3438c0-1.645-1.355-3-3-3h-1.9961c-0.36935 5.2e-6 -0.70542-0.20036-0.88086-0.52539l-0.48633-0.90039c-0.52285-0.96863-1.5399-1.5742-2.6406-1.5742z" stop-color="#000000"/></svg>
