<?xml version="1.0" encoding="UTF-8" standalone="no"?>
<svg
   width="24"
   height="24"
   viewBox="0 0 24 24"
   fill="none"
   stroke="currentColor"
   stroke-width="2"
   stroke-linecap="round"
   stroke-linejoin="round"
   class="lucide lucide-notebook-tabs"
   version="1.1"
   id="svg8"
   sodipodi:docname="lucide-notebook-tabs-symbolic.svg"
   inkscape:version="1.4 (e7c3feb100, 2024-10-09)"
   xmlns:inkscape="http://www.inkscape.org/namespaces/inkscape"
   xmlns:sodipodi="http://sodipodi.sourceforge.net/DTD/sodipodi-0.dtd"
   xmlns="http://www.w3.org/2000/svg"
   xmlns:svg="http://www.w3.org/2000/svg">
  <defs
     id="defs8" />
  <sodipodi:namedview
     id="namedview8"
     pagecolor="#ffffff"
     bordercolor="#666666"
     borderopacity="1.0"
     inkscape:showpageshadow="2"
     inkscape:pageopacity="0.0"
     inkscape:pagecheckerboard="0"
     inkscape:deskcolor="#d1d1d1"
     inkscape:zoom="32.333333"
     inkscape:cx="12"
     inkscape:cy="12"
     inkscape:window-width="1920"
     inkscape:window-height="1005"
     inkscape:window-x="0"
     inkscape:window-y="0"
     inkscape:window-maximized="1"
     inkscape:current-layer="svg8" />
  <path
     style="fill:#000000;stroke:none"
     d="M 2,5 A 1,1 0 0 0 1,6 1,1 0 0 0 2,7 H 6 A 1,1 0 0 0 7,6 1,1 0 0 0 6,5 Z"
     id="path1" />
  <path
     style="fill:#000000;stroke:none"
     d="m 2,9 a 1,1 0 0 0 -1,1 1,1 0 0 0 1,1 H 6 A 1,1 0 0 0 7,10 1,1 0 0 0 6,9 Z"
     id="path2" />
  <path
     style="fill:#000000;stroke:none"
     d="m 2,13 a 1,1 0 0 0 -1,1 1,1 0 0 0 1,1 H 6 A 1,1 0 0 0 7,14 1,1 0 0 0 6,13 Z"
     id="path3" />
  <path
     style="fill:#000000;stroke:none"
     d="m 2,17 a 1,1 0 0 0 -1,1 1,1 0 0 0 1,1 H 6 A 1,1 0 0 0 7,18 1,1 0 0 0 6,17 Z"
     id="path4" />
  <path
     style="fill:#000000;stroke:none"
     d="M 6,1 C 4.3552972,1 3,2.3552972 3,4 v 16 c 0,1.644703 1.3552972,3 3,3 h 12 c 1.644703,0 3,-1.355297 3,-3 V 4 C 21,2.3552972 19.644703,1 18,1 Z m 0,2 h 12 c 0.571297,0 1,0.4287028 1,1 v 16 c 0,0.571297 -0.428703,1 -1,1 H 6 C 5.4287028,21 5,20.571297 5,20 V 4 C 5,3.4287028 5.4287028,3 6,3 Z"
     id="rect4" />
  <path
     style="fill:#000000;stroke:none"
     d="m 15,1 a 1,1 0 0 0 -1,1 v 20 a 1,1 0 0 0 1,1 1,1 0 0 0 1,-1 V 2 A 1,1 0 0 0 15,1 Z"
     id="path5" />
  <path
     style="fill:#000000;stroke:none"
     d="m 15,6 a 1,1 0 0 0 -1,1 1,1 0 0 0 1,1 h 5 A 1,1 0 0 0 21,7 1,1 0 0 0 20,6 Z"
     id="path6" />
  <path
     style="fill:#000000;stroke:none"
     d="m 15,11 a 1,1 0 0 0 -1,1 1,1 0 0 0 1,1 h 5 a 1,1 0 0 0 1,-1 1,1 0 0 0 -1,-1 z"
     id="path7" />
  <path
     style="fill:#000000;stroke:none"
     d="m 15,16 a 1,1 0 0 0 -1,1 1,1 0 0 0 1,1 h 5 a 1,1 0 0 0 1,-1 1,1 0 0 0 -1,-1 z"
     id="path8" />
</svg>
