<svg class="lucide lucide-tag-icon lucide-tag" width="24" height="24" fill="none" stroke-linecap="round" stroke-linejoin="round" stroke-width="2" version="1.1" viewBox="0 0 24 24" xmlns="http://www.w3.org/2000/svg"><path d="m4 1c-1.645 0-3 1.355-3 3v7.1719c1.698e-4 0.7952 0.31653 1.5589 0.87891 2.1211l8.7031 8.7051a1.0001 1.0001 0 0 0 0.0039 2e-3c1.3279 1.3195 3.5002 1.3195 4.8281 0a1.0001 1.0001 0 0 0 0.0039-2e-3l6.5801-6.5801a1.0001 1.0001 0 0 0 0.001966-0.003906c1.3195-1.3279 1.3195-3.5002 0-4.8281a1.0001 1.0001 0 0 0-2e-3 -0.0039l-8.705-8.7031c-0.56221-0.56238-1.3259-0.87874-2.1211-0.87891zm0 2h7.1719c0.26558 5.67e-5 0.51927 0.10515 0.70703 0.29297l8.7031 8.7051c0.55747 0.56452 0.55775 1.4446-2e-3 2.0078l-6.5781 6.5762c-0.56452 0.55747-1.4446 0.55775-2.0078-2e-3l-8.7011-8.7011c-0.18782-0.18776-0.29291-0.44145-0.29297-0.70703v-7.1719c0-0.56413 0.43587-1 1-1z" fill="#000" stop-color="#000000"/><g><path d="M 8,7.5 A 0.5,0.5 0 0 1 7.5,8 0.5,0.5 0 0 1 7,7.5 0.5,0.5 0 0 1 7.5,7 0.5,0.5 0 0 1 8,7.5 Z" fill="currentColor" stop-color="#000000"/><path d="m7.5 6c-0.81658 0-1.5 0.68342-1.5 1.5s0.68342 1.5 1.5 1.5 1.5-0.68342 1.5-1.5-0.68342-1.5-1.5-1.5zm0 1c0.2643 0 0.5 0.2357 0.5 0.5s-0.2357 0.5-0.5 0.5-0.5-0.2357-0.5-0.5 0.2357-0.5 0.5-0.5z" fill="#000" stop-color="#000000"/></g></svg>
