<svg class="lucide lucide-music-icon lucide-music" width="24" height="24" stroke-linecap="round" stroke-linejoin="round" stroke-width="2" version="1.1" viewBox="0 0 24 24" xmlns="http://www.w3.org/2000/svg"><path d="m20.836 2.0137-12 2a1.0001 1.0001 0 0 0-0.83594 0.98633v13a1 1 0 0 0 1 1 1 1 0 0 0 1-1v-12.152l10-1.668v11.82a1 1 0 0 0 1 1 1 1 0 0 0 1-1v-13a1.0001 1.0001 0 0 0-1.1641-0.98633z" stop-color="#000000"/><path d="m6 14c-2.1973 0-4 1.8027-4 4s1.8027 4 4 4 4-1.8027 4-4-1.8027-4-4-4zm0 2c1.1164 0 2 0.88359 2 2s-0.88359 2-2 2-2-0.88359-2-2 0.88359-2 2-2z" stop-color="#000000"/><path d="m18 12c-2.1973 0-4 1.8027-4 4s1.8027 4 4 4 4-1.8027 4-4-1.8027-4-4-4zm0 2c1.1164 0 2 0.88359 2 2s-0.88359 2-2 2-2-0.88359-2-2 0.88359-2 2-2z" stop-color="#000000"/></svg>
