<svg class="lucide lucide-copy-icon lucide-copy" width="24" height="24" stroke-linecap="round" stroke-linejoin="round" stroke-width="2" version="1.1" viewBox="0 0 24 24" xmlns="http://www.w3.org/2000/svg"><path d="m10 7c-1.6447 0-3 1.3553-3 3v10c0 1.6447 1.3553 3 3 3h10c1.6447 0 3-1.3553 3-3v-10c0-1.6447-1.3553-3-3-3zm0 2h10c0.5713 0 1 0.4287 1 1v10c0 0.5713-0.4287 1-1 1h-10c-0.5713 0-1-0.4287-1-1v-10c0-0.5713 0.4287-1 1-1z" stop-color="#000000"/><path d="m4 1c-1.6455 0-3 1.3545-3 3v10c0 1.6455 1.3545 3 3 3a1 1 0 0 0 1-1 1 1 0 0 0-1-1c-0.55455 0-1-0.44546-1-1v-10c0-0.55455 0.44545-1 1-1h10c0.55454 0 1 0.44545 1 1a1 1 0 0 0 1 1 1 1 0 0 0 1-1c0-1.6455-1.3545-3-3-3z" stop-color="#000000"/></svg>
