<svg class="lucide lucide-ellipsis-icon lucide-ellipsis" width="24" height="24" stroke-linecap="round" stroke-linejoin="round" stroke-width="2" version="1.1" viewBox="0 0 24 24" xmlns="http://www.w3.org/2000/svg"><path d="m12 10c-1.0927 0-2 0.90728-2 2s0.90728 2 2 2 2-0.90728 2-2-0.90728-2-2-2z" stop-color="#000000"/><path d="m19 10c-1.0927 0-2 0.90728-2 2s0.90728 2 2 2 2-0.90728 2-2-0.90728-2-2-2z" stop-color="#000000"/><path d="m5 10c-1.0927 0-2 0.90728-2 2s0.90728 2 2 2 2-0.90728 2-2-0.90728-2-2-2z" stop-color="#000000"/></svg>
