<svg class="lucide lucide-arrow-right-left-icon lucide-arrow-right-left" width="24" height="24" stroke-linecap="round" stroke-linejoin="round" stroke-width="2" version="1.1" viewBox="0 0 24 24" xmlns="http://www.w3.org/2000/svg"><path d="m15.293 2.293a1 1 0 0 0 0 1.4141l3.293 3.293-3.293 3.293a1 1 0 0 0 0 1.4141 1 1 0 0 0 1.4141 0l4-4a1.0001 1.0001 0 0 0 0-1.4141l-4-4a1 1 0 0 0-1.4141 0z" stop-color="#000000"/><path d="m4 6a1 1 0 0 0-1 1 1 1 0 0 0 1 1h16a1 1 0 0 0 1-1 1 1 0 0 0-1-1z" stop-color="#000000"/><path d="m8 12a1 1 0 0 0-0.70703 0.29297l-4 4a1.0001 1.0001 0 0 0 0 1.4141l4 4a1 1 0 0 0 1.4141 0 1 1 0 0 0 0-1.4141l-3.293-3.293 3.293-3.293a1 1 0 0 0 0-1.4141 1 1 0 0 0-0.70703-0.29297z" stop-color="#000000"/><path d="m4 16a1 1 0 0 0-1 1 1 1 0 0 0 1 1h16a1 1 0 0 0 1-1 1 1 0 0 0-1-1z" stop-color="#000000"/></svg>
