<svg class="lucide lucide-bell-icon lucide-bell" width="24" height="24" stroke-linecap="round" stroke-linejoin="round" stroke-width="2" version="1.1" viewBox="0 0 24 24" xmlns="http://www.w3.org/2000/svg"><path d="m9.7676 20.135a1 1 0 0 0-0.36523 1.3652c1.1307 1.9582 4.0646 1.9582 5.1953 0a1 1 0 0 0-0.36523-1.3652 1 1 0 0 0-1.3672 0.36523c-0.40896 0.70826-1.3215 0.70826-1.7305 0a1 1 0 0 0-1.3672-0.36523z" stop-color="#000000"/><path d="m12 1c-3.8541 0-7 3.1458-7 7 0 4.2899-1.1301 5.2609-2.457 6.6309a1 1 0 0 0 0 0.01172 1 1 0 0 0-0.019531 0.0098c-0.55948 0.61318-0.64715 1.4882-0.35352 2.1543 0.29364 0.66605 0.99999 1.1928 1.8301 1.1934h16c0.82998 2.97e-4 1.5357-0.52578 1.8301-1.1914s0.20897-1.5404-0.34961-2.1543a1.0001 1.0001 0 0 0-0.02344-0.02344c-1.3294-1.3704-2.457-2.3408-2.457-6.6309 0-3.8542-3.1459-7-7-7zm0 2c2.7733 0 5 2.2267 5 5 0 4.7079 1.6909 6.6518 3.0215 8.0234l-0.021484-0.023437h-16a1 1 0 0 0 0-0.0059c1.324-1.3689 3-3.3092 3-7.9941 0-2.7733 2.2267-5 5-5z" stop-color="#000000"/></svg>
