<svg class="lucide lucide-house-icon lucide-house" width="24" height="24" stroke-linecap="round" stroke-linejoin="round" stroke-width="2" version="1.1" viewBox="0 0 24 24" xmlns="http://www.w3.org/2000/svg"><path d="m10 11c-1.0927 0-2 0.90728-2 2v8a1 1 0 0 0 1 1 1 1 0 0 0 1-1v-8h4v8a1 1 0 0 0 1 1 1 1 0 0 0 1-1v-8c0-1.0927-0.90728-2-2-2z" stop-color="#000000"/><path d="m12 1.0039c-0.69003 0-1.3791 0.2348-1.9355 0.70508a1.0001 1.0001 0 0 0-0.0059 0.00391l-6.9941 5.9961c-0.67415 0.56977-1.0647 1.4083-1.0645 2.291v9c0 1.645 1.355 3 3 3h14c1.645 0 3-1.355 3-3v-9c2.12e-4 -0.88267-0.3903-1.7212-1.0645-2.291l-6.9941-5.9961a1.0001 1.0001 0 0 0-0.0059-0.00391c-0.5564-0.47028-1.2455-0.70507-1.9355-0.70507zm-0.64453 2.2324c0.37789-0.31938 0.91117-0.31938 1.2891 0l6.9961 5.9941a1.0001 1.0001 0 0 0 0.0039 0.00586c0.22537 0.19047 0.35555 0.4686 0.35548 0.76367v9c0 0.56413-0.43587 1-1 1h-14c-0.56413 0-1-0.43587-1-1v-9c-7.07e-5 -0.29507 0.1301-0.5732 0.35547-0.76367a1.0001 1.0001 0 0 0 0.00391-0.00586z" stop-color="#000000"/></svg>
