<svg class="lucide lucide-circle-x-icon lucide-circle-x" width="24" height="24" stroke-linecap="round" stroke-linejoin="round" stroke-width="2" version="1.1" viewBox="0 0 24 24" xmlns="http://www.w3.org/2000/svg"><path d="m12 1c-6.0633 0-11 4.9367-11 11 0 6.0633 4.9367 11 11 11 6.0633 0 11-4.9367 11-11 0-6.0633-4.9367-11-11-11zm0 2c4.9824 0 9 4.0176 9 9 0 4.9824-4.0176 9-9 9-4.9824 0-9-4.0176-9-9 0-4.9824 4.0176-9 9-9z" stop-color="#000000"/><path d="m15 8a1 1 0 0 0-0.70703 0.29297l-6 6a1 1 0 0 0 0 1.4141 1 1 0 0 0 1.4141 0l6-6a1 1 0 0 0 0-1.4141 1 1 0 0 0-0.70703-0.29297z" stop-color="#000000"/><path d="m9 8a1 1 0 0 0-0.70703 0.29297 1 1 0 0 0 0 1.4141l6 6a1 1 0 0 0 1.4141 0 1 1 0 0 0 0-1.4141l-6-6a1 1 0 0 0-0.70703-0.29297z" stop-color="#000000"/></svg>
