<svg class="lucide lucide-map-pin-icon lucide-map-pin" width="24" height="24" stroke-linecap="round" stroke-linejoin="round" stroke-width="2" version="1.1" viewBox="0 0 24 24" xmlns="http://www.w3.org/2000/svg"><path d="m12 1c-4.9587 0-9 4.0413-9 9 0 2.8663 1.523 5.5628 3.207 7.7754 1.684 2.2126 3.5766 3.9502 4.5391 4.7812a1.0001 1.0001 0 0 0 0.05273 0.04102c0.70834 0.53264 1.694 0.53264 2.4023 0a1.0001 1.0001 0 0 0 0.05273-0.04102c0.96244-0.83101 2.8551-2.5687 4.5391-4.7812 1.684-2.2126 3.207-4.9091 3.207-7.7754 0-4.9587-4.0413-9-9-9zm0 2c3.8778 0 7 3.1222 7 7 0 2.1267-1.2464 4.5273-2.7969 6.5645-1.5314 2.0121-3.2947 3.6368-4.2031 4.4238-0.90844-0.78703-2.6717-2.4117-4.2031-4.4238-1.5505-2.0372-2.7969-4.4377-2.7969-6.5645 0-3.8778 3.1222-7 7-7z" stop-color="#000000"/><path d="m12 6c-2.1973 0-4 1.8027-4 4 0 2.1973 1.8027 4 4 4 2.1973 0 4-1.8027 4-4 0-2.1973-1.8027-4-4-4zm0 2c1.1164 0 2 0.88359 2 2 0 1.1164-0.88359 2-2 2s-2-0.88359-2-2c0-1.1164 0.88359-2 2-2z" stop-color="#000000"/></svg>
