<svg class="lucide lucide-check-check-icon lucide-check-check" width="24" height="24" stroke-linecap="round" stroke-linejoin="round" stroke-width="2" version="1.1" viewBox="0 0 24 24" xmlns="http://www.w3.org/2000/svg"><path d="m17.293 5.293-10.293 10.293-4.293-4.293a1 1 0 0 0-1.4141 0 1 1 0 0 0 0 1.4141l5 5a1.0001 1.0001 0 0 0 1.4141 0l11-11a1 1 0 0 0 0-1.4141 1 1 0 0 0-1.4141 0z" stop-color="#000000"/><path d="m21.293 9.293-6.793 6.793-0.79297-0.79297a1 1 0 0 0-1.4141 0 1 1 0 0 0 0 1.4141l1.5 1.5a1.0001 1.0001 0 0 0 1.4141 0l7.5-7.5a1 1 0 0 0 0-1.4141 1 1 0 0 0-1.4141 0z" stop-color="#000000"/></svg>
