/* XPM */
static char * away_xpm[] = {
"16 16 106 2",
"  	c None",
". 	c #E3D244",
"+ 	c #EAD735",
"@ 	c #EDDA40",
"# 	c #ECDA43",
"$ 	c #ECDB47",
"% 	c #EDDA42",
"& 	c #EBD943",
"* 	c #EAD944",
"= 	c #EDDC41",
"- 	c #EFDD47",
"; 	c #EDDA3E",
"> 	c #EEDC45",
", 	c #FFEF98",
"' 	c #EEDD47",
") 	c #FFEE5C",
"! 	c #EFDD46",
"~ 	c #FFE849",
"{ 	c #E7D646",
"] 	c #E7D95E",
"^ 	c #E9D847",
"/ 	c #F7E653",
"( 	c #F1E486",
"_ 	c #F6EFA2",
": 	c #EFE48A",
"< 	c #EFEAAA",
"[ 	c #E8EEE3",
"} 	c #E9EFDC",
"| 	c #E2EBE8",
"1 	c #E7EBD1",
"2 	c #EAEED9",
"3 	c #E8EDE6",
"4 	c #E9E398",
"5 	c #E1E7E9",
"6 	c #BEC3C5",
"7 	c #CED3D5",
"8 	c #C3C8CA",
"9 	c #EAECEE",
"0 	c #E4E8E0",
"a 	c #E7EEE5",
"b 	c #E0E6E6",
"c 	c #DAE1E0",
"d 	c #DBE4E5",
"e 	c #E2EBE9",
"f 	c #E1E9E9",
"g 	c #E2E8E3",
"h 	c #E7EEEF",
"i 	c #E0E6E7",
"j 	c #C1C6C8",
"k 	c #D7DCDE",
"l 	c #C3C8C9",
"m 	c #F1F3F4",
"n 	c #E8EDEB",
"o 	c #E2E7E3",
"p 	c #E4ECE5",
"q 	c #DAE2E1",
"r 	c #D6DEDE",
"s 	c #D6DFDF",
"t 	c #E0E9EA",
"u 	c #E1EAEB",
"v 	c #E2EAEB",
"w 	c #E4EBEC",
"x 	c #DAE1E2",
"y 	c #E2E8E9",
"z 	c #E4EAEB",
"A 	c #CDD2D2",
"B 	c #EDF2ED",
"C 	c #E3E8E6",
"D 	c #E3EBE4",
"E 	c #DDE5E2",
"F 	c #D9E1E0",
"G 	c #DBE3E3",
"H 	c #E3EDEE",
"I 	c #E4EEEF",
"J 	c #E1E9EA",
"K 	c #DDE4E5",
"L 	c #DCE3E4",
"M 	c #E1E7E8",
"N 	c #E3EAEB",
"O 	c #CDD2D3",
"P 	c #C0C5C7",
"Q 	c #E5EDEE",
"R 	c #DEE4E1",
"S 	c #E0E7E3",
"T 	c #E6EDE7",
"U 	c #E6EDED",
"V 	c #E7F0F1",
"W 	c #E5EFF0",
"X 	c #E2E9EA",
"Y 	c #E6EDEE",
"Z 	c #D4DCDD",
"` 	c #D0D7D8",
" .	c #BEC5C5",
"..	c #C9D2D2",
"+.	c #C4CECE",
"@.	c #C6CECF",
"#.	c #C9D0D1",
"$.	c #E8F1F2",
"%.	c #C3CACB",
"&.	c #BFC5C6",
"*.	c #D5DCDD",
"=.	c #CACFD0",
"-.	c #CCD1D2",
";.	c #C4CBCC",
">.	c #CBD2D2",
",.	c #B7C0C2",
"                                ",
"        .       +               ",
"  @     #     $ .               ",
"  % @   & * = -       -         ",
"    ; > , , , , ' ) -           ",
"    ! , , ~ ~ , , {             ",
"] ] , , ~ ~ ~ ~ , , ^ / -       ",
"  ] ( _ _ ~ ~ ~ ~ , ^           ",
"  ] : < [ } | 1 2 3 4 5 6   7   ",
"8 9 ] 0 a b c d e f g h i j k l ",
"8 m n o p q r s t u v w x y z A ",
"8 8 B C D E F G H I J K L M N O ",
"    P Q R S T U V W v X K N Y 6 ",
"    8 Z `  ...+.@.#.$.%.&.*.=.  ",
"      -.;.        >.,.    -.    ",
"                                "};
