/* XPM */
static char * free for chat_xpm[] = {
"16 16 54 1",
" 	c None",
".	c #E6CB02",
"+	c #C97508",
"@	c #E6C104",
"#	c #E6CA02",
"$	c #F8EFD0",
"%	c #E6C603",
"&	c #FFDE03",
"*	c #884E03",
"=	c #E6BA05",
"-	c #E6C004",
";	c #FFDA04",
">	c #FFDC04",
",	c #E6BA06",
"'	c #E6BC05",
")	c #FFD305",
"!	c #FFD505",
"~	c #FFD704",
"{	c #FFD904",
"]	c #FFD106",
"^	c #FFD306",
"/	c #FFD506",
"(	c #FFD705",
"_	c #E6B606",
":	c #FFCD07",
"<	c #FFCF06",
"[	c #FFD405",
"}	c #E6B007",
"|	c #E6B207",
"1	c #FFC807",
"2	c #FFCB07",
"3	c #FFCC06",
"4	c #FFCE07",
"5	c #FFD007",
"6	c #FFD905",
"7	c #FFDB04",
"8	c #E6B307",
"9	c #FFC808",
"0	c #FFCA08",
"a	c #FFCF07",
"b	c #FFD206",
"c	c #FFD605",
"d	c #FFCC07",
"e	c #FFD006",
"f	c #FFD406",
"g	c #E6AE08",
"h	c #FFC608",
"i	c #FFCE06",
"j	c #E6BF04",
"k	c #E6AA09",
"l	c #E6B208",
"m	c #E6B906",
"n	c #E6BB05",
"o	c #E6B506",
"       . ++++++ ",
"   @   #+$$$$$$+",
"    @ %&+$****$+",
" =  -@;>+$$$$$$+",
"  ,')!~{+$****$+",
"   =]^/(+$$$$$$+",
"  _:<])[(+++$$+ ",
"}|12345^/(67++# ",
"  890:a]b[c++   ",
"   |92d<ebf@    ",
"  g}h90di5bj@   ",
" k  }l90dmn  @  ",
"    g |9o m     ",
"   k   |   m    ",
"       }        ",
"                "};
