/* XPM */
static char * invisible_xpm[] = {
"16 16 49 1",
" 	c None",
".	c #FFF29C",
"+	c #FFEF9C",
"@	c #FFF19C",
"#	c #FFF49C",
"$	c #FFEE9C",
"%	c #636464",
"&	c #6F6F6F",
"*	c #7A7A7A",
"=	c #FFF39C",
"-	c #FFEC9D",
";	c #434342",
">	c #4D4E4E",
",	c #585959",
"'	c #6E6F6F",
")	c #858585",
"!	c #373837",
"~	c #424242",
"{	c #4D4D4E",
"]	c #595959",
"^	c #636364",
"/	c #FFEA9D",
"(	c #212121",
"_	c #2C2D2C",
":	c #373738",
"<	c #424243",
"[	c #585958",
"}	c #646464",
"|	c #FFE89E",
"1	c #FFE99D",
"2	c #161616",
"3	c #212221",
"4	c #2C2C2D",
"5	c #4E4E4D",
"6	c #636463",
"7	c #FFE99E",
"8	c #0B0C0B",
"9	c #2C2C2C",
"0	c #373838",
"a	c #FFF09C",
"b	c #0B0B0B",
"c	c #161617",
"d	c #2C2D2D",
"e	c #434343",
"f	c #FFE79E",
"g	c #000000",
"h	c #383738",
"i	c #212122",
"j	c #FFEB9D",
"                ",
"       .        ",
"    + @.. #     ",
"    $+%&*.=     ",
"  --;>,%'*)=#   ",
"   -!~{]^&*.    ",
"  /(_:<>[}&*.   ",
" |1234:;5]6&@.  ",
"  782(90<>]%a   ",
"   |bc3d:e>$    ",
"  ffgbc34he$$   ",
"    f|b2ij-     ",
"    f |71 j     ",
"       |        ",
"                ",
"                "};
