/* XPM */
static char * offline2_xpm[] = {
"16 16 43 1",
" 	c None",
".	c #887D1D",
"+	c #8A801D",
"@	c #92851D",
"#	c #9C8D1D",
"$	c #AC9D25",
"%	c #867B1D",
"&	c #BFB445",
"*	c #BFB863",
"=	c #BFBA76",
"-	c #C0B969",
";	c #93871D",
">	c #BFB23B",
",	c #BFB342",
"'	c #BFB85D",
")	c #BFBA77",
"!	c #BFAE26",
"~	c #BFB551",
"{	c #BFB866",
"]	c #BFB86B",
"^	c #BFB973",
"/	c #BFB02D",
"(	c #BFB134",
"_	c #BFB65B",
":	c #BFB860",
"<	c #BFB13A",
"[	c #BFB970",
"}	c #BFB54F",
"|	c #BFBA80",
"1	c #BFB975",
"2	c #BFB974",
"3	c #BFB33D",
"4	c #BFBA7A",
"5	c #BFB030",
"6	c #BFB136",
"7	c #BFB868",
"8	c #BFB450",
"9	c #BFB85E",
"0	c #BFB864",
"a	c #BFB44E",
"b	c #BFB96E",
"c	c #BFB550",
"d	c #C0B64D",
"         .+@#$  ",
"       %%&*=-;  ",
"     %%>,'))%   ",
"    %!!~{]^%    ",
"   %!!/'^)%     ",
"   %/(_:^)%     ",
"  %!<,^][%      ",
"  %!,}|12%      ",
"  %!3,422%      ",
"  %!56777%      ",
"   %!!8999%     ",
"   %!!/'90%     ",
"    %!!a9b=%    ",
"     %%!8b=^%   ",
"       %%c*:d;  ",
"         .+@#$  "};
