/* XPM */
static char * extend_away_xpm[] = {
"16 16 49 1",
" 	c None",
".	c #B8B8B8",
"+	c #AEAEAE",
"@	c #AFAFAF",
"#	c #B5B5B5",
"$	c #B7B7B7",
"%	c #B0B0B0",
"&	c #A8A8A8",
"*	c #EAEAEA",
"=	c #B3B3B3",
"-	c #ABABAB",
";	c #E2E2E2",
">	c #DDDDDD",
",	c #EBEBEB",
"'	c #B1B1B1",
")	c #B6B6B6",
"!	c #A9A9A9",
"~	c #D7D7D7",
"{	c #D9D9D9",
"]	c #E8E8E8",
"^	c #EFEFEF",
"/	c #E3E3E3",
"(	c #E1E1E1",
"_	c #DADADA",
":	c #F5F5F5",
"<	c #E0E0E0",
"[	c #E7E7E7",
"}	c #D6D6D6",
"|	c #DFDFDF",
"1	c #E5E5E5",
"2	c #EDEDED",
"3	c #F1F1F1",
"4	c #B2B2B2",
"5	c #DEDEDE",
"6	c #E6E6E6",
"7	c #F0F0F0",
"8	c #F3F3F3",
"9	c #EEEEEE",
"0	c #ECECEC",
"a	c #ACACAC",
"b	c #E4E4E4",
"c	c #F8F8F8",
"d	c #DCDCDC",
"e	c #D4D4D4",
"f	c #ADADAD",
"g	c #A2A2A2",
"h	c #B4B4B4",
"i	c #A3D7F9",
"j	c #48B1F4",
"  ...  +@#$     ",
" %&*=$-;>,'.)## ",
".!~{]^/(_],:*<[=",
".]}{|1<[/123;>;4",
"4[5(//67^890]62#",
"a6b5~~<6ac923.. ",
"@!&d}e(,'.32f.  ",
"  #agg&+  h'    ",
"   ij  ji  ij   ",
"                ",
"  ji  ij  ji    ",
"                ",
"     ji         ",
" ij      ij     ",
"                ",
"                "};
